0
SECTION
2
HEADER
0
ENDSEC
0
SECTION
2
BLOCKS
0
BLOCK
2
Circle
8
Meshes
70
64
10
0.0
20
0.0
30
0.0
3
Circle
0
POLYLINE
66
1
8
Meshes
62
250
70
64
71
1290
72
1288
0
VERTEX
8
Meshes
10
0.587670
20
0.392668
30
0.000000
70
192
0
VERTEX
8
Meshes
10
0.693204
20
0.137887
30
0.000000
70
192
0
VERTEX
8
Meshes
10
0.693204
20
-0.137887
30
-0.000000
70
192
0
VERTEX
8
Meshes
10
0.587670
20
-0.392668
30
-0.000000
70
192
0
VERTEX
8
Meshes
10
0.392668
20
-0.587670
30
-0.000000
70
192
0
VERTEX
8
Meshes
10
0.137887
20
-0.693204
30
-0.000000
70
192
0
VERTEX
8
Meshes
10
-0.137887
20
-0.693204
30
-0.000000
70
192
0
VERTEX
8
Meshes
10
-0.392668
20
-0.587670
30
-0.000000
70
192
0
VERTEX
8
Meshes
10
-0.587670
20
-0.392668
30
-0.000000
70
192
0
VERTEX
8
Meshes
10
-0.693204
20
-0.137887
30
-0.000000
70
192
0
VERTEX
8
Meshes
10
-0.693204
20
0.137887
30
0.000000
70
192
0
VERTEX
8
Meshes
10
-0.587669
20
0.392668
30
0.000000
70
192
0
VERTEX
8
Meshes
10
-0.392668
20
0.587670
30
0.000000
70
192
0
VERTEX
8
Meshes
10
-0.137886
20
0.693204
30
0.000000
70
192
0
VERTEX
8
Meshes
10
0.137887
20
0.693204
30
0.000000
70
192
0
VERTEX
8
Meshes
10
0.392669
20
0.587670
30
0.000000
70
192
0
VERTEX
8
Meshes
10
0.529017
20
0.353478
30
0.000000
70
192
0
VERTEX
8
Meshes
10
0.559075
20
0.373562
30
0.000000
70
192
0
VERTEX
8
Meshes
10
0.624019
20
0.124125
30
0.000000
70
192
0
VERTEX
8
Meshes
10
0.659473
20
0.131177
30
0.000000
70
192
0
VERTEX
8
Meshes
10
0.624018
20
-0.124125
30
-0.000000
70
192
0
VERTEX
8
Meshes
10
0.659473
20
-0.131177
30
-0.000000
70
192
0
VERTEX
8
Meshes
10
0.529017
20
-0.353478
30
-0.000000
70
192
0
VERTEX
8
Meshes
10
0.559075
20
-0.373562
30
-0.000000
70
192
0
VERTEX
8
Meshes
10
0.353478
20
-0.529017
30
-0.000000
70
192
0
VERTEX
8
Meshes
10
0.373562
20
-0.559075
30
-0.000000
70
192
0
VERTEX
8
Meshes
10
0.124125
20
-0.624018
30
-0.000000
70
192
0
VERTEX
8
Meshes
10
0.131178
20
-0.659473
30
-0.000000
70
192
0
VERTEX
8
Meshes
10
-0.124125
20
-0.624018
30
-0.000000
70
192
0
VERTEX
8
Meshes
10
-0.131177
20
-0.659473
30
-0.000000
70
192
0
VERTEX
8
Meshes
10
-0.353478
20
-0.529017
30
-0.000000
70
192
0
VERTEX
8
Meshes
10
-0.373562
20
-0.559075
30
-0.000000
70
192
0
VERTEX
8
Meshes
10
-0.529017
20
-0.353478
30
-0.000000
70
192
0
VERTEX
8
Meshes
10
-0.559075
20
-0.373562
30
-0.000000
70
192
0
VERTEX
8
Meshes
10
-0.624018
20
-0.124125
30
-0.000000
70
192
0
VERTEX
8
Meshes
10
-0.659473
20
-0.131177
30
-0.000000
70
192
0
VERTEX
8
Meshes
10
-0.624018
20
0.124125
30
0.000000
70
192
0
VERTEX
8
Meshes
10
-0.659473
20
0.131177
30
0.000000
70
192
0
VERTEX
8
Meshes
10
-0.529017
20
0.353478
30
0.000000
70
192
0
VERTEX
8
Meshes
10
-0.559074
20
0.373562
30
0.000000
70
192
0
VERTEX
8
Meshes
10
-0.353478
20
0.529017
30
0.000000
70
192
0
VERTEX
8
Meshes
10
-0.373561
20
0.559075
30
0.000000
70
192
0
VERTEX
8
Meshes
10
-0.124125
20
0.624019
30
0.000000
70
192
0
VERTEX
8
Meshes
10
-0.131177
20
0.659474
30
0.000000
70
192
0
VERTEX
8
Meshes
10
0.124125
20
0.624018
30
0.000000
70
192
0
VERTEX
8
Meshes
10
0.131178
20
0.659473
30
0.000000
70
192
0
VERTEX
8
Meshes
10
0.353478
20
0.529017
30
0.000000
70
192
0
VERTEX
8
Meshes
10
0.373562
20
0.559074
30
0.000000
70
192
0
VERTEX
8
Meshes
10
0.399725
20
0.598230
30
0.006922
70
192
0
VERTEX
8
Meshes
10
0.140365
20
0.705661
30
0.006922
70
192
0
VERTEX
8
Meshes
10
-0.140364
20
0.705661
30
0.006922
70
192
0
VERTEX
8
Meshes
10
-0.399724
20
0.598230
30
0.006922
70
192
0
VERTEX
8
Meshes
10
-0.598230
20
0.399725
30
0.006922
70
192
0
VERTEX
8
Meshes
10
-0.705661
20
0.140365
30
0.006922
70
192
0
VERTEX
8
Meshes
10
-0.705661
20
-0.140365
30
0.006922
70
192
0
VERTEX
8
Meshes
10
-0.598230
20
-0.399725
30
0.006922
70
192
0
VERTEX
8
Meshes
10
-0.399725
20
-0.598230
30
0.006922
70
192
0
VERTEX
8
Meshes
10
-0.140364
20
-0.705661
30
0.006922
70
192
0
VERTEX
8
Meshes
10
0.140365
20
-0.705661
30
0.006922
70
192
0
VERTEX
8
Meshes
10
0.399725
20
-0.598230
30
0.006922
70
192
0
VERTEX
8
Meshes
10
0.598230
20
-0.399725
30
0.006922
70
192
0
VERTEX
8
Meshes
10
0.705661
20
-0.140365
30
0.006922
70
192
0
VERTEX
8
Meshes
10
0.705661
20
0.140365
30
0.006922
70
192
0
VERTEX
8
Meshes
10
0.598230
20
0.399725
30
0.006922
70
192
0
VERTEX
8
Meshes
10
0.345445
20
0.516994
30
0.006922
70
192
0
VERTEX
8
Meshes
10
0.121305
20
0.609836
30
0.006922
70
192
0
VERTEX
8
Meshes
10
-0.121304
20
0.609837
30
0.006922
70
192
0
VERTEX
8
Meshes
10
-0.345444
20
0.516994
30
0.006922
70
192
0
VERTEX
8
Meshes
10
-0.516994
20
0.345445
30
0.006922
70
192
0
VERTEX
8
Meshes
10
-0.609836
20
0.121304
30
0.006922
70
192
0
VERTEX
8
Meshes
10
-0.609836
20
-0.121304
30
0.006922
70
192
0
VERTEX
8
Meshes
10
-0.516994
20
-0.345445
30
0.006922
70
192
0
VERTEX
8
Meshes
10
-0.345444
20
-0.516994
30
0.006922
70
192
0
VERTEX
8
Meshes
10
-0.121304
20
-0.609836
30
0.006922
70
192
0
VERTEX
8
Meshes
10
0.121304
20
-0.609836
30
0.006922
70
192
0
VERTEX
8
Meshes
10
0.345445
20
-0.516994
30
0.006922
70
192
0
VERTEX
8
Meshes
10
0.516994
20
-0.345445
30
0.006922
70
192
0
VERTEX
8
Meshes
10
0.609836
20
-0.121304
30
0.006922
70
192
0
VERTEX
8
Meshes
10
0.609836
20
0.121304
30
0.006922
70
192
0
VERTEX
8
Meshes
10
0.516994
20
0.345445
30
0.006922
70
192
0
VERTEX
8
Meshes
10
0.516994
20
0.345445
30
0.046110
70
192
0
VERTEX
8
Meshes
10
0.609836
20
0.121304
30
0.046110
70
192
0
VERTEX
8
Meshes
10
0.609836
20
-0.121304
30
0.046110
70
192
0
VERTEX
8
Meshes
10
0.516994
20
-0.345445
30
0.046110
70
192
0
VERTEX
8
Meshes
10
0.345445
20
-0.516994
30
0.046110
70
192
0
VERTEX
8
Meshes
10
0.121304
20
-0.609836
30
0.046110
70
192
0
VERTEX
8
Meshes
10
-0.121304
20
-0.609836
30
0.046110
70
192
0
VERTEX
8
Meshes
10
-0.345444
20
-0.516994
30
0.046110
70
192
0
VERTEX
8
Meshes
10
-0.516994
20
-0.345445
30
0.046110
70
192
0
VERTEX
8
Meshes
10
-0.609836
20
-0.121304
30
0.046110
70
192
0
VERTEX
8
Meshes
10
-0.609836
20
0.121304
30
0.046110
70
192
0
VERTEX
8
Meshes
10
-0.516994
20
0.345445
30
0.046110
70
192
0
VERTEX
8
Meshes
10
-0.345444
20
0.516994
30
0.046110
70
192
0
VERTEX
8
Meshes
10
-0.121304
20
0.609837
30
0.046110
70
192
0
VERTEX
8
Meshes
10
0.121305
20
0.609836
30
0.046110
70
192
0
VERTEX
8
Meshes
10
0.345445
20
0.516994
30
0.046110
70
192
0
VERTEX
8
Meshes
10
0.598230
20
0.399725
30
0.046110
70
192
0
VERTEX
8
Meshes
10
0.705661
20
0.140365
30
0.046110
70
192
0
VERTEX
8
Meshes
10
0.705661
20
-0.140365
30
0.046110
70
192
0
VERTEX
8
Meshes
10
0.598230
20
-0.399725
30
0.046110
70
192
0
VERTEX
8
Meshes
10
0.399725
20
-0.598230
30
0.046110
70
192
0
VERTEX
8
Meshes
10
0.140365
20
-0.705661
30
0.046110
70
192
0
VERTEX
8
Meshes
10
-0.140364
20
-0.705661
30
0.046110
70
192
0
VERTEX
8
Meshes
10
-0.399725
20
-0.598230
30
0.046110
70
192
0
VERTEX
8
Meshes
10
-0.598230
20
-0.399725
30
0.046110
70
192
0
VERTEX
8
Meshes
10
-0.705661
20
-0.140365
30
0.046110
70
192
0
VERTEX
8
Meshes
10
-0.705661
20
0.140365
30
0.046110
70
192
0
VERTEX
8
Meshes
10
-0.598230
20
0.399725
30
0.046110
70
192
0
VERTEX
8
Meshes
10
-0.399724
20
0.598230
30
0.046110
70
192
0
VERTEX
8
Meshes
10
-0.140364
20
0.705661
30
0.046110
70
192
0
VERTEX
8
Meshes
10
0.140365
20
0.705661
30
0.046110
70
192
0
VERTEX
8
Meshes
10
0.399725
20
0.598230
30
0.046110
70
192
0
VERTEX
8
Meshes
10
0.399725
20
0.598230
30
0.086980
70
192
0
VERTEX
8
Meshes
10
0.140365
20
0.705661
30
0.086980
70
192
0
VERTEX
8
Meshes
10
-0.140364
20
0.705661
30
0.086980
70
192
0
VERTEX
8
Meshes
10
-0.399724
20
0.598230
30
0.086980
70
192
0
VERTEX
8
Meshes
10
-0.598230
20
0.399725
30
0.086980
70
192
0
VERTEX
8
Meshes
10
-0.705661
20
0.140365
30
0.086980
70
192
0
VERTEX
8
Meshes
10
-0.705661
20
-0.140365
30
0.086980
70
192
0
VERTEX
8
Meshes
10
-0.598230
20
-0.399725
30
0.086980
70
192
0
VERTEX
8
Meshes
10
-0.399725
20
-0.598230
30
0.086980
70
192
0
VERTEX
8
Meshes
10
-0.140364
20
-0.705661
30
0.086980
70
192
0
VERTEX
8
Meshes
10
0.140365
20
-0.705661
30
0.086980
70
192
0
VERTEX
8
Meshes
10
0.399725
20
-0.598230
30
0.086980
70
192
0
VERTEX
8
Meshes
10
0.598230
20
-0.399725
30
0.086980
70
192
0
VERTEX
8
Meshes
10
0.705661
20
-0.140365
30
0.086980
70
192
0
VERTEX
8
Meshes
10
0.705661
20
0.140365
30
0.086980
70
192
0
VERTEX
8
Meshes
10
0.598230
20
0.399725
30
0.086980
70
192
0
VERTEX
8
Meshes
10
0.345445
20
0.516994
30
0.086980
70
192
0
VERTEX
8
Meshes
10
0.121305
20
0.609836
30
0.086980
70
192
0
VERTEX
8
Meshes
10
-0.121304
20
0.609837
30
0.086980
70
192
0
VERTEX
8
Meshes
10
-0.345444
20
0.516994
30
0.086980
70
192
0
VERTEX
8
Meshes
10
-0.516994
20
0.345445
30
0.086980
70
192
0
VERTEX
8
Meshes
10
-0.609836
20
0.121304
30
0.086980
70
192
0
VERTEX
8
Meshes
10
-0.609836
20
-0.121304
30
0.086980
70
192
0
VERTEX
8
Meshes
10
-0.516994
20
-0.345445
30
0.086980
70
192
0
VERTEX
8
Meshes
10
-0.345444
20
-0.516994
30
0.086980
70
192
0
VERTEX
8
Meshes
10
-0.121304
20
-0.609836
30
0.086980
70
192
0
VERTEX
8
Meshes
10
0.121304
20
-0.609836
30
0.086980
70
192
0
VERTEX
8
Meshes
10
0.345445
20
-0.516994
30
0.086980
70
192
0
VERTEX
8
Meshes
10
0.516994
20
-0.345445
30
0.086980
70
192
0
VERTEX
8
Meshes
10
0.609836
20
-0.121304
30
0.086980
70
192
0
VERTEX
8
Meshes
10
0.609836
20
0.121304
30
0.086980
70
192
0
VERTEX
8
Meshes
10
0.516994
20
0.345445
30
0.086980
70
192
0
VERTEX
8
Meshes
10
0.587670
20
0.392668
30
0.095584
70
192
0
VERTEX
8
Meshes
10
0.693204
20
0.137887
30
0.095584
70
192
0
VERTEX
8
Meshes
10
0.693204
20
-0.137887
30
0.095584
70
192
0
VERTEX
8
Meshes
10
0.587670
20
-0.392668
30
0.095584
70
192
0
VERTEX
8
Meshes
10
0.392668
20
-0.587670
30
0.095584
70
192
0
VERTEX
8
Meshes
10
0.137887
20
-0.693204
30
0.095584
70
192
0
VERTEX
8
Meshes
10
-0.137887
20
-0.693204
30
0.095584
70
192
0
VERTEX
8
Meshes
10
-0.392668
20
-0.587670
30
0.095584
70
192
0
VERTEX
8
Meshes
10
-0.587670
20
-0.392668
30
0.095584
70
192
0
VERTEX
8
Meshes
10
-0.693204
20
-0.137887
30
0.095584
70
192
0
VERTEX
8
Meshes
10
-0.693204
20
0.137887
30
0.095584
70
192
0
VERTEX
8
Meshes
10
-0.587669
20
0.392668
30
0.095584
70
192
0
VERTEX
8
Meshes
10
-0.392668
20
0.587670
30
0.095584
70
192
0
VERTEX
8
Meshes
10
-0.137886
20
0.693204
30
0.095584
70
192
0
VERTEX
8
Meshes
10
0.137887
20
0.693204
30
0.095584
70
192
0
VERTEX
8
Meshes
10
0.392669
20
0.587670
30
0.095584
70
192
0
VERTEX
8
Meshes
10
0.529017
20
0.353478
30
0.095584
70
192
0
VERTEX
8
Meshes
10
0.559075
20
0.373562
30
0.095584
70
192
0
VERTEX
8
Meshes
10
0.624019
20
0.124125
30
0.095584
70
192
0
VERTEX
8
Meshes
10
0.659473
20
0.131177
30
0.095584
70
192
0
VERTEX
8
Meshes
10
0.624018
20
-0.124125
30
0.095584
70
192
0
VERTEX
8
Meshes
10
0.659473
20
-0.131177
30
0.095584
70
192
0
VERTEX
8
Meshes
10
0.529017
20
-0.353478
30
0.095584
70
192
0
VERTEX
8
Meshes
10
0.559075
20
-0.373562
30
0.095584
70
192
0
VERTEX
8
Meshes
10
0.353478
20
-0.529017
30
0.095584
70
192
0
VERTEX
8
Meshes
10
0.373562
20
-0.559075
30
0.095584
70
192
0
VERTEX
8
Meshes
10
0.124125
20
-0.624018
30
0.095584
70
192
0
VERTEX
8
Meshes
10
0.131178
20
-0.659473
30
0.095584
70
192
0
VERTEX
8
Meshes
10
-0.124125
20
-0.624018
30
0.095584
70
192
0
VERTEX
8
Meshes
10
-0.131177
20
-0.659473
30
0.095584
70
192
0
VERTEX
8
Meshes
10
-0.353478
20
-0.529017
30
0.095584
70
192
0
VERTEX
8
Meshes
10
-0.373562
20
-0.559075
30
0.095584
70
192
0
VERTEX
8
Meshes
10
-0.529017
20
-0.353478
30
0.095584
70
192
0
VERTEX
8
Meshes
10
-0.559075
20
-0.373562
30
0.095584
70
192
0
VERTEX
8
Meshes
10
-0.624018
20
-0.124125
30
0.095584
70
192
0
VERTEX
8
Meshes
10
-0.659473
20
-0.131177
30
0.095584
70
192
0
VERTEX
8
Meshes
10
-0.624018
20
0.124125
30
0.095584
70
192
0
VERTEX
8
Meshes
10
-0.659473
20
0.131177
30
0.095584
70
192
0
VERTEX
8
Meshes
10
-0.529017
20
0.353478
30
0.095584
70
192
0
VERTEX
8
Meshes
10
-0.559074
20
0.373562
30
0.095584
70
192
0
VERTEX
8
Meshes
10
-0.353478
20
0.529017
30
0.095584
70
192
0
VERTEX
8
Meshes
10
-0.373561
20
0.559075
30
0.095584
70
192
0
VERTEX
8
Meshes
10
-0.124125
20
0.624018
30
0.095584
70
192
0
VERTEX
8
Meshes
10
-0.131177
20
0.659474
30
0.095584
70
192
0
VERTEX
8
Meshes
10
0.353478
20
0.529017
30
0.095584
70
192
0
VERTEX
8
Meshes
10
0.124125
20
0.624018
30
0.095584
70
192
0
VERTEX
8
Meshes
10
0.280274
20
0.237549
30
0.000000
70
192
0
VERTEX
8
Meshes
10
0.280274
20
-0.261723
30
0.000000
70
192
0
VERTEX
8
Meshes
10
0.265515
20
-0.278468
30
0.000000
70
192
0
VERTEX
8
Meshes
10
-0.260301
20
-0.278468
30
0.000000
70
192
0
VERTEX
8
Meshes
10
-0.275059
20
-0.261723
30
0.000000
70
192
0
VERTEX
8
Meshes
10
-0.275059
20
0.237549
30
0.000000
70
192
0
VERTEX
8
Meshes
10
-0.260301
20
0.254293
30
0.000000
70
192
0
VERTEX
8
Meshes
10
0.265515
20
0.254293
30
0.000000
70
192
0
VERTEX
8
Meshes
10
0.178063
20
0.145774
30
0.000000
70
192
0
VERTEX
8
Meshes
10
0.178063
20
-0.169948
30
0.000000
70
192
0
VERTEX
8
Meshes
10
0.170122
20
-0.180537
30
0.000000
70
192
0
VERTEX
8
Meshes
10
-0.175236
20
-0.180537
30
0.000000
70
192
0
VERTEX
8
Meshes
10
-0.183177
20
-0.169949
30
0.000000
70
192
0
VERTEX
8
Meshes
10
-0.183177
20
0.145774
30
0.000000
70
192
0
VERTEX
8
Meshes
10
-0.175236
20
0.156363
30
0.000000
70
192
0
VERTEX
8
Meshes
10
0.170122
20
0.156363
30
0.000000
70
192
0
VERTEX
8
Meshes
10
0.269405
20
0.267999
30
0.006922
70
192
0
VERTEX
8
Meshes
10
-0.264190
20
0.267999
30
0.006922
70
192
0
VERTEX
8
Meshes
10
-0.281796
20
0.250393
30
0.006922
70
192
0
VERTEX
8
Meshes
10
-0.281796
20
-0.274567
30
0.006922
70
192
0
VERTEX
8
Meshes
10
-0.264190
20
-0.292173
30
0.006922
70
192
0
VERTEX
8
Meshes
10
0.269405
20
-0.292173
30
0.006922
70
192
0
VERTEX
8
Meshes
10
0.287011
20
-0.274567
30
0.006922
70
192
0
VERTEX
8
Meshes
10
0.287011
20
0.250393
30
0.006922
70
192
0
VERTEX
8
Meshes
10
0.287011
20
0.250393
30
0.046110
70
192
0
VERTEX
8
Meshes
10
0.287011
20
-0.274567
30
0.046110
70
192
0
VERTEX
8
Meshes
10
0.269405
20
-0.292173
30
0.046110
70
192
0
VERTEX
8
Meshes
10
-0.264190
20
-0.292173
30
0.046110
70
192
0
VERTEX
8
Meshes
10
-0.281796
20
-0.274567
30
0.046110
70
192
0
VERTEX
8
Meshes
10
-0.281796
20
0.250393
30
0.046110
70
192
0
VERTEX
8
Meshes
10
-0.264190
20
0.267999
30
0.046110
70
192
0
VERTEX
8
Meshes
10
0.269405
20
0.267999
30
0.046110
70
192
0
VERTEX
8
Meshes
10
0.269405
20
0.267999
30
0.086980
70
192
0
VERTEX
8
Meshes
10
-0.264190
20
0.267999
30
0.086980
70
192
0
VERTEX
8
Meshes
10
-0.281796
20
0.250393
30
0.086980
70
192
0
VERTEX
8
Meshes
10
-0.281796
20
-0.274567
30
0.086980
70
192
0
VERTEX
8
Meshes
10
-0.264190
20
-0.292173
30
0.086980
70
192
0
VERTEX
8
Meshes
10
0.269405
20
-0.292173
30
0.086980
70
192
0
VERTEX
8
Meshes
10
0.287011
20
-0.274567
30
0.086980
70
192
0
VERTEX
8
Meshes
10
0.287011
20
0.250393
30
0.086980
70
192
0
VERTEX
8
Meshes
10
0.280274
20
0.237549
30
0.095584
70
192
0
VERTEX
8
Meshes
10
0.280274
20
-0.261723
30
0.095584
70
192
0
VERTEX
8
Meshes
10
0.265515
20
-0.278468
30
0.095584
70
192
0
VERTEX
8
Meshes
10
-0.260301
20
-0.278468
30
0.095584
70
192
0
VERTEX
8
Meshes
10
-0.275059
20
-0.261723
30
0.095584
70
192
0
VERTEX
8
Meshes
10
-0.275059
20
0.237549
30
0.095584
70
192
0
VERTEX
8
Meshes
10
-0.260301
20
0.254293
30
0.095584
70
192
0
VERTEX
8
Meshes
10
0.265515
20
0.254293
30
0.095584
70
192
0
VERTEX
8
Meshes
10
0.178063
20
0.145774
30
0.095584
70
192
0
VERTEX
8
Meshes
10
0.178063
20
-0.169948
30
0.095584
70
192
0
VERTEX
8
Meshes
10
0.170122
20
-0.180537
30
0.095584
70
192
0
VERTEX
8
Meshes
10
-0.175236
20
-0.180537
30
0.095584
70
192
0
VERTEX
8
Meshes
10
-0.183177
20
-0.169949
30
0.095584
70
192
0
VERTEX
8
Meshes
10
-0.183177
20
0.145774
30
0.095584
70
192
0
VERTEX
8
Meshes
10
-0.175236
20
0.156363
30
0.095584
70
192
0
VERTEX
8
Meshes
10
0.170122
20
0.156363
30
0.095584
70
192
0
VERTEX
8
Meshes
10
0.285676
20
0.194665
30
0.000000
70
192
0
VERTEX
8
Meshes
10
0.180969
20
0.118656
30
0.000000
70
192
0
VERTEX
8
Meshes
10
0.293455
20
0.205303
30
0.006922
70
192
0
VERTEX
8
Meshes
10
0.293455
20
0.205303
30
0.046110
70
192
0
VERTEX
8
Meshes
10
0.293455
20
0.205303
30
0.086980
70
192
0
VERTEX
8
Meshes
10
0.285676
20
0.194665
30
0.095584
70
192
0
VERTEX
8
Meshes
10
0.180969
20
0.118656
30
0.095584
70
192
0
VERTEX
8
Meshes
10
0.285676
20
-0.238702
30
0.000000
70
192
0
VERTEX
8
Meshes
10
0.285676
20
-0.031950
30
0.000000
70
192
0
VERTEX
8
Meshes
10
0.180969
20
-0.155391
30
0.000000
70
192
0
VERTEX
8
Meshes
10
0.180969
20
-0.024648
30
0.000000
70
192
0
VERTEX
8
Meshes
10
0.293455
20
-0.032972
30
0.006922
70
192
0
VERTEX
8
Meshes
10
0.293455
20
-0.250362
30
0.006922
70
192
0
VERTEX
8
Meshes
10
0.293455
20
-0.032972
30
0.046110
70
192
0
VERTEX
8
Meshes
10
0.293455
20
-0.250362
30
0.046110
70
192
0
VERTEX
8
Meshes
10
0.293455
20
-0.032972
30
0.086980
70
192
0
VERTEX
8
Meshes
10
0.293455
20
-0.250362
30
0.086980
70
192
0
VERTEX
8
Meshes
10
0.285676
20
-0.031950
30
0.095584
70
192
0
VERTEX
8
Meshes
10
0.285676
20
-0.238702
30
0.095584
70
192
0
VERTEX
8
Meshes
10
0.180969
20
-0.024648
30
0.095584
70
192
0
VERTEX
8
Meshes
10
0.180969
20
-0.155391
30
0.095584
70
192
0
VERTEX
8
Meshes
10
-0.280461
20
0.200641
30
0.000000
70
192
0
VERTEX
8
Meshes
10
-0.186083
20
0.122435
30
0.000000
70
192
0
VERTEX
8
Meshes
10
-0.288240
20
0.211586
30
0.006922
70
192
0
VERTEX
8
Meshes
10
-0.288240
20
0.211586
30
0.046110
70
192
0
VERTEX
8
Meshes
10
-0.288240
20
0.211586
30
0.086980
70
192
0
VERTEX
8
Meshes
10
-0.280461
20
0.200641
30
0.095584
70
192
0
VERTEX
8
Meshes
10
-0.186083
20
0.122435
30
0.095584
70
192
0
VERTEX
8
Meshes
10
-0.280461
20
-0.018170
30
0.000000
70
192
0
VERTEX
8
Meshes
10
-0.280462
20
-0.230898
30
0.000000
70
192
0
VERTEX
8
Meshes
10
-0.186083
20
-0.015934
30
0.000000
70
192
0
VERTEX
8
Meshes
10
-0.186083
20
-0.150456
30
0.000000
70
192
0
VERTEX
8
Meshes
10
-0.288241
20
-0.242156
30
0.006922
70
192
0
VERTEX
8
Meshes
10
-0.288240
20
-0.018483
30
0.006922
70
192
0
VERTEX
8
Meshes
10
-0.288241
20
-0.242156
30
0.046110
70
192
0
VERTEX
8
Meshes
10
-0.288240
20
-0.018483
30
0.046110
70
192
0
VERTEX
8
Meshes
10
-0.288241
20
-0.242156
30
0.086980
70
192
0
VERTEX
8
Meshes
10
-0.288240
20
-0.018483
30
0.086980
70
192
0
VERTEX
8
Meshes
10
-0.280462
20
-0.230898
30
0.095584
70
192
0
VERTEX
8
Meshes
10
-0.280461
20
-0.018170
30
0.095584
70
192
0
VERTEX
8
Meshes
10
-0.186083
20
-0.150456
30
0.095584
70
192
0
VERTEX
8
Meshes
10
-0.186083
20
-0.015934
30
0.095584
70
192
0
VERTEX
8
Meshes
10
-0.234463
20
0.260422
30
0.000000
70
192
0
VERTEX
8
Meshes
10
-0.159305
20
0.160239
30
0.000000
70
192
0
VERTEX
8
Meshes
10
-0.236412
20
0.274443
30
0.006922
70
192
0
VERTEX
8
Meshes
10
-0.236412
20
0.274443
30
0.046110
70
192
0
VERTEX
8
Meshes
10
-0.236412
20
0.274443
30
0.086980
70
192
0
VERTEX
8
Meshes
10
-0.234463
20
0.260422
30
0.095584
70
192
0
VERTEX
8
Meshes
10
-0.159305
20
0.160238
30
0.095584
70
192
0
VERTEX
8
Meshes
10
0.237193
20
0.260422
30
0.000000
70
192
0
VERTEX
8
Meshes
10
0.000122
20
0.260422
30
0.000000
70
192
0
VERTEX
8
Meshes
10
-0.004200
20
0.160239
30
0.000000
70
192
0
VERTEX
8
Meshes
10
0.152548
20
0.160239
30
0.000000
70
192
0
VERTEX
8
Meshes
10
0.000102
20
0.274443
30
0.006922
70
192
0
VERTEX
8
Meshes
10
0.239121
20
0.274443
30
0.006922
70
192
0
VERTEX
8
Meshes
10
0.000102
20
0.274443
30
0.046110
70
192
0
VERTEX
8
Meshes
10
0.239121
20
0.274443
30
0.046110
70
192
0
VERTEX
8
Meshes
10
0.000102
20
0.274443
30
0.086980
70
192
0
VERTEX
8
Meshes
10
0.239121
20
0.274443
30
0.086980
70
192
0
VERTEX
8
Meshes
10
0.000122
20
0.260422
30
0.095584
70
192
0
VERTEX
8
Meshes
10
0.237193
20
0.260422
30
0.095584
70
192
0
VERTEX
8
Meshes
10
0.152548
20
0.160238
30
0.095584
70
192
0
VERTEX
8
Meshes
10
-0.004200
20
0.160238
30
0.095584
70
192
0
VERTEX
8
Meshes
10
-0.226857
20
-0.284597
30
0.000000
70
192
0
VERTEX
8
Meshes
10
-0.154275
20
-0.184413
30
0.000000
70
192
0
VERTEX
8
Meshes
10
-0.228743
20
-0.298617
30
0.006922
70
192
0
VERTEX
8
Meshes
10
-0.228743
20
-0.298617
30
0.046110
70
192
0
VERTEX
8
Meshes
10
-0.228743
20
-0.298617
30
0.086980
70
192
0
VERTEX
8
Meshes
10
-0.226857
20
-0.284597
30
0.095584
70
192
0
VERTEX
8
Meshes
10
-0.154275
20
-0.184413
30
0.095584
70
192
0
VERTEX
8
Meshes
10
0.003748
20
-0.284597
30
0.000000
70
192
0
VERTEX
8
Meshes
10
0.233212
20
-0.284597
30
0.000000
70
192
0
VERTEX
8
Meshes
10
0.149916
20
-0.184413
30
0.000000
70
192
0
VERTEX
8
Meshes
10
-0.001803
20
-0.184413
30
0.000000
70
192
0
VERTEX
8
Meshes
10
0.235108
20
-0.298617
30
0.006922
70
192
0
VERTEX
8
Meshes
10
0.003758
20
-0.298617
30
0.006922
70
192
0
VERTEX
8
Meshes
10
0.235108
20
-0.298617
30
0.046110
70
192
0
VERTEX
8
Meshes
10
0.003758
20
-0.298617
30
0.046110
70
192
0
VERTEX
8
Meshes
10
0.235108
20
-0.298617
30
0.086980
70
192
0
VERTEX
8
Meshes
10
0.003758
20
-0.298617
30
0.086980
70
192
0
VERTEX
8
Meshes
10
0.233212
20
-0.284597
30
0.095584
70
192
0
VERTEX
8
Meshes
10
0.003748
20
-0.284597
30
0.095584
70
192
0
VERTEX
8
Meshes
10
-0.001803
20
-0.184413
30
0.095584
70
192
0
VERTEX
8
Meshes
10
0.149916
20
-0.184413
30
0.095584
70
192
0
VERTEX
8
Meshes
10
0.373562
20
0.559074
30
0.095584
70
192
0
VERTEX
8
Meshes
10
0.131178
20
0.659473
30
0.095584
70
192
0
VERTEX
8
Meshes
10
0.520000
20
0.347453
30
0.001731
70
192
0
VERTEX
8
Meshes
10
0.613382
20
0.122009
30
0.001731
70
192
0
VERTEX
8
Meshes
10
0.613382
20
-0.122009
30
0.001731
70
192
0
VERTEX
8
Meshes
10
0.520000
20
-0.347453
30
0.001730
70
192
0
VERTEX
8
Meshes
10
0.347453
20
-0.520000
30
0.001730
70
192
0
VERTEX
8
Meshes
10
0.122009
20
-0.613382
30
0.001730
70
192
0
VERTEX
8
Meshes
10
-0.122009
20
-0.613382
30
0.001730
70
192
0
VERTEX
8
Meshes
10
-0.347453
20
-0.520000
30
0.001730
70
192
0
VERTEX
8
Meshes
10
-0.520000
20
-0.347453
30
0.001730
70
192
0
VERTEX
8
Meshes
10
-0.613382
20
-0.122009
30
0.001731
70
192
0
VERTEX
8
Meshes
10
-0.613382
20
0.122009
30
0.001731
70
192
0
VERTEX
8
Meshes
10
-0.520000
20
0.347453
30
0.001731
70
192
0
VERTEX
8
Meshes
10
-0.347453
20
0.520000
30
0.001731
70
192
0
VERTEX
8
Meshes
10
-0.122009
20
0.613382
30
0.001731
70
192
0
VERTEX
8
Meshes
10
0.122010
20
0.613382
30
0.001731
70
192
0
VERTEX
8
Meshes
10
0.347453
20
0.520000
30
0.001731
70
192
0
VERTEX
8
Meshes
10
0.595590
20
0.397961
30
0.001731
70
192
0
VERTEX
8
Meshes
10
0.702547
20
0.139745
30
0.001731
70
192
0
VERTEX
8
Meshes
10
0.702547
20
-0.139745
30
0.001731
70
192
0
VERTEX
8
Meshes
10
0.595590
20
-0.397961
30
0.001730
70
192
0
VERTEX
8
Meshes
10
0.397961
20
-0.595590
30
0.001730
70
192
0
VERTEX
8
Meshes
10
0.139745
20
-0.702547
30
0.001730
70
192
0
VERTEX
8
Meshes
10
-0.139745
20
-0.702547
30
0.001730
70
192
0
VERTEX
8
Meshes
10
-0.397960
20
-0.595590
30
0.001730
70
192
0
VERTEX
8
Meshes
10
-0.595590
20
-0.397961
30
0.001730
70
192
0
VERTEX
8
Meshes
10
-0.702546
20
-0.139745
30
0.001731
70
192
0
VERTEX
8
Meshes
10
-0.702546
20
0.139745
30
0.001731
70
192
0
VERTEX
8
Meshes
10
-0.595590
20
0.397961
30
0.001731
70
192
0
VERTEX
8
Meshes
10
-0.397960
20
0.595590
30
0.001731
70
192
0
VERTEX
8
Meshes
10
-0.139745
20
0.702547
30
0.001731
70
192
0
VERTEX
8
Meshes
10
0.139746
20
0.702546
30
0.001731
70
192
0
VERTEX
8
Meshes
10
0.397961
20
0.595590
30
0.001731
70
192
0
VERTEX
8
Meshes
10
0.499866
20
0.499866
30
0.000000
70
192
0
VERTEX
8
Meshes
10
0.653106
20
0.270526
30
0.000000
70
192
0
VERTEX
8
Meshes
10
0.706917
20
-0.000000
30
-0.000000
70
192
0
VERTEX
8
Meshes
10
0.653106
20
-0.270526
30
-0.000000
70
192
0
VERTEX
8
Meshes
10
0.499866
20
-0.499866
30
-0.000000
70
192
0
VERTEX
8
Meshes
10
0.270526
20
-0.653106
30
-0.000000
70
192
0
VERTEX
8
Meshes
10
0.000000
20
-0.706917
30
-0.000000
70
192
0
VERTEX
8
Meshes
10
-0.270525
20
-0.653107
30
-0.000000
70
192
0
VERTEX
8
Meshes
10
-0.499866
20
-0.499866
30
-0.000000
70
192
0
VERTEX
8
Meshes
10
-0.653106
20
-0.270526
30
-0.000000
70
192
0
VERTEX
8
Meshes
10
-0.706917
20
0.000000
30
0.000000
70
192
0
VERTEX
8
Meshes
10
-0.653106
20
0.270526
30
0.000000
70
192
0
VERTEX
8
Meshes
10
-0.499866
20
0.499866
30
0.000000
70
192
0
VERTEX
8
Meshes
10
-0.270525
20
0.653107
30
0.000000
70
192
0
VERTEX
8
Meshes
10
0.000000
20
0.706917
30
0.000000
70
192
0
VERTEX
8
Meshes
10
0.270526
20
0.653106
30
0.000000
70
192
0
VERTEX
8
Meshes
10
0.575241
20
0.384363
30
0.000000
70
192
0
VERTEX
8
Meshes
10
0.678542
20
0.134970
30
0.000000
70
192
0
VERTEX
8
Meshes
10
0.678542
20
-0.134971
30
-0.000000
70
192
0
VERTEX
8
Meshes
10
0.575241
20
-0.384364
30
-0.000000
70
192
0
VERTEX
8
Meshes
10
0.384364
20
-0.575241
30
-0.000000
70
192
0
VERTEX
8
Meshes
10
0.134971
20
-0.678542
30
-0.000000
70
192
0
VERTEX
8
Meshes
10
-0.134970
20
-0.678542
30
-0.000000
70
192
0
VERTEX
8
Meshes
10
-0.384363
20
-0.575241
30
-0.000000
70
192
0
VERTEX
8
Meshes
10
-0.575240
20
-0.384364
30
-0.000000
70
192
0
VERTEX
8
Meshes
10
-0.678542
20
-0.134971
30
-0.000000
70
192
0
VERTEX
8
Meshes
10
-0.678542
20
0.134971
30
0.000000
70
192
0
VERTEX
8
Meshes
10
-0.575240
20
0.384364
30
0.000000
70
192
0
VERTEX
8
Meshes
10
-0.384363
20
0.575241
30
0.000000
70
192
0
VERTEX
8
Meshes
10
-0.134970
20
0.678543
30
0.000000
70
192
0
VERTEX
8
Meshes
10
0.134971
20
0.678542
30
0.000000
70
192
0
VERTEX
8
Meshes
10
0.384364
20
0.575240
30
0.000000
70
192
0
VERTEX
8
Meshes
10
0.475543
20
0.475543
30
0.000000
70
192
0
VERTEX
8
Meshes
10
0.449977
20
0.449977
30
0.000000
70
192
0
VERTEX
8
Meshes
10
0.621327
20
0.257362
30
0.000000
70
192
0
VERTEX
8
Meshes
10
0.587923
20
0.243526
30
0.000000
70
192
0
VERTEX
8
Meshes
10
0.672520
20
-0.000000
30
-0.000000
70
192
0
VERTEX
8
Meshes
10
0.636364
20
-0.000000
30
-0.000000
70
192
0
VERTEX
8
Meshes
10
0.621327
20
-0.257362
30
-0.000000
70
192
0
VERTEX
8
Meshes
10
0.587923
20
-0.243526
30
-0.000000
70
192
0
VERTEX
8
Meshes
10
0.475543
20
-0.475543
30
-0.000000
70
192
0
VERTEX
8
Meshes
10
0.449977
20
-0.449977
30
-0.000000
70
192
0
VERTEX
8
Meshes
10
0.257362
20
-0.621327
30
-0.000000
70
192
0
VERTEX
8
Meshes
10
0.243526
20
-0.587923
30
-0.000000
70
192
0
VERTEX
8
Meshes
10
0.000000
20
-0.672520
30
-0.000000
70
192
0
VERTEX
8
Meshes
10
0.000000
20
-0.636363
30
-0.000000
70
192
0
VERTEX
8
Meshes
10
-0.257362
20
-0.621327
30
-0.000000
70
192
0
VERTEX
8
Meshes
10
-0.243526
20
-0.587923
30
-0.000000
70
192
0
VERTEX
8
Meshes
10
-0.475543
20
-0.475544
30
-0.000000
70
192
0
VERTEX
8
Meshes
10
-0.449977
20
-0.449977
30
-0.000000
70
192
0
VERTEX
8
Meshes
10
-0.621327
20
-0.257362
30
-0.000000
70
192
0
VERTEX
8
Meshes
10
-0.587923
20
-0.243526
30
-0.000000
70
192
0
VERTEX
8
Meshes
10
-0.672520
20
0.000000
30
0.000000
70
192
0
VERTEX
8
Meshes
10
-0.636363
20
0.000000
30
0.000000
70
192
0
VERTEX
8
Meshes
10
-0.621327
20
0.257362
30
0.000000
70
192
0
VERTEX
8
Meshes
10
-0.587923
20
0.243526
30
0.000000
70
192
0
VERTEX
8
Meshes
10
-0.475543
20
0.475543
30
0.000000
70
192
0
VERTEX
8
Meshes
10
-0.449977
20
0.449977
30
0.000000
70
192
0
VERTEX
8
Meshes
10
-0.257362
20
0.621327
30
0.000000
70
192
0
VERTEX
8
Meshes
10
-0.243525
20
0.587923
30
0.000000
70
192
0
VERTEX
8
Meshes
10
0.000000
20
0.672520
30
0.000000
70
192
0
VERTEX
8
Meshes
10
0.000000
20
0.636363
30
0.000000
70
192
0
VERTEX
8
Meshes
10
0.257363
20
0.621327
30
0.000000
70
192
0
VERTEX
8
Meshes
10
0.243526
20
0.587923
30
0.000000
70
192
0
VERTEX
8
Meshes
10
0.542543
20
0.362516
30
0.000000
70
192
0
VERTEX
8
Meshes
10
0.639973
20
0.127299
30
0.000000
70
192
0
VERTEX
8
Meshes
10
0.639973
20
-0.127299
30
-0.000000
70
192
0
VERTEX
8
Meshes
10
0.542543
20
-0.362516
30
-0.000000
70
192
0
VERTEX
8
Meshes
10
0.362516
20
-0.542543
30
-0.000000
70
192
0
VERTEX
8
Meshes
10
0.127299
20
-0.639973
30
-0.000000
70
192
0
VERTEX
8
Meshes
10
-0.127298
20
-0.639973
30
-0.000000
70
192
0
VERTEX
8
Meshes
10
-0.362516
20
-0.542543
30
-0.000000
70
192
0
VERTEX
8
Meshes
10
-0.542543
20
-0.362516
30
-0.000000
70
192
0
VERTEX
8
Meshes
10
-0.639973
20
-0.127299
30
-0.000000
70
192
0
VERTEX
8
Meshes
10
-0.639973
20
0.127299
30
0.000000
70
192
0
VERTEX
8
Meshes
10
-0.542543
20
0.362516
30
0.000000
70
192
0
VERTEX
8
Meshes
10
-0.362515
20
0.542543
30
0.000000
70
192
0
VERTEX
8
Meshes
10
-0.127298
20
0.639973
30
0.000000
70
192
0
VERTEX
8
Meshes
10
0.127299
20
0.639973
30
0.000000
70
192
0
VERTEX
8
Meshes
10
0.362516
20
0.542543
30
0.000000
70
192
0
VERTEX
8
Meshes
10
0.275387
20
0.664843
30
0.006922
70
192
0
VERTEX
8
Meshes
10
0.399725
20
0.598230
30
0.020180
70
192
0
VERTEX
8
Meshes
10
0.508849
20
0.508849
30
0.006922
70
192
0
VERTEX
8
Meshes
10
0.000000
20
0.719621
30
0.006922
70
192
0
VERTEX
8
Meshes
10
0.140365
20
0.705661
30
0.020180
70
192
0
VERTEX
8
Meshes
10
-0.275387
20
0.664843
30
0.006922
70
192
0
VERTEX
8
Meshes
10
-0.140364
20
0.705661
30
0.020180
70
192
0
VERTEX
8
Meshes
10
-0.508849
20
0.508849
30
0.006922
70
192
0
VERTEX
8
Meshes
10
-0.399724
20
0.598230
30
0.020180
70
192
0
VERTEX
8
Meshes
10
-0.664843
20
0.275387
30
0.006922
70
192
0
VERTEX
8
Meshes
10
-0.598230
20
0.399725
30
0.020180
70
192
0
VERTEX
8
Meshes
10
-0.719621
20
0.000000
30
0.006922
70
192
0
VERTEX
8
Meshes
10
-0.705661
20
0.140365
30
0.020180
70
192
0
VERTEX
8
Meshes
10
-0.664843
20
-0.275387
30
0.006922
70
192
0
VERTEX
8
Meshes
10
-0.705661
20
-0.140365
30
0.020180
70
192
0
VERTEX
8
Meshes
10
-0.508849
20
-0.508849
30
0.006922
70
192
0
VERTEX
8
Meshes
10
-0.598230
20
-0.399725
30
0.020180
70
192
0
VERTEX
8
Meshes
10
-0.275387
20
-0.664843
30
0.006922
70
192
0
VERTEX
8
Meshes
10
-0.399725
20
-0.598230
30
0.020180
70
192
0
VERTEX
8
Meshes
10
0.000000
20
-0.719621
30
0.006922
70
192
0
VERTEX
8
Meshes
10
-0.140364
20
-0.705661
30
0.020180
70
192
0
VERTEX
8
Meshes
10
0.275387
20
-0.664843
30
0.006922
70
192
0
VERTEX
8
Meshes
10
0.140365
20
-0.705661
30
0.020180
70
192
0
VERTEX
8
Meshes
10
0.508849
20
-0.508849
30
0.006922
70
192
0
VERTEX
8
Meshes
10
0.399725
20
-0.598230
30
0.020180
70
192
0
VERTEX
8
Meshes
10
0.664843
20
-0.275387
30
0.006922
70
192
0
VERTEX
8
Meshes
10
0.598230
20
-0.399725
30
0.020180
70
192
0
VERTEX
8
Meshes
10
0.719621
20
-0.000000
30
0.006922
70
192
0
VERTEX
8
Meshes
10
0.705661
20
-0.140365
30
0.020180
70
192
0
VERTEX
8
Meshes
10
0.664843
20
0.275387
30
0.006922
70
192
0
VERTEX
8
Meshes
10
0.705661
20
0.140365
30
0.020180
70
192
0
VERTEX
8
Meshes
10
0.598230
20
0.399725
30
0.020180
70
192
0
VERTEX
8
Meshes
10
0.439750
20
0.439750
30
0.006922
70
192
0
VERTEX
8
Meshes
10
0.345445
20
0.516994
30
0.020180
70
192
0
VERTEX
8
Meshes
10
0.237992
20
0.574561
30
0.006922
70
192
0
VERTEX
8
Meshes
10
0.121305
20
0.609836
30
0.020180
70
192
0
VERTEX
8
Meshes
10
0.000000
20
0.621901
30
0.006922
70
192
0
VERTEX
8
Meshes
10
-0.121304
20
0.609837
30
0.020180
70
192
0
VERTEX
8
Meshes
10
-0.237991
20
0.574562
30
0.006922
70
192
0
VERTEX
8
Meshes
10
-0.345444
20
0.516994
30
0.020180
70
192
0
VERTEX
8
Meshes
10
-0.439750
20
0.439750
30
0.006922
70
192
0
VERTEX
8
Meshes
10
-0.516994
20
0.345445
30
0.020180
70
192
0
VERTEX
8
Meshes
10
-0.574561
20
0.237991
30
0.006922
70
192
0
VERTEX
8
Meshes
10
-0.609836
20
0.121304
30
0.020180
70
192
0
VERTEX
8
Meshes
10
-0.621901
20
0.000000
30
0.006922
70
192
0
VERTEX
8
Meshes
10
-0.609836
20
-0.121304
30
0.020180
70
192
0
VERTEX
8
Meshes
10
-0.574561
20
-0.237991
30
0.006922
70
192
0
VERTEX
8
Meshes
10
-0.516994
20
-0.345445
30
0.020180
70
192
0
VERTEX
8
Meshes
10
-0.439750
20
-0.439750
30
0.006922
70
192
0
VERTEX
8
Meshes
10
-0.345444
20
-0.516994
30
0.020180
70
192
0
VERTEX
8
Meshes
10
-0.237991
20
-0.574562
30
0.006922
70
192
0
VERTEX
8
Meshes
10
-0.121304
20
-0.609836
30
0.020180
70
192
0
VERTEX
8
Meshes
10
0.000000
20
-0.621901
30
0.006922
70
192
0
VERTEX
8
Meshes
10
0.121304
20
-0.609836
30
0.020180
70
192
0
VERTEX
8
Meshes
10
0.237991
20
-0.574561
30
0.006922
70
192
0
VERTEX
8
Meshes
10
0.345445
20
-0.516994
30
0.020180
70
192
0
VERTEX
8
Meshes
10
0.439750
20
-0.439750
30
0.006922
70
192
0
VERTEX
8
Meshes
10
0.516994
20
-0.345445
30
0.020180
70
192
0
VERTEX
8
Meshes
10
0.574561
20
-0.237991
30
0.006922
70
192
0
VERTEX
8
Meshes
10
0.609836
20
-0.121304
30
0.020180
70
192
0
VERTEX
8
Meshes
10
0.621901
20
-0.000000
30
0.006922
70
192
0
VERTEX
8
Meshes
10
0.609836
20
0.121304
30
0.020180
70
192
0
VERTEX
8
Meshes
10
0.574561
20
0.237991
30
0.006922
70
192
0
VERTEX
8
Meshes
10
0.516994
20
0.345445
30
0.020180
70
192
0
VERTEX
8
Meshes
10
0.574561
20
0.237991
30
0.046110
70
192
0
VERTEX
8
Meshes
10
0.516994
20
0.345445
30
0.072461
70
192
0
VERTEX
8
Meshes
10
0.439750
20
0.439750
30
0.046110
70
192
0
VERTEX
8
Meshes
10
0.621901
20
-0.000000
30
0.046110
70
192
0
VERTEX
8
Meshes
10
0.609836
20
0.121304
30
0.072461
70
192
0
VERTEX
8
Meshes
10
0.574561
20
-0.237991
30
0.046110
70
192
0
VERTEX
8
Meshes
10
0.609836
20
-0.121304
30
0.072461
70
192
0
VERTEX
8
Meshes
10
0.439750
20
-0.439750
30
0.046110
70
192
0
VERTEX
8
Meshes
10
0.516994
20
-0.345445
30
0.072461
70
192
0
VERTEX
8
Meshes
10
0.237991
20
-0.574561
30
0.046110
70
192
0
VERTEX
8
Meshes
10
0.345445
20
-0.516994
30
0.072461
70
192
0
VERTEX
8
Meshes
10
0.000000
20
-0.621901
30
0.046110
70
192
0
VERTEX
8
Meshes
10
0.121304
20
-0.609836
30
0.072461
70
192
0
VERTEX
8
Meshes
10
-0.237991
20
-0.574562
30
0.046110
70
192
0
VERTEX
8
Meshes
10
-0.121304
20
-0.609836
30
0.072461
70
192
0
VERTEX
8
Meshes
10
-0.439750
20
-0.439750
30
0.046110
70
192
0
VERTEX
8
Meshes
10
-0.345444
20
-0.516994
30
0.072461
70
192
0
VERTEX
8
Meshes
10
-0.574561
20
-0.237991
30
0.046110
70
192
0
VERTEX
8
Meshes
10
-0.516994
20
-0.345445
30
0.072461
70
192
0
VERTEX
8
Meshes
10
-0.621901
20
0.000000
30
0.046110
70
192
0
VERTEX
8
Meshes
10
-0.609836
20
-0.121304
30
0.072461
70
192
0
VERTEX
8
Meshes
10
-0.574561
20
0.237991
30
0.046110
70
192
0
VERTEX
8
Meshes
10
-0.609836
20
0.121304
30
0.072461
70
192
0
VERTEX
8
Meshes
10
-0.439750
20
0.439750
30
0.046110
70
192
0
VERTEX
8
Meshes
10
-0.516994
20
0.345445
30
0.072461
70
192
0
VERTEX
8
Meshes
10
-0.237991
20
0.574562
30
0.046110
70
192
0
VERTEX
8
Meshes
10
-0.345444
20
0.516994
30
0.072461
70
192
0
VERTEX
8
Meshes
10
0.000000
20
0.621901
30
0.046110
70
192
0
VERTEX
8
Meshes
10
-0.121304
20
0.609837
30
0.072461
70
192
0
VERTEX
8
Meshes
10
0.237992
20
0.574561
30
0.046110
70
192
0
VERTEX
8
Meshes
10
0.121305
20
0.609836
30
0.072461
70
192
0
VERTEX
8
Meshes
10
0.345445
20
0.516994
30
0.072461
70
192
0
VERTEX
8
Meshes
10
0.508849
20
0.508849
30
0.046110
70
192
0
VERTEX
8
Meshes
10
0.598230
20
0.399725
30
0.072461
70
192
0
VERTEX
8
Meshes
10
0.664843
20
0.275387
30
0.046110
70
192
0
VERTEX
8
Meshes
10
0.705661
20
0.140365
30
0.072461
70
192
0
VERTEX
8
Meshes
10
0.719621
20
-0.000000
30
0.046110
70
192
0
VERTEX
8
Meshes
10
0.705661
20
-0.140365
30
0.072461
70
192
0
VERTEX
8
Meshes
10
0.664843
20
-0.275387
30
0.046110
70
192
0
VERTEX
8
Meshes
10
0.598230
20
-0.399725
30
0.072461
70
192
0
VERTEX
8
Meshes
10
0.508849
20
-0.508849
30
0.046110
70
192
0
VERTEX
8
Meshes
10
0.399725
20
-0.598230
30
0.072461
70
192
0
VERTEX
8
Meshes
10
0.275387
20
-0.664843
30
0.046110
70
192
0
VERTEX
8
Meshes
10
0.140365
20
-0.705661
30
0.072461
70
192
0
VERTEX
8
Meshes
10
0.000000
20
-0.719621
30
0.046110
70
192
0
VERTEX
8
Meshes
10
-0.140364
20
-0.705661
30
0.072461
70
192
0
VERTEX
8
Meshes
10
-0.275387
20
-0.664843
30
0.046110
70
192
0
VERTEX
8
Meshes
10
-0.399725
20
-0.598230
30
0.072461
70
192
0
VERTEX
8
Meshes
10
-0.508849
20
-0.508849
30
0.046110
70
192
0
VERTEX
8
Meshes
10
-0.598230
20
-0.399725
30
0.072461
70
192
0
VERTEX
8
Meshes
10
-0.664843
20
-0.275387
30
0.046110
70
192
0
VERTEX
8
Meshes
10
-0.705661
20
-0.140365
30
0.072461
70
192
0
VERTEX
8
Meshes
10
-0.719621
20
0.000000
30
0.046110
70
192
0
VERTEX
8
Meshes
10
-0.705661
20
0.140365
30
0.072461
70
192
0
VERTEX
8
Meshes
10
-0.664843
20
0.275387
30
0.046110
70
192
0
VERTEX
8
Meshes
10
-0.598230
20
0.399725
30
0.072461
70
192
0
VERTEX
8
Meshes
10
-0.508849
20
0.508849
30
0.046110
70
192
0
VERTEX
8
Meshes
10
-0.399724
20
0.598230
30
0.072461
70
192
0
VERTEX
8
Meshes
10
-0.275387
20
0.664843
30
0.046110
70
192
0
VERTEX
8
Meshes
10
-0.140364
20
0.705661
30
0.072461
70
192
0
VERTEX
8
Meshes
10
0.000000
20
0.719621
30
0.046110
70
192
0
VERTEX
8
Meshes
10
0.140365
20
0.705661
30
0.072461
70
192
0
VERTEX
8
Meshes
10
0.275387
20
0.664843
30
0.046110
70
192
0
VERTEX
8
Meshes
10
0.399725
20
0.598230
30
0.072461
70
192
0
VERTEX
8
Meshes
10
0.275387
20
0.664843
30
0.086980
70
192
0
VERTEX
8
Meshes
10
0.397961
20
0.595590
30
0.093433
70
192
0
VERTEX
8
Meshes
10
0.508849
20
0.508849
30
0.086980
70
192
0
VERTEX
8
Meshes
10
0.000000
20
0.719621
30
0.086980
70
192
0
VERTEX
8
Meshes
10
0.139746
20
0.702546
30
0.093433
70
192
0
VERTEX
8
Meshes
10
-0.275387
20
0.664843
30
0.086980
70
192
0
VERTEX
8
Meshes
10
-0.139745
20
0.702547
30
0.093433
70
192
0
VERTEX
8
Meshes
10
-0.508849
20
0.508849
30
0.086980
70
192
0
VERTEX
8
Meshes
10
-0.397960
20
0.595590
30
0.093433
70
192
0
VERTEX
8
Meshes
10
-0.664843
20
0.275387
30
0.086980
70
192
0
VERTEX
8
Meshes
10
-0.595590
20
0.397961
30
0.093433
70
192
0
VERTEX
8
Meshes
10
-0.719621
20
0.000000
30
0.086980
70
192
0
VERTEX
8
Meshes
10
-0.702546
20
0.139745
30
0.093433
70
192
0
VERTEX
8
Meshes
10
-0.664843
20
-0.275387
30
0.086980
70
192
0
VERTEX
8
Meshes
10
-0.702546
20
-0.139745
30
0.093433
70
192
0
VERTEX
8
Meshes
10
-0.508849
20
-0.508849
30
0.086980
70
192
0
VERTEX
8
Meshes
10
-0.595590
20
-0.397961
30
0.093433
70
192
0
VERTEX
8
Meshes
10
-0.275387
20
-0.664843
30
0.086980
70
192
0
VERTEX
8
Meshes
10
-0.397960
20
-0.595590
30
0.093433
70
192
0
VERTEX
8
Meshes
10
0.000000
20
-0.719621
30
0.086980
70
192
0
VERTEX
8
Meshes
10
-0.139745
20
-0.702547
30
0.093433
70
192
0
VERTEX
8
Meshes
10
0.275387
20
-0.664843
30
0.086980
70
192
0
VERTEX
8
Meshes
10
0.139745
20
-0.702547
30
0.093433
70
192
0
VERTEX
8
Meshes
10
0.508849
20
-0.508849
30
0.086980
70
192
0
VERTEX
8
Meshes
10
0.397961
20
-0.595590
30
0.093433
70
192
0
VERTEX
8
Meshes
10
0.664843
20
-0.275387
30
0.086980
70
192
0
VERTEX
8
Meshes
10
0.595590
20
-0.397961
30
0.093433
70
192
0
VERTEX
8
Meshes
10
0.719621
20
-0.000000
30
0.086980
70
192
0
VERTEX
8
Meshes
10
0.702547
20
-0.139745
30
0.093433
70
192
0
VERTEX
8
Meshes
10
0.664843
20
0.275387
30
0.086980
70
192
0
VERTEX
8
Meshes
10
0.702547
20
0.139745
30
0.093433
70
192
0
VERTEX
8
Meshes
10
0.595590
20
0.397961
30
0.093433
70
192
0
VERTEX
8
Meshes
10
0.439750
20
0.439750
30
0.086980
70
192
0
VERTEX
8
Meshes
10
0.347453
20
0.520000
30
0.093433
70
192
0
VERTEX
8
Meshes
10
0.237992
20
0.574561
30
0.086980
70
192
0
VERTEX
8
Meshes
10
0.122010
20
0.613382
30
0.093433
70
192
0
VERTEX
8
Meshes
10
0.000000
20
0.621901
30
0.086980
70
192
0
VERTEX
8
Meshes
10
-0.122009
20
0.613382
30
0.093433
70
192
0
VERTEX
8
Meshes
10
-0.237991
20
0.574562
30
0.086980
70
192
0
VERTEX
8
Meshes
10
-0.347453
20
0.520000
30
0.093433
70
192
0
VERTEX
8
Meshes
10
-0.439750
20
0.439750
30
0.086980
70
192
0
VERTEX
8
Meshes
10
-0.520000
20
0.347453
30
0.093433
70
192
0
VERTEX
8
Meshes
10
-0.574561
20
0.237991
30
0.086980
70
192
0
VERTEX
8
Meshes
10
-0.613382
20
0.122009
30
0.093433
70
192
0
VERTEX
8
Meshes
10
-0.621901
20
0.000000
30
0.086980
70
192
0
VERTEX
8
Meshes
10
-0.613382
20
-0.122009
30
0.093433
70
192
0
VERTEX
8
Meshes
10
-0.574561
20
-0.237991
30
0.086980
70
192
0
VERTEX
8
Meshes
10
-0.520000
20
-0.347453
30
0.093433
70
192
0
VERTEX
8
Meshes
10
-0.439750
20
-0.439750
30
0.086980
70
192
0
VERTEX
8
Meshes
10
-0.347453
20
-0.520000
30
0.093433
70
192
0
VERTEX
8
Meshes
10
-0.237991
20
-0.574562
30
0.086980
70
192
0
VERTEX
8
Meshes
10
-0.122009
20
-0.613382
30
0.093433
70
192
0
VERTEX
8
Meshes
10
0.000000
20
-0.621901
30
0.086980
70
192
0
VERTEX
8
Meshes
10
0.122009
20
-0.613382
30
0.093433
70
192
0
VERTEX
8
Meshes
10
0.237991
20
-0.574561
30
0.086980
70
192
0
VERTEX
8
Meshes
10
0.347453
20
-0.520000
30
0.093433
70
192
0
VERTEX
8
Meshes
10
0.439750
20
-0.439750
30
0.086980
70
192
0
VERTEX
8
Meshes
10
0.520000
20
-0.347453
30
0.093433
70
192
0
VERTEX
8
Meshes
10
0.574561
20
-0.237991
30
0.086980
70
192
0
VERTEX
8
Meshes
10
0.613382
20
-0.122009
30
0.093433
70
192
0
VERTEX
8
Meshes
10
0.621901
20
-0.000000
30
0.086980
70
192
0
VERTEX
8
Meshes
10
0.613382
20
0.122009
30
0.093433
70
192
0
VERTEX
8
Meshes
10
0.574562
20
0.237991
30
0.086980
70
192
0
VERTEX
8
Meshes
10
0.520000
20
0.347453
30
0.093433
70
192
0
VERTEX
8
Meshes
10
0.499866
20
0.499866
30
0.095584
70
192
0
VERTEX
8
Meshes
10
0.575241
20
0.384363
30
0.095584
70
192
0
VERTEX
8
Meshes
10
0.653106
20
0.270526
30
0.095584
70
192
0
VERTEX
8
Meshes
10
0.678542
20
0.134970
30
0.095584
70
192
0
VERTEX
8
Meshes
10
0.706917
20
-0.000000
30
0.095584
70
192
0
VERTEX
8
Meshes
10
0.678542
20
-0.134971
30
0.095584
70
192
0
VERTEX
8
Meshes
10
0.653106
20
-0.270526
30
0.095584
70
192
0
VERTEX
8
Meshes
10
0.575241
20
-0.384364
30
0.095584
70
192
0
VERTEX
8
Meshes
10
0.499866
20
-0.499866
30
0.095584
70
192
0
VERTEX
8
Meshes
10
0.384364
20
-0.575241
30
0.095584
70
192
0
VERTEX
8
Meshes
10
0.270526
20
-0.653106
30
0.095584
70
192
0
VERTEX
8
Meshes
10
0.134971
20
-0.678542
30
0.095584
70
192
0
VERTEX
8
Meshes
10
0.000000
20
-0.706917
30
0.095584
70
192
0
VERTEX
8
Meshes
10
-0.134970
20
-0.678542
30
0.095584
70
192
0
VERTEX
8
Meshes
10
-0.270525
20
-0.653107
30
0.095584
70
192
0
VERTEX
8
Meshes
10
-0.384363
20
-0.575241
30
0.095584
70
192
0
VERTEX
8
Meshes
10
-0.499866
20
-0.499866
30
0.095584
70
192
0
VERTEX
8
Meshes
10
-0.575240
20
-0.384364
30
0.095584
70
192
0
VERTEX
8
Meshes
10
-0.653106
20
-0.270526
30
0.095584
70
192
0
VERTEX
8
Meshes
10
-0.678542
20
-0.134971
30
0.095584
70
192
0
VERTEX
8
Meshes
10
-0.706917
20
0.000000
30
0.095584
70
192
0
VERTEX
8
Meshes
10
-0.678542
20
0.134971
30
0.095584
70
192
0
VERTEX
8
Meshes
10
-0.653106
20
0.270526
30
0.095584
70
192
0
VERTEX
8
Meshes
10
-0.575240
20
0.384364
30
0.095584
70
192
0
VERTEX
8
Meshes
10
-0.499866
20
0.499866
30
0.095584
70
192
0
VERTEX
8
Meshes
10
-0.384363
20
0.575241
30
0.095584
70
192
0
VERTEX
8
Meshes
10
-0.270525
20
0.653107
30
0.095584
70
192
0
VERTEX
8
Meshes
10
-0.134970
20
0.678543
30
0.095584
70
192
0
VERTEX
8
Meshes
10
0.000000
20
0.706917
30
0.095584
70
192
0
VERTEX
8
Meshes
10
0.134971
20
0.678542
30
0.095584
70
192
0
VERTEX
8
Meshes
10
0.270526
20
0.653106
30
0.095584
70
192
0
VERTEX
8
Meshes
10
0.384364
20
0.575240
30
0.095584
70
192
0
VERTEX
8
Meshes
10
0.542543
20
0.362516
30
0.095584
70
192
0
VERTEX
8
Meshes
10
0.449977
20
0.449977
30
0.095584
70
192
0
VERTEX
8
Meshes
10
0.587923
20
0.243526
30
0.095584
70
192
0
VERTEX
8
Meshes
10
0.475543
20
0.475543
30
0.095584
70
192
0
VERTEX
8
Meshes
10
0.621327
20
0.257362
30
0.095584
70
192
0
VERTEX
8
Meshes
10
0.639973
20
0.127299
30
0.095584
70
192
0
VERTEX
8
Meshes
10
0.636364
20
-0.000000
30
0.095584
70
192
0
VERTEX
8
Meshes
10
0.672520
20
-0.000000
30
0.095584
70
192
0
VERTEX
8
Meshes
10
0.639973
20
-0.127299
30
0.095584
70
192
0
VERTEX
8
Meshes
10
0.587923
20
-0.243526
30
0.095584
70
192
0
VERTEX
8
Meshes
10
0.621327
20
-0.257362
30
0.095584
70
192
0
VERTEX
8
Meshes
10
0.542543
20
-0.362516
30
0.095584
70
192
0
VERTEX
8
Meshes
10
0.449977
20
-0.449977
30
0.095584
70
192
0
VERTEX
8
Meshes
10
0.475543
20
-0.475543
30
0.095584
70
192
0
VERTEX
8
Meshes
10
0.362516
20
-0.542543
30
0.095584
70
192
0
VERTEX
8
Meshes
10
0.243526
20
-0.587923
30
0.095584
70
192
0
VERTEX
8
Meshes
10
0.257362
20
-0.621327
30
0.095584
70
192
0
VERTEX
8
Meshes
10
0.127299
20
-0.639973
30
0.095584
70
192
0
VERTEX
8
Meshes
10
0.000000
20
-0.636363
30
0.095584
70
192
0
VERTEX
8
Meshes
10
0.000000
20
-0.672520
30
0.095584
70
192
0
VERTEX
8
Meshes
10
-0.127298
20
-0.639973
30
0.095584
70
192
0
VERTEX
8
Meshes
10
-0.243526
20
-0.587923
30
0.095584
70
192
0
VERTEX
8
Meshes
10
-0.257362
20
-0.621327
30
0.095584
70
192
0
VERTEX
8
Meshes
10
-0.362516
20
-0.542543
30
0.095584
70
192
0
VERTEX
8
Meshes
10
-0.449977
20
-0.449977
30
0.095584
70
192
0
VERTEX
8
Meshes
10
-0.475543
20
-0.475543
30
0.095584
70
192
0
VERTEX
8
Meshes
10
-0.542543
20
-0.362516
30
0.095584
70
192
0
VERTEX
8
Meshes
10
-0.587923
20
-0.243526
30
0.095584
70
192
0
VERTEX
8
Meshes
10
-0.621327
20
-0.257362
30
0.095584
70
192
0
VERTEX
8
Meshes
10
-0.639973
20
-0.127299
30
0.095584
70
192
0
VERTEX
8
Meshes
10
-0.636363
20
0.000000
30
0.095584
70
192
0
VERTEX
8
Meshes
10
-0.672520
20
0.000000
30
0.095584
70
192
0
VERTEX
8
Meshes
10
-0.639973
20
0.127299
30
0.095584
70
192
0
VERTEX
8
Meshes
10
-0.587923
20
0.243526
30
0.095584
70
192
0
VERTEX
8
Meshes
10
-0.621327
20
0.257362
30
0.095584
70
192
0
VERTEX
8
Meshes
10
-0.542543
20
0.362516
30
0.095584
70
192
0
VERTEX
8
Meshes
10
-0.449977
20
0.449977
30
0.095584
70
192
0
VERTEX
8
Meshes
10
-0.475543
20
0.475543
30
0.095584
70
192
0
VERTEX
8
Meshes
10
-0.362515
20
0.542543
30
0.095584
70
192
0
VERTEX
8
Meshes
10
-0.243525
20
0.587923
30
0.095584
70
192
0
VERTEX
8
Meshes
10
-0.257362
20
0.621327
30
0.095584
70
192
0
VERTEX
8
Meshes
10
-0.127298
20
0.639973
30
0.095584
70
192
0
VERTEX
8
Meshes
10
0.000000
20
0.636363
30
0.095584
70
192
0
VERTEX
8
Meshes
10
0.000000
20
0.672520
30
0.095584
70
192
0
VERTEX
8
Meshes
10
0.362516
20
0.542543
30
0.095584
70
192
0
VERTEX
8
Meshes
10
0.243526
20
0.587923
30
0.095584
70
192
0
VERTEX
8
Meshes
10
0.257363
20
0.621327
30
0.095584
70
192
0
VERTEX
8
Meshes
10
0.127299
20
0.639973
30
0.095584
70
192
0
VERTEX
8
Meshes
10
0.285326
20
0.247182
30
0.001731
70
192
0
VERTEX
8
Meshes
10
0.285326
20
-0.271356
30
0.001731
70
192
0
VERTEX
8
Meshes
10
0.268432
20
-0.288747
30
0.001731
70
192
0
VERTEX
8
Meshes
10
-0.263218
20
-0.288747
30
0.001731
70
192
0
VERTEX
8
Meshes
10
-0.280112
20
-0.271356
30
0.001731
70
192
0
VERTEX
8
Meshes
10
-0.280112
20
0.247182
30
0.001731
70
192
0
VERTEX
8
Meshes
10
-0.263218
20
0.264572
30
0.001731
70
192
0
VERTEX
8
Meshes
10
0.268432
20
0.264572
30
0.001731
70
192
0
VERTEX
8
Meshes
10
0.273883
20
0.247043
30
0.000000
70
192
0
VERTEX
8
Meshes
10
0.251353
20
0.208183
30
0.000000
70
192
0
VERTEX
8
Meshes
10
0.284325
20
0.221520
30
0.000000
70
192
0
VERTEX
8
Meshes
10
0.284325
20
-0.250660
30
0.000000
70
192
0
VERTEX
8
Meshes
10
0.251353
20
-0.232357
30
0.000000
70
192
0
VERTEX
8
Meshes
10
0.273883
20
-0.271217
30
0.000000
70
192
0
VERTEX
8
Meshes
10
0.239722
20
-0.247132
30
0.000000
70
192
0
VERTEX
8
Meshes
10
0.252761
20
-0.283064
30
0.000000
70
192
0
VERTEX
8
Meshes
10
-0.247261
20
-0.283064
30
0.000000
70
192
0
VERTEX
8
Meshes
10
-0.237090
20
-0.247132
30
0.000000
70
192
0
VERTEX
8
Meshes
10
-0.268669
20
-0.271217
30
0.000000
70
192
0
VERTEX
8
Meshes
10
-0.248720
20
-0.232357
30
0.000000
70
192
0
VERTEX
8
Meshes
10
-0.279111
20
-0.248709
30
0.000000
70
192
0
VERTEX
8
Meshes
10
-0.279111
20
0.223014
30
0.000000
70
192
0
VERTEX
8
Meshes
10
-0.248720
20
0.208183
30
0.000000
70
192
0
VERTEX
8
Meshes
10
-0.268669
20
0.247043
30
0.000000
70
192
0
VERTEX
8
Meshes
10
-0.237090
20
0.222958
30
0.000000
70
192
0
VERTEX
8
Meshes
10
-0.249163
20
0.258890
30
0.000000
70
192
0
VERTEX
8
Meshes
10
0.253756
20
0.258890
30
0.000000
70
192
0
VERTEX
8
Meshes
10
0.239722
20
0.222958
30
0.000000
70
192
0
VERTEX
8
Meshes
10
-0.147814
20
-0.161903
30
0.000000
70
192
0
VERTEX
8
Meshes
10
0.140965
20
0.137729
30
0.000000
70
192
0
VERTEX
8
Meshes
10
-0.149071
20
0.137729
30
0.000000
70
192
0
VERTEX
8
Meshes
10
-0.158815
20
0.131206
30
0.000000
70
192
0
VERTEX
8
Meshes
10
-0.163707
20
0.117689
30
0.000000
70
192
0
VERTEX
8
Meshes
10
-0.163707
20
-0.142825
30
0.000000
70
192
0
VERTEX
8
Meshes
10
-0.158815
20
-0.155380
30
0.000000
70
192
0
VERTEX
8
Meshes
10
0.140307
20
-0.161903
30
0.000000
70
192
0
VERTEX
8
Meshes
10
0.151119
20
-0.155380
30
0.000000
70
192
0
VERTEX
8
Meshes
10
0.156011
20
-0.144059
30
0.000000
70
192
0
VERTEX
8
Meshes
10
0.156011
20
0.116745
30
0.000000
70
192
0
VERTEX
8
Meshes
10
0.151119
20
0.131206
30
0.000000
70
192
0
VERTEX
8
Meshes
10
0.279387
20
0.260375
30
0.006922
70
192
0
VERTEX
8
Meshes
10
0.269405
20
0.267999
30
0.020180
70
192
0
VERTEX
8
Meshes
10
0.256253
20
0.272832
30
0.006922
70
192
0
VERTEX
8
Meshes
10
-0.251665
20
0.272832
30
0.006922
70
192
0
VERTEX
8
Meshes
10
-0.264190
20
0.267999
30
0.020180
70
192
0
VERTEX
8
Meshes
10
-0.274173
20
0.260375
30
0.006922
70
192
0
VERTEX
8
Meshes
10
-0.281796
20
0.250393
30
0.020180
70
192
0
VERTEX
8
Meshes
10
-0.286629
20
0.235110
30
0.006922
70
192
0
VERTEX
8
Meshes
10
-0.286629
20
-0.260883
30
0.006922
70
192
0
VERTEX
8
Meshes
10
-0.281796
20
-0.274567
30
0.020180
70
192
0
VERTEX
8
Meshes
10
-0.274173
20
-0.284549
30
0.006922
70
192
0
VERTEX
8
Meshes
10
-0.264190
20
-0.292173
30
0.020180
70
192
0
VERTEX
8
Meshes
10
-0.249747
20
-0.297006
30
0.006922
70
192
0
VERTEX
8
Meshes
10
0.255249
20
-0.297006
30
0.006922
70
192
0
VERTEX
8
Meshes
10
0.269405
20
-0.292173
30
0.020180
70
192
0
VERTEX
8
Meshes
10
0.279387
20
-0.284549
30
0.006922
70
192
0
VERTEX
8
Meshes
10
0.287011
20
-0.274567
30
0.020180
70
192
0
VERTEX
8
Meshes
10
0.291844
20
-0.262935
30
0.006922
70
192
0
VERTEX
8
Meshes
10
0.291844
20
0.233539
30
0.006922
70
192
0
VERTEX
8
Meshes
10
0.287011
20
0.250393
30
0.020180
70
192
0
VERTEX
8
Meshes
10
0.291844
20
0.233539
30
0.046110
70
192
0
VERTEX
8
Meshes
10
0.287011
20
0.250393
30
0.072461
70
192
0
VERTEX
8
Meshes
10
0.279387
20
0.260375
30
0.046110
70
192
0
VERTEX
8
Meshes
10
0.291844
20
-0.262935
30
0.046110
70
192
0
VERTEX
8
Meshes
10
0.279387
20
-0.284549
30
0.046110
70
192
0
VERTEX
8
Meshes
10
0.287011
20
-0.274567
30
0.072461
70
192
0
VERTEX
8
Meshes
10
0.255249
20
-0.297006
30
0.046110
70
192
0
VERTEX
8
Meshes
10
0.269405
20
-0.292173
30
0.072461
70
192
0
VERTEX
8
Meshes
10
-0.249747
20
-0.297006
30
0.046110
70
192
0
VERTEX
8
Meshes
10
-0.274173
20
-0.284549
30
0.046110
70
192
0
VERTEX
8
Meshes
10
-0.264190
20
-0.292173
30
0.072461
70
192
0
VERTEX
8
Meshes
10
-0.286629
20
-0.260883
30
0.046110
70
192
0
VERTEX
8
Meshes
10
-0.281796
20
-0.274567
30
0.072461
70
192
0
VERTEX
8
Meshes
10
-0.286629
20
0.235110
30
0.046110
70
192
0
VERTEX
8
Meshes
10
-0.274173
20
0.260375
30
0.046110
70
192
0
VERTEX
8
Meshes
10
-0.281796
20
0.250393
30
0.072461
70
192
0
VERTEX
8
Meshes
10
-0.251665
20
0.272832
30
0.046110
70
192
0
VERTEX
8
Meshes
10
-0.264190
20
0.267999
30
0.072461
70
192
0
VERTEX
8
Meshes
10
0.256253
20
0.272832
30
0.046110
70
192
0
VERTEX
8
Meshes
10
0.269405
20
0.267999
30
0.072461
70
192
0
VERTEX
8
Meshes
10
0.279387
20
0.260375
30
0.086980
70
192
0
VERTEX
8
Meshes
10
0.268432
20
0.264572
30
0.093433
70
192
0
VERTEX
8
Meshes
10
0.256253
20
0.272832
30
0.086980
70
192
0
VERTEX
8
Meshes
10
-0.251665
20
0.272832
30
0.086980
70
192
0
VERTEX
8
Meshes
10
-0.263218
20
0.264572
30
0.093433
70
192
0
VERTEX
8
Meshes
10
-0.274173
20
0.260375
30
0.086980
70
192
0
VERTEX
8
Meshes
10
-0.280112
20
0.247182
30
0.093433
70
192
0
VERTEX
8
Meshes
10
-0.286629
20
0.235110
30
0.086980
70
192
0
VERTEX
8
Meshes
10
-0.286629
20
-0.260883
30
0.086980
70
192
0
VERTEX
8
Meshes
10
-0.280112
20
-0.271356
30
0.093433
70
192
0
VERTEX
8
Meshes
10
-0.274173
20
-0.284549
30
0.086980
70
192
0
VERTEX
8
Meshes
10
-0.263218
20
-0.288747
30
0.093433
70
192
0
VERTEX
8
Meshes
10
-0.249747
20
-0.297006
30
0.086980
70
192
0
VERTEX
8
Meshes
10
0.255249
20
-0.297006
30
0.086980
70
192
0
VERTEX
8
Meshes
10
0.268432
20
-0.288747
30
0.093433
70
192
0
VERTEX
8
Meshes
10
0.279387
20
-0.284549
30
0.086980
70
192
0
VERTEX
8
Meshes
10
0.285326
20
-0.271356
30
0.093433
70
192
0
VERTEX
8
Meshes
10
0.291844
20
-0.262935
30
0.086980
70
192
0
VERTEX
8
Meshes
10
0.291844
20
0.233539
30
0.086980
70
192
0
VERTEX
8
Meshes
10
0.285326
20
0.247182
30
0.093433
70
192
0
VERTEX
8
Meshes
10
0.273883
20
0.247043
30
0.095584
70
192
0
VERTEX
8
Meshes
10
0.284325
20
0.221520
30
0.095584
70
192
0
VERTEX
8
Meshes
10
0.251353
20
0.208183
30
0.095584
70
192
0
VERTEX
8
Meshes
10
0.284325
20
-0.250660
30
0.095584
70
192
0
VERTEX
8
Meshes
10
0.273883
20
-0.271217
30
0.095584
70
192
0
VERTEX
8
Meshes
10
0.251353
20
-0.232357
30
0.095584
70
192
0
VERTEX
8
Meshes
10
0.252761
20
-0.283064
30
0.095584
70
192
0
VERTEX
8
Meshes
10
0.239722
20
-0.247132
30
0.095584
70
192
0
VERTEX
8
Meshes
10
-0.247261
20
-0.283064
30
0.095584
70
192
0
VERTEX
8
Meshes
10
-0.268669
20
-0.271217
30
0.095584
70
192
0
VERTEX
8
Meshes
10
-0.237090
20
-0.247132
30
0.095584
70
192
0
VERTEX
8
Meshes
10
-0.279111
20
-0.248709
30
0.095584
70
192
0
VERTEX
8
Meshes
10
-0.248720
20
-0.232357
30
0.095584
70
192
0
VERTEX
8
Meshes
10
-0.279111
20
0.223014
30
0.095584
70
192
0
VERTEX
8
Meshes
10
-0.268669
20
0.247043
30
0.095584
70
192
0
VERTEX
8
Meshes
10
-0.248720
20
0.208183
30
0.095584
70
192
0
VERTEX
8
Meshes
10
-0.249163
20
0.258890
30
0.095584
70
192
0
VERTEX
8
Meshes
10
-0.237090
20
0.222958
30
0.095584
70
192
0
VERTEX
8
Meshes
10
0.253756
20
0.258890
30
0.095584
70
192
0
VERTEX
8
Meshes
10
0.239722
20
0.222958
30
0.095584
70
192
0
VERTEX
8
Meshes
10
0.151119
20
0.131206
30
0.095584
70
192
0
VERTEX
8
Meshes
10
0.156011
20
0.116745
30
0.095584
70
192
0
VERTEX
8
Meshes
10
0.156011
20
-0.144059
30
0.095584
70
192
0
VERTEX
8
Meshes
10
0.151119
20
-0.155380
30
0.095584
70
192
0
VERTEX
8
Meshes
10
0.140307
20
-0.161903
30
0.095584
70
192
0
VERTEX
8
Meshes
10
-0.147814
20
-0.161903
30
0.095584
70
192
0
VERTEX
8
Meshes
10
-0.158815
20
-0.155380
30
0.095584
70
192
0
VERTEX
8
Meshes
10
-0.163707
20
-0.142825
30
0.095584
70
192
0
VERTEX
8
Meshes
10
-0.163707
20
0.117689
30
0.095584
70
192
0
VERTEX
8
Meshes
10
-0.158815
20
0.131206
30
0.095584
70
192
0
VERTEX
8
Meshes
10
-0.149071
20
0.137729
30
0.095584
70
192
0
VERTEX
8
Meshes
10
0.140965
20
0.137729
30
0.095584
70
192
0
VERTEX
8
Meshes
10
0.291510
20
0.202643
30
0.001731
70
192
0
VERTEX
8
Meshes
10
0.255610
20
0.170344
30
0.000000
70
192
0
VERTEX
8
Meshes
10
0.293455
20
0.205303
30
0.020180
70
192
0
VERTEX
8
Meshes
10
0.293455
20
0.205303
30
0.072461
70
192
0
VERTEX
8
Meshes
10
0.291510
20
0.202643
30
0.093433
70
192
0
VERTEX
8
Meshes
10
0.255610
20
0.170344
30
0.095584
70
192
0
VERTEX
8
Meshes
10
0.285676
20
0.121878
30
0.000000
70
192
0
VERTEX
8
Meshes
10
0.156738
20
0.058835
30
0.000000
70
192
0
VERTEX
8
Meshes
10
0.293455
20
0.128770
30
0.006922
70
192
0
VERTEX
8
Meshes
10
0.293455
20
0.128770
30
0.046110
70
192
0
VERTEX
8
Meshes
10
0.293455
20
0.128770
30
0.086980
70
192
0
VERTEX
8
Meshes
10
0.285676
20
0.121878
30
0.095584
70
192
0
VERTEX
8
Meshes
10
0.156738
20
0.058835
30
0.095584
70
192
0
VERTEX
8
Meshes
10
0.291510
20
-0.032716
30
0.001731
70
192
0
VERTEX
8
Meshes
10
0.291510
20
-0.247447
30
0.001731
70
192
0
VERTEX
8
Meshes
10
0.255610
20
-0.029613
30
0.000000
70
192
0
VERTEX
8
Meshes
10
0.255610
20
-0.212045
30
0.000000
70
192
0
VERTEX
8
Meshes
10
0.293455
20
-0.032972
30
0.020180
70
192
0
VERTEX
8
Meshes
10
0.293455
20
-0.250362
30
0.020180
70
192
0
VERTEX
8
Meshes
10
0.293455
20
-0.032972
30
0.072461
70
192
0
VERTEX
8
Meshes
10
0.293455
20
-0.250362
30
0.072461
70
192
0
VERTEX
8
Meshes
10
0.291510
20
-0.032716
30
0.093433
70
192
0
VERTEX
8
Meshes
10
0.291510
20
-0.247447
30
0.093433
70
192
0
VERTEX
8
Meshes
10
0.255610
20
-0.029613
30
0.095584
70
192
0
VERTEX
8
Meshes
10
0.255610
20
-0.212045
30
0.095584
70
192
0
VERTEX
8
Meshes
10
0.285676
20
-0.180812
30
0.000000
70
192
0
VERTEX
8
Meshes
10
0.156738
20
-0.101850
30
0.000000
70
192
0
VERTEX
8
Meshes
10
0.293455
20
-0.189493
30
0.006922
70
192
0
VERTEX
8
Meshes
10
0.293455
20
-0.189493
30
0.046110
70
192
0
VERTEX
8
Meshes
10
0.293455
20
-0.189493
30
0.086980
70
192
0
VERTEX
8
Meshes
10
0.285676
20
-0.180812
30
0.095584
70
192
0
VERTEX
8
Meshes
10
0.156738
20
-0.101850
30
0.095584
70
192
0
VERTEX
8
Meshes
10
-0.286296
20
0.208850
30
0.001731
70
192
0
VERTEX
8
Meshes
10
-0.252977
20
0.175617
30
0.000000
70
192
0
VERTEX
8
Meshes
10
-0.288240
20
0.211586
30
0.020180
70
192
0
VERTEX
8
Meshes
10
-0.288240
20
0.211586
30
0.072461
70
192
0
VERTEX
8
Meshes
10
-0.286296
20
0.208850
30
0.093433
70
192
0
VERTEX
8
Meshes
10
-0.252977
20
0.175617
30
0.095584
70
192
0
VERTEX
8
Meshes
10
-0.280461
20
0.132792
30
0.000000
70
192
0
VERTEX
8
Meshes
10
-0.164434
20
0.064792
30
0.000000
70
192
0
VERTEX
8
Meshes
10
-0.288240
20
0.140246
30
0.006922
70
192
0
VERTEX
8
Meshes
10
-0.288240
20
0.140246
30
0.046110
70
192
0
VERTEX
8
Meshes
10
-0.288240
20
0.140246
30
0.086980
70
192
0
VERTEX
8
Meshes
10
-0.280461
20
0.132792
30
0.095584
70
192
0
VERTEX
8
Meshes
10
-0.164434
20
0.064792
30
0.095584
70
192
0
VERTEX
8
Meshes
10
-0.286296
20
-0.018405
30
0.001731
70
192
0
VERTEX
8
Meshes
10
-0.286296
20
-0.239342
30
0.001731
70
192
0
VERTEX
8
Meshes
10
-0.252977
20
-0.017455
30
0.000000
70
192
0
VERTEX
8
Meshes
10
-0.252978
20
-0.205159
30
0.000000
70
192
0
VERTEX
8
Meshes
10
-0.288240
20
-0.018483
30
0.020180
70
192
0
VERTEX
8
Meshes
10
-0.288241
20
-0.242156
30
0.020180
70
192
0
VERTEX
8
Meshes
10
-0.288240
20
-0.018483
30
0.072461
70
192
0
VERTEX
8
Meshes
10
-0.288241
20
-0.242156
30
0.072461
70
192
0
VERTEX
8
Meshes
10
-0.286296
20
-0.018405
30
0.093433
70
192
0
VERTEX
8
Meshes
10
-0.286296
20
-0.239342
30
0.093433
70
192
0
VERTEX
8
Meshes
10
-0.252977
20
-0.017455
30
0.095584
70
192
0
VERTEX
8
Meshes
10
-0.252978
20
-0.205159
30
0.095584
70
192
0
VERTEX
8
Meshes
10
-0.280462
20
-0.167612
30
0.000000
70
192
0
VERTEX
8
Meshes
10
-0.164434
20
-0.094737
30
0.000000
70
192
0
VERTEX
8
Meshes
10
-0.288241
20
-0.175614
30
0.006922
70
192
0
VERTEX
8
Meshes
10
-0.288241
20
-0.175614
30
0.046110
70
192
0
VERTEX
8
Meshes
10
-0.288241
20
-0.175614
30
0.086980
70
192
0
VERTEX
8
Meshes
10
-0.280462
20
-0.167612
30
0.095584
70
192
0
VERTEX
8
Meshes
10
-0.164434
20
-0.094737
30
0.095584
70
192
0
VERTEX
8
Meshes
10
-0.235925
20
0.270938
30
0.001731
70
192
0
VERTEX
8
Meshes
10
-0.214699
20
0.228366
30
0.000000
70
192
0
VERTEX
8
Meshes
10
-0.236412
20
0.274443
30
0.020180
70
192
0
VERTEX
8
Meshes
10
-0.236412
20
0.274443
30
0.072461
70
192
0
VERTEX
8
Meshes
10
-0.235925
20
0.270938
30
0.093433
70
192
0
VERTEX
8
Meshes
10
-0.214699
20
0.228366
30
0.095584
70
192
0
VERTEX
8
Meshes
10
-0.167576
20
0.260422
30
0.000000
70
192
0
VERTEX
8
Meshes
10
-0.098140
20
0.138698
30
0.000000
70
192
0
VERTEX
8
Meshes
10
-0.168975
20
0.274443
30
0.006922
70
192
0
VERTEX
8
Meshes
10
-0.168975
20
0.274443
30
0.046110
70
192
0
VERTEX
8
Meshes
10
-0.168975
20
0.274443
30
0.086980
70
192
0
VERTEX
8
Meshes
10
-0.167576
20
0.260422
30
0.095584
70
192
0
VERTEX
8
Meshes
10
-0.098140
20
0.138698
30
0.095584
70
192
0
VERTEX
8
Meshes
10
0.000107
20
0.270938
30
0.001731
70
192
0
VERTEX
8
Meshes
10
0.238639
20
0.270938
30
0.001731
70
192
0
VERTEX
8
Meshes
10
-0.000948
20
0.228366
30
0.000000
70
192
0
VERTEX
8
Meshes
10
0.215067
20
0.228366
30
0.000000
70
192
0
VERTEX
8
Meshes
10
0.000102
20
0.274443
30
0.020180
70
192
0
VERTEX
8
Meshes
10
0.239121
20
0.274443
30
0.020180
70
192
0
VERTEX
8
Meshes
10
0.239121
20
0.274443
30
0.072461
70
192
0
VERTEX
8
Meshes
10
0.000102
20
0.274443
30
0.072461
70
192
0
VERTEX
8
Meshes
10
0.238639
20
0.270938
30
0.093433
70
192
0
VERTEX
8
Meshes
10
0.000107
20
0.270938
30
0.093433
70
192
0
VERTEX
8
Meshes
10
0.215067
20
0.228366
30
0.095584
70
192
0
VERTEX
8
Meshes
10
-0.000948
20
0.228366
30
0.095584
70
192
0
VERTEX
8
Meshes
10
0.168442
20
0.260422
30
0.000000
70
192
0
VERTEX
8
Meshes
10
0.087979
20
0.138698
30
0.000000
70
192
0
VERTEX
8
Meshes
10
0.169806
20
0.274443
30
0.006922
70
192
0
VERTEX
8
Meshes
10
0.169806
20
0.274443
30
0.046110
70
192
0
VERTEX
8
Meshes
10
0.169806
20
0.274443
30
0.086980
70
192
0
VERTEX
8
Meshes
10
0.168442
20
0.260422
30
0.095584
70
192
0
VERTEX
8
Meshes
10
0.087979
20
0.138698
30
0.095584
70
192
0
VERTEX
8
Meshes
10
-0.228271
20
-0.295112
30
0.001731
70
192
0
VERTEX
8
Meshes
10
-0.207768
20
-0.252540
30
0.000000
70
192
0
VERTEX
8
Meshes
10
-0.228743
20
-0.298617
30
0.020180
70
192
0
VERTEX
8
Meshes
10
-0.228743
20
-0.298617
30
0.072461
70
192
0
VERTEX
8
Meshes
10
-0.228271
20
-0.295112
30
0.093433
70
192
0
VERTEX
8
Meshes
10
-0.207768
20
-0.252540
30
0.095584
70
192
0
VERTEX
8
Meshes
10
-0.157162
20
-0.284597
30
0.000000
70
192
0
VERTEX
8
Meshes
10
-0.092511
20
-0.162872
30
0.000000
70
192
0
VERTEX
8
Meshes
10
-0.158475
20
-0.298617
30
0.006922
70
192
0
VERTEX
8
Meshes
10
-0.158475
20
-0.298617
30
0.046110
70
192
0
VERTEX
8
Meshes
10
-0.158475
20
-0.298617
30
0.086980
70
192
0
VERTEX
8
Meshes
10
-0.157162
20
-0.284597
30
0.095584
70
192
0
VERTEX
8
Meshes
10
-0.092511
20
-0.162872
30
0.095584
70
192
0
VERTEX
8
Meshes
10
0.003755
20
-0.295112
30
0.001731
70
192
0
VERTEX
8
Meshes
10
0.234634
20
-0.295112
30
0.001731
70
192
0
VERTEX
8
Meshes
10
0.002356
20
-0.252540
30
0.000000
70
192
0
VERTEX
8
Meshes
10
0.211440
20
-0.252540
30
0.000000
70
192
0
VERTEX
8
Meshes
10
0.003758
20
-0.298617
30
0.020180
70
192
0
VERTEX
8
Meshes
10
0.235108
20
-0.298617
30
0.020180
70
192
0
VERTEX
8
Meshes
10
0.003758
20
-0.298617
30
0.072461
70
192
0
VERTEX
8
Meshes
10
0.235108
20
-0.298617
30
0.072461
70
192
0
VERTEX
8
Meshes
10
0.234634
20
-0.295112
30
0.093433
70
192
0
VERTEX
8
Meshes
10
0.003755
20
-0.295112
30
0.093433
70
192
0
VERTEX
8
Meshes
10
0.211440
20
-0.252540
30
0.095584
70
192
0
VERTEX
8
Meshes
10
0.002356
20
-0.252540
30
0.095584
70
192
0
VERTEX
8
Meshes
10
0.164373
20
-0.284597
30
0.000000
70
192
0
VERTEX
8
Meshes
10
0.085947
20
-0.162872
30
0.000000
70
192
0
VERTEX
8
Meshes
10
0.165703
20
-0.298617
30
0.006922
70
192
0
VERTEX
8
Meshes
10
0.165703
20
-0.298617
30
0.046110
70
192
0
VERTEX
8
Meshes
10
0.165703
20
-0.298617
30
0.086980
70
192
0
VERTEX
8
Meshes
10
0.164373
20
-0.284597
30
0.095584
70
192
0
VERTEX
8
Meshes
10
0.085947
20
-0.162872
30
0.095584
70
192
0
VERTEX
8
Meshes
10
0.442307
20
0.442307
30
0.001731
70
192
0
VERTEX
8
Meshes
10
0.577902
20
0.239375
30
0.001731
70
192
0
VERTEX
8
Meshes
10
0.625517
20
-0.000000
30
0.001731
70
192
0
VERTEX
8
Meshes
10
0.577902
20
-0.239375
30
0.001730
70
192
0
VERTEX
8
Meshes
10
0.442307
20
-0.442307
30
0.001730
70
192
0
VERTEX
8
Meshes
10
0.239375
20
-0.577902
30
0.001730
70
192
0
VERTEX
8
Meshes
10
0.000000
20
-0.625517
30
0.001730
70
192
0
VERTEX
8
Meshes
10
-0.239375
20
-0.577902
30
0.001730
70
192
0
VERTEX
8
Meshes
10
-0.442307
20
-0.442307
30
0.001730
70
192
0
VERTEX
8
Meshes
10
-0.577902
20
-0.239375
30
0.001730
70
192
0
VERTEX
8
Meshes
10
-0.625516
20
0.000000
30
0.001731
70
192
0
VERTEX
8
Meshes
10
-0.577902
20
0.239375
30
0.001731
70
192
0
VERTEX
8
Meshes
10
-0.442307
20
0.442307
30
0.001731
70
192
0
VERTEX
8
Meshes
10
-0.239374
20
0.577902
30
0.001731
70
192
0
VERTEX
8
Meshes
10
0.000000
20
0.625517
30
0.001731
70
192
0
VERTEX
8
Meshes
10
0.239375
20
0.577902
30
0.001731
70
192
0
VERTEX
8
Meshes
10
0.661909
20
0.274172
30
0.001731
70
192
0
VERTEX
8
Meshes
10
0.506603
20
0.506603
30
0.001731
70
192
0
VERTEX
8
Meshes
10
0.716445
20
-0.000000
30
0.001731
70
192
0
VERTEX
8
Meshes
10
0.661909
20
-0.274172
30
0.001730
70
192
0
VERTEX
8
Meshes
10
0.506603
20
-0.506603
30
0.001730
70
192
0
VERTEX
8
Meshes
10
0.274172
20
-0.661909
30
0.001730
70
192
0
VERTEX
8
Meshes
10
0.000000
20
-0.716445
30
0.001730
70
192
0
VERTEX
8
Meshes
10
-0.274171
20
-0.661909
30
0.001730
70
192
0
VERTEX
8
Meshes
10
-0.506603
20
-0.506603
30
0.001730
70
192
0
VERTEX
8
Meshes
10
-0.661909
20
-0.274172
30
0.001730
70
192
0
VERTEX
8
Meshes
10
-0.716445
20
0.000000
30
0.001731
70
192
0
VERTEX
8
Meshes
10
-0.661909
20
0.274172
30
0.001731
70
192
0
VERTEX
8
Meshes
10
-0.506603
20
0.506603
30
0.001731
70
192
0
VERTEX
8
Meshes
10
-0.274171
20
0.661909
30
0.001731
70
192
0
VERTEX
8
Meshes
10
0.000000
20
0.716445
30
0.001731
70
192
0
VERTEX
8
Meshes
10
0.274172
20
0.661909
30
0.001731
70
192
0
VERTEX
8
Meshes
10
0.489294
20
0.489294
30
0.000000
70
192
0
VERTEX
8
Meshes
10
0.639293
20
0.264804
30
0.000000
70
192
0
VERTEX
8
Meshes
10
0.691966
20
-0.000000
30
-0.000000
70
192
0
VERTEX
8
Meshes
10
0.639293
20
-0.264804
30
-0.000000
70
192
0
VERTEX
8
Meshes
10
0.489294
20
-0.489294
30
-0.000000
70
192
0
VERTEX
8
Meshes
10
0.264804
20
-0.639293
30
-0.000000
70
192
0
VERTEX
8
Meshes
10
0.000000
20
-0.691966
30
-0.000000
70
192
0
VERTEX
8
Meshes
10
-0.264804
20
-0.639293
30
-0.000000
70
192
0
VERTEX
8
Meshes
10
-0.489294
20
-0.489294
30
-0.000000
70
192
0
VERTEX
8
Meshes
10
-0.639293
20
-0.264804
30
-0.000000
70
192
0
VERTEX
8
Meshes
10
-0.691966
20
0.000000
30
0.000000
70
192
0
VERTEX
8
Meshes
10
-0.639293
20
0.264804
30
0.000000
70
192
0
VERTEX
8
Meshes
10
-0.489294
20
0.489294
30
0.000000
70
192
0
VERTEX
8
Meshes
10
-0.264804
20
0.639293
30
0.000000
70
192
0
VERTEX
8
Meshes
10
0.000000
20
0.691966
30
0.000000
70
192
0
VERTEX
8
Meshes
10
0.264804
20
0.639293
30
0.000000
70
192
0
VERTEX
8
Meshes
10
0.461482
20
0.461482
30
0.000000
70
192
0
VERTEX
8
Meshes
10
0.602955
20
0.249752
30
0.000000
70
192
0
VERTEX
8
Meshes
10
0.652634
20
-0.000000
30
-0.000000
70
192
0
VERTEX
8
Meshes
10
0.602955
20
-0.249752
30
-0.000000
70
192
0
VERTEX
8
Meshes
10
0.461482
20
-0.461482
30
-0.000000
70
192
0
VERTEX
8
Meshes
10
0.249752
20
-0.602955
30
-0.000000
70
192
0
VERTEX
8
Meshes
10
0.000000
20
-0.652634
30
-0.000000
70
192
0
VERTEX
8
Meshes
10
-0.249752
20
-0.602955
30
-0.000000
70
192
0
VERTEX
8
Meshes
10
-0.461482
20
-0.461482
30
-0.000000
70
192
0
VERTEX
8
Meshes
10
-0.602955
20
-0.249752
30
-0.000000
70
192
0
VERTEX
8
Meshes
10
-0.652634
20
0.000000
30
0.000000
70
192
0
VERTEX
8
Meshes
10
-0.602955
20
0.249752
30
0.000000
70
192
0
VERTEX
8
Meshes
10
-0.461482
20
0.461482
30
0.000000
70
192
0
VERTEX
8
Meshes
10
-0.249752
20
0.602955
30
0.000000
70
192
0
VERTEX
8
Meshes
10
0.000000
20
0.652634
30
0.000000
70
192
0
VERTEX
8
Meshes
10
0.249753
20
0.602955
30
0.000000
70
192
0
VERTEX
8
Meshes
10
0.275387
20
0.664843
30
0.020180
70
192
0
VERTEX
8
Meshes
10
0.000000
20
0.719621
30
0.020180
70
192
0
VERTEX
8
Meshes
10
-0.275387
20
0.664843
30
0.020180
70
192
0
VERTEX
8
Meshes
10
-0.508849
20
0.508849
30
0.020180
70
192
0
VERTEX
8
Meshes
10
-0.664843
20
0.275387
30
0.020180
70
192
0
VERTEX
8
Meshes
10
-0.719621
20
0.000000
30
0.020180
70
192
0
VERTEX
8
Meshes
10
-0.664843
20
-0.275387
30
0.020180
70
192
0
VERTEX
8
Meshes
10
-0.508849
20
-0.508849
30
0.020180
70
192
0
VERTEX
8
Meshes
10
-0.275387
20
-0.664843
30
0.020180
70
192
0
VERTEX
8
Meshes
10
0.000000
20
-0.719621
30
0.020180
70
192
0
VERTEX
8
Meshes
10
0.275387
20
-0.664843
30
0.020180
70
192
0
VERTEX
8
Meshes
10
0.508849
20
-0.508849
30
0.020180
70
192
0
VERTEX
8
Meshes
10
0.664843
20
-0.275387
30
0.020180
70
192
0
VERTEX
8
Meshes
10
0.719621
20
-0.000000
30
0.020180
70
192
0
VERTEX
8
Meshes
10
0.508849
20
0.508849
30
0.020180
70
192
0
VERTEX
8
Meshes
10
0.664843
20
0.275387
30
0.020180
70
192
0
VERTEX
8
Meshes
10
0.237992
20
0.574561
30
0.020180
70
192
0
VERTEX
8
Meshes
10
0.000000
20
0.621901
30
0.020180
70
192
0
VERTEX
8
Meshes
10
-0.237991
20
0.574562
30
0.020180
70
192
0
VERTEX
8
Meshes
10
-0.439750
20
0.439750
30
0.020180
70
192
0
VERTEX
8
Meshes
10
-0.574561
20
0.237991
30
0.020180
70
192
0
VERTEX
8
Meshes
10
-0.621901
20
0.000000
30
0.020180
70
192
0
VERTEX
8
Meshes
10
-0.574561
20
-0.237991
30
0.020180
70
192
0
VERTEX
8
Meshes
10
-0.439750
20
-0.439750
30
0.020180
70
192
0
VERTEX
8
Meshes
10
-0.237991
20
-0.574562
30
0.020180
70
192
0
VERTEX
8
Meshes
10
0.000000
20
-0.621901
30
0.020180
70
192
0
VERTEX
8
Meshes
10
0.237991
20
-0.574561
30
0.020180
70
192
0
VERTEX
8
Meshes
10
0.439750
20
-0.439750
30
0.020180
70
192
0
VERTEX
8
Meshes
10
0.574561
20
-0.237991
30
0.020180
70
192
0
VERTEX
8
Meshes
10
0.621901
20
-0.000000
30
0.020180
70
192
0
VERTEX
8
Meshes
10
0.574561
20
0.237991
30
0.020180
70
192
0
VERTEX
8
Meshes
10
0.439750
20
0.439750
30
0.020180
70
192
0
VERTEX
8
Meshes
10
0.439750
20
0.439750
30
0.072461
70
192
0
VERTEX
8
Meshes
10
0.574562
20
0.237991
30
0.072461
70
192
0
VERTEX
8
Meshes
10
0.621901
20
-0.000000
30
0.072461
70
192
0
VERTEX
8
Meshes
10
0.574561
20
-0.237991
30
0.072461
70
192
0
VERTEX
8
Meshes
10
0.439750
20
-0.439750
30
0.072461
70
192
0
VERTEX
8
Meshes
10
0.237991
20
-0.574561
30
0.072461
70
192
0
VERTEX
8
Meshes
10
0.000000
20
-0.621901
30
0.072461
70
192
0
VERTEX
8
Meshes
10
-0.237991
20
-0.574562
30
0.072461
70
192
0
VERTEX
8
Meshes
10
-0.439750
20
-0.439750
30
0.072461
70
192
0
VERTEX
8
Meshes
10
-0.574561
20
-0.237991
30
0.072461
70
192
0
VERTEX
8
Meshes
10
-0.621901
20
0.000000
30
0.072461
70
192
0
VERTEX
8
Meshes
10
-0.574561
20
0.237991
30
0.072461
70
192
0
VERTEX
8
Meshes
10
-0.439750
20
0.439750
30
0.072461
70
192
0
VERTEX
8
Meshes
10
-0.237991
20
0.574562
30
0.072461
70
192
0
VERTEX
8
Meshes
10
0.000000
20
0.621901
30
0.072461
70
192
0
VERTEX
8
Meshes
10
0.237992
20
0.574561
30
0.072461
70
192
0
VERTEX
8
Meshes
10
0.664843
20
0.275387
30
0.072461
70
192
0
VERTEX
8
Meshes
10
0.508849
20
0.508849
30
0.072461
70
192
0
VERTEX
8
Meshes
10
0.719621
20
-0.000000
30
0.072461
70
192
0
VERTEX
8
Meshes
10
0.664843
20
-0.275387
30
0.072461
70
192
0
VERTEX
8
Meshes
10
0.508849
20
-0.508849
30
0.072461
70
192
0
VERTEX
8
Meshes
10
0.275387
20
-0.664843
30
0.072461
70
192
0
VERTEX
8
Meshes
10
0.000000
20
-0.719621
30
0.072461
70
192
0
VERTEX
8
Meshes
10
-0.275387
20
-0.664843
30
0.072461
70
192
0
VERTEX
8
Meshes
10
-0.508849
20
-0.508849
30
0.072461
70
192
0
VERTEX
8
Meshes
10
-0.664843
20
-0.275387
30
0.072461
70
192
0
VERTEX
8
Meshes
10
-0.719621
20
0.000000
30
0.072461
70
192
0
VERTEX
8
Meshes
10
-0.664843
20
0.275387
30
0.072461
70
192
0
VERTEX
8
Meshes
10
-0.508849
20
0.508849
30
0.072461
70
192
0
VERTEX
8
Meshes
10
-0.275387
20
0.664843
30
0.072461
70
192
0
VERTEX
8
Meshes
10
0.000000
20
0.719621
30
0.072461
70
192
0
VERTEX
8
Meshes
10
0.275387
20
0.664843
30
0.072461
70
192
0
VERTEX
8
Meshes
10
0.249753
20
0.602955
30
0.095584
70
192
0
VERTEX
8
Meshes
10
0.000000
20
0.652634
30
0.095584
70
192
0
VERTEX
8
Meshes
10
-0.249752
20
0.602955
30
0.095584
70
192
0
VERTEX
8
Meshes
10
-0.461482
20
0.461482
30
0.095584
70
192
0
VERTEX
8
Meshes
10
-0.602955
20
0.249752
30
0.095584
70
192
0
VERTEX
8
Meshes
10
-0.652634
20
0.000000
30
0.095584
70
192
0
VERTEX
8
Meshes
10
-0.602955
20
-0.249752
30
0.095584
70
192
0
VERTEX
8
Meshes
10
-0.461482
20
-0.461482
30
0.095584
70
192
0
VERTEX
8
Meshes
10
-0.249752
20
-0.602955
30
0.095584
70
192
0
VERTEX
8
Meshes
10
0.000000
20
-0.652634
30
0.095584
70
192
0
VERTEX
8
Meshes
10
0.249752
20
-0.602955
30
0.095584
70
192
0
VERTEX
8
Meshes
10
0.461482
20
-0.461482
30
0.095584
70
192
0
VERTEX
8
Meshes
10
0.602955
20
-0.249752
30
0.095584
70
192
0
VERTEX
8
Meshes
10
0.652634
20
-0.000000
30
0.095584
70
192
0
VERTEX
8
Meshes
10
0.602955
20
0.249752
30
0.095584
70
192
0
VERTEX
8
Meshes
10
0.461482
20
0.461482
30
0.095584
70
192
0
VERTEX
8
Meshes
10
0.264804
20
0.639293
30
0.095584
70
192
0
VERTEX
8
Meshes
10
0.000000
20
0.691966
30
0.095584
70
192
0
VERTEX
8
Meshes
10
-0.264804
20
0.639293
30
0.095584
70
192
0
VERTEX
8
Meshes
10
-0.489294
20
0.489294
30
0.095584
70
192
0
VERTEX
8
Meshes
10
-0.639293
20
0.264804
30
0.095584
70
192
0
VERTEX
8
Meshes
10
-0.691966
20
0.000000
30
0.095584
70
192
0
VERTEX
8
Meshes
10
-0.639293
20
-0.264804
30
0.095584
70
192
0
VERTEX
8
Meshes
10
-0.489294
20
-0.489294
30
0.095584
70
192
0
VERTEX
8
Meshes
10
-0.264804
20
-0.639293
30
0.095584
70
192
0
VERTEX
8
Meshes
10
0.000000
20
-0.691966
30
0.095584
70
192
0
VERTEX
8
Meshes
10
0.264804
20
-0.639293
30
0.095584
70
192
0
VERTEX
8
Meshes
10
0.489294
20
-0.489294
30
0.095584
70
192
0
VERTEX
8
Meshes
10
0.639293
20
-0.264804
30
0.095584
70
192
0
VERTEX
8
Meshes
10
0.691966
20
-0.000000
30
0.095584
70
192
0
VERTEX
8
Meshes
10
0.639293
20
0.264804
30
0.095584
70
192
0
VERTEX
8
Meshes
10
0.489294
20
0.489294
30
0.095584
70
192
0
VERTEX
8
Meshes
10
0.274172
20
0.661909
30
0.093433
70
192
0
VERTEX
8
Meshes
10
0.000000
20
0.716445
30
0.093433
70
192
0
VERTEX
8
Meshes
10
-0.274171
20
0.661909
30
0.093433
70
192
0
VERTEX
8
Meshes
10
-0.506603
20
0.506603
30
0.093433
70
192
0
VERTEX
8
Meshes
10
-0.661909
20
0.274172
30
0.093433
70
192
0
VERTEX
8
Meshes
10
-0.716445
20
0.000000
30
0.093433
70
192
0
VERTEX
8
Meshes
10
-0.661909
20
-0.274172
30
0.093433
70
192
0
VERTEX
8
Meshes
10
-0.506603
20
-0.506603
30
0.093433
70
192
0
VERTEX
8
Meshes
10
-0.274171
20
-0.661909
30
0.093433
70
192
0
VERTEX
8
Meshes
10
0.000000
20
-0.716445
30
0.093433
70
192
0
VERTEX
8
Meshes
10
0.274172
20
-0.661909
30
0.093433
70
192
0
VERTEX
8
Meshes
10
0.506603
20
-0.506603
30
0.093433
70
192
0
VERTEX
8
Meshes
10
0.661909
20
-0.274172
30
0.093433
70
192
0
VERTEX
8
Meshes
10
0.716445
20
-0.000000
30
0.093433
70
192
0
VERTEX
8
Meshes
10
0.506603
20
0.506603
30
0.093433
70
192
0
VERTEX
8
Meshes
10
0.661909
20
0.274172
30
0.093433
70
192
0
VERTEX
8
Meshes
10
0.239375
20
0.577902
30
0.093433
70
192
0
VERTEX
8
Meshes
10
0.000000
20
0.625517
30
0.093433
70
192
0
VERTEX
8
Meshes
10
-0.239374
20
0.577902
30
0.093433
70
192
0
VERTEX
8
Meshes
10
-0.442307
20
0.442307
30
0.093433
70
192
0
VERTEX
8
Meshes
10
-0.577902
20
0.239375
30
0.093433
70
192
0
VERTEX
8
Meshes
10
-0.625516
20
0.000000
30
0.093433
70
192
0
VERTEX
8
Meshes
10
-0.577902
20
-0.239375
30
0.093433
70
192
0
VERTEX
8
Meshes
10
-0.442307
20
-0.442307
30
0.093433
70
192
0
VERTEX
8
Meshes
10
-0.239375
20
-0.577902
30
0.093433
70
192
0
VERTEX
8
Meshes
10
0.000000
20
-0.625517
30
0.093433
70
192
0
VERTEX
8
Meshes
10
0.239375
20
-0.577902
30
0.093433
70
192
0
VERTEX
8
Meshes
10
0.442307
20
-0.442307
30
0.093433
70
192
0
VERTEX
8
Meshes
10
0.577902
20
-0.239375
30
0.093433
70
192
0
VERTEX
8
Meshes
10
0.625517
20
-0.000000
30
0.093433
70
192
0
VERTEX
8
Meshes
10
0.577902
20
0.239375
30
0.093433
70
192
0
VERTEX
8
Meshes
10
0.442307
20
0.442307
30
0.093433
70
192
0
VERTEX
8
Meshes
10
0.278011
20
0.257042
30
0.001731
70
192
0
VERTEX
8
Meshes
10
0.289964
20
0.230534
30
0.001731
70
192
0
VERTEX
8
Meshes
10
0.289964
20
-0.259866
30
0.001731
70
192
0
VERTEX
8
Meshes
10
0.278011
20
-0.281216
30
0.001731
70
192
0
VERTEX
8
Meshes
10
0.254627
20
-0.293521
30
0.001731
70
192
0
VERTEX
8
Meshes
10
-0.249126
20
-0.293521
30
0.001731
70
192
0
VERTEX
8
Meshes
10
-0.272797
20
-0.281216
30
0.001731
70
192
0
VERTEX
8
Meshes
10
-0.284750
20
-0.257840
30
0.001731
70
192
0
VERTEX
8
Meshes
10
-0.284750
20
0.232086
30
0.001731
70
192
0
VERTEX
8
Meshes
10
-0.272797
20
0.257042
30
0.001731
70
192
0
VERTEX
8
Meshes
10
-0.251039
20
0.269346
30
0.001731
70
192
0
VERTEX
8
Meshes
10
0.255629
20
0.269346
30
0.001731
70
192
0
VERTEX
8
Meshes
10
0.248488
20
0.189316
30
0.000000
70
192
0
VERTEX
8
Meshes
10
0.240440
20
0.211417
30
0.000000
70
192
0
VERTEX
8
Meshes
10
0.248488
20
-0.217872
30
0.000000
70
192
0
VERTEX
8
Meshes
10
0.240440
20
-0.235592
30
0.000000
70
192
0
VERTEX
8
Meshes
10
0.223403
20
-0.245803
30
0.000000
70
192
0
VERTEX
8
Meshes
10
-0.221156
20
-0.245803
30
0.000000
70
192
0
VERTEX
8
Meshes
10
-0.238453
20
-0.235592
30
0.000000
70
192
0
VERTEX
8
Meshes
10
-0.246501
20
-0.216151
30
0.000000
70
192
0
VERTEX
8
Meshes
10
-0.246501
20
0.190635
30
0.000000
70
192
0
VERTEX
8
Meshes
10
-0.238453
20
0.211417
30
0.000000
70
192
0
VERTEX
8
Meshes
10
-0.222889
20
0.221629
30
0.000000
70
192
0
VERTEX
8
Meshes
10
0.224310
20
0.221629
30
0.000000
70
192
0
VERTEX
8
Meshes
10
-0.011605
20
-0.012292
30
0.000000
70
192
0
VERTEX
8
Meshes
10
0.256253
20
0.272832
30
0.020180
70
192
0
VERTEX
8
Meshes
10
-0.251665
20
0.272832
30
0.020180
70
192
0
VERTEX
8
Meshes
10
-0.274173
20
0.260375
30
0.020180
70
192
0
VERTEX
8
Meshes
10
-0.286629
20
0.235110
30
0.020180
70
192
0
VERTEX
8
Meshes
10
-0.286629
20
-0.260883
30
0.020180
70
192
0
VERTEX
8
Meshes
10
-0.274173
20
-0.284549
30
0.020180
70
192
0
VERTEX
8
Meshes
10
-0.249747
20
-0.297006
30
0.020180
70
192
0
VERTEX
8
Meshes
10
0.255249
20
-0.297006
30
0.020180
70
192
0
VERTEX
8
Meshes
10
0.279387
20
-0.284549
30
0.020180
70
192
0
VERTEX
8
Meshes
10
0.291844
20
-0.262935
30
0.020180
70
192
0
VERTEX
8
Meshes
10
0.291844
20
0.233539
30
0.020180
70
192
0
VERTEX
8
Meshes
10
0.279387
20
0.260375
30
0.020180
70
192
0
VERTEX
8
Meshes
10
0.279387
20
0.260375
30
0.072461
70
192
0
VERTEX
8
Meshes
10
0.291844
20
0.233539
30
0.072461
70
192
0
VERTEX
8
Meshes
10
0.291844
20
-0.262935
30
0.072461
70
192
0
VERTEX
8
Meshes
10
0.279387
20
-0.284549
30
0.072461
70
192
0
VERTEX
8
Meshes
10
0.255249
20
-0.297006
30
0.072461
70
192
0
VERTEX
8
Meshes
10
-0.249747
20
-0.297006
30
0.072461
70
192
0
VERTEX
8
Meshes
10
-0.274173
20
-0.284549
30
0.072461
70
192
0
VERTEX
8
Meshes
10
-0.286629
20
-0.260883
30
0.072461
70
192
0
VERTEX
8
Meshes
10
-0.286629
20
0.235110
30
0.072461
70
192
0
VERTEX
8
Meshes
10
-0.274173
20
0.260375
30
0.072461
70
192
0
VERTEX
8
Meshes
10
-0.251665
20
0.272832
30
0.072461
70
192
0
VERTEX
8
Meshes
10
0.256253
20
0.272832
30
0.072461
70
192
0
VERTEX
8
Meshes
10
-0.011605
20
-0.012292
30
0.095584
70
192
0
VERTEX
8
Meshes
10
0.224310
20
0.221629
30
0.095584
70
192
0
VERTEX
8
Meshes
10
-0.222889
20
0.221629
30
0.095584
70
192
0
VERTEX
8
Meshes
10
-0.238453
20
0.211417
30
0.095584
70
192
0
VERTEX
8
Meshes
10
-0.246501
20
0.190635
30
0.095584
70
192
0
VERTEX
8
Meshes
10
-0.246501
20
-0.216151
30
0.095584
70
192
0
VERTEX
8
Meshes
10
-0.238453
20
-0.235592
30
0.095584
70
192
0
VERTEX
8
Meshes
10
-0.221156
20
-0.245803
30
0.095584
70
192
0
VERTEX
8
Meshes
10
0.223403
20
-0.245803
30
0.095584
70
192
0
VERTEX
8
Meshes
10
0.240440
20
-0.235592
30
0.095584
70
192
0
VERTEX
8
Meshes
10
0.248488
20
-0.217872
30
0.095584
70
192
0
VERTEX
8
Meshes
10
0.240440
20
0.211417
30
0.095584
70
192
0
VERTEX
8
Meshes
10
0.248488
20
0.189316
30
0.095584
70
192
0
VERTEX
8
Meshes
10
0.255629
20
0.269346
30
0.093433
70
192
0
VERTEX
8
Meshes
10
-0.251039
20
0.269346
30
0.093433
70
192
0
VERTEX
8
Meshes
10
-0.272797
20
0.257042
30
0.093433
70
192
0
VERTEX
8
Meshes
10
-0.284750
20
0.232086
30
0.093433
70
192
0
VERTEX
8
Meshes
10
-0.284750
20
-0.257840
30
0.093433
70
192
0
VERTEX
8
Meshes
10
-0.272797
20
-0.281216
30
0.093433
70
192
0
VERTEX
8
Meshes
10
-0.249126
20
-0.293521
30
0.093433
70
192
0
VERTEX
8
Meshes
10
0.254627
20
-0.293521
30
0.093433
70
192
0
VERTEX
8
Meshes
10
0.278011
20
-0.281216
30
0.093433
70
192
0
VERTEX
8
Meshes
10
0.289964
20
-0.259866
30
0.093433
70
192
0
VERTEX
8
Meshes
10
0.289964
20
0.230534
30
0.093433
70
192
0
VERTEX
8
Meshes
10
0.278011
20
0.257042
30
0.093433
70
192
0
VERTEX
8
Meshes
10
0.291510
20
0.127047
30
0.001731
70
192
0
VERTEX
8
Meshes
10
0.249552
20
0.102671
30
0.000000
70
192
0
VERTEX
8
Meshes
10
0.293455
20
0.128770
30
0.020180
70
192
0
VERTEX
8
Meshes
10
0.293455
20
0.128770
30
0.072461
70
192
0
VERTEX
8
Meshes
10
0.291510
20
0.127047
30
0.093433
70
192
0
VERTEX
8
Meshes
10
0.249552
20
0.102671
30
0.095584
70
192
0
VERTEX
8
Meshes
10
0.291510
20
-0.187322
30
0.001731
70
192
0
VERTEX
8
Meshes
10
0.249552
20
-0.156731
30
0.000000
70
192
0
VERTEX
8
Meshes
10
0.293455
20
-0.189493
30
0.020180
70
192
0
VERTEX
8
Meshes
10
0.293455
20
-0.189493
30
0.072461
70
192
0
VERTEX
8
Meshes
10
0.291510
20
-0.187322
30
0.093433
70
192
0
VERTEX
8
Meshes
10
0.249552
20
-0.156731
30
0.095584
70
192
0
VERTEX
8
Meshes
10
-0.286296
20
0.138382
30
0.001731
70
192
0
VERTEX
8
Meshes
10
-0.247565
20
0.112065
30
0.000000
70
192
0
VERTEX
8
Meshes
10
-0.288240
20
0.140246
30
0.020180
70
192
0
VERTEX
8
Meshes
10
-0.288240
20
0.140246
30
0.072461
70
192
0
VERTEX
8
Meshes
10
-0.286296
20
0.138382
30
0.093433
70
192
0
VERTEX
8
Meshes
10
-0.247565
20
0.112065
30
0.095584
70
192
0
VERTEX
8
Meshes
10
-0.286296
20
-0.173613
30
0.001731
70
192
0
VERTEX
8
Meshes
10
-0.247565
20
-0.145392
30
0.000000
70
192
0
VERTEX
8
Meshes
10
-0.288241
20
-0.175614
30
0.020180
70
192
0
VERTEX
8
Meshes
10
-0.288241
20
-0.175614
30
0.072461
70
192
0
VERTEX
8
Meshes
10
-0.286296
20
-0.173613
30
0.093433
70
192
0
VERTEX
8
Meshes
10
-0.247565
20
-0.145392
30
0.095584
70
192
0
VERTEX
8
Meshes
10
-0.168626
20
0.270938
30
0.001731
70
192
0
VERTEX
8
Meshes
10
-0.149518
20
0.222981
30
0.000000
70
192
0
VERTEX
8
Meshes
10
-0.168975
20
0.274443
30
0.020180
70
192
0
VERTEX
8
Meshes
10
-0.168975
20
0.274443
30
0.072461
70
192
0
VERTEX
8
Meshes
10
-0.168626
20
0.270938
30
0.093433
70
192
0
VERTEX
8
Meshes
10
-0.149518
20
0.222981
30
0.095584
70
192
0
VERTEX
8
Meshes
10
0.169465
20
0.270938
30
0.001731
70
192
0
VERTEX
8
Meshes
10
0.147645
20
0.222981
30
0.000000
70
192
0
VERTEX
8
Meshes
10
0.169806
20
0.274443
30
0.020180
70
192
0
VERTEX
8
Meshes
10
0.169806
20
0.274443
30
0.072461
70
192
0
VERTEX
8
Meshes
10
0.169465
20
0.270938
30
0.093433
70
192
0
VERTEX
8
Meshes
10
0.147645
20
0.222981
30
0.095584
70
192
0
VERTEX
8
Meshes
10
-0.158147
20
-0.295112
30
0.001731
70
192
0
VERTEX
8
Meshes
10
-0.140342
20
-0.247155
30
0.000000
70
192
0
VERTEX
8
Meshes
10
-0.158475
20
-0.298617
30
0.020180
70
192
0
VERTEX
8
Meshes
10
-0.158475
20
-0.298617
30
0.072461
70
192
0
VERTEX
8
Meshes
10
-0.158147
20
-0.295112
30
0.093433
70
192
0
VERTEX
8
Meshes
10
-0.140342
20
-0.247155
30
0.095584
70
192
0
VERTEX
8
Meshes
10
0.165370
20
-0.295112
30
0.001731
70
192
0
VERTEX
8
Meshes
10
0.144101
20
-0.247155
30
0.000000
70
192
0
VERTEX
8
Meshes
10
0.165703
20
-0.298617
30
0.020180
70
192
0
VERTEX
8
Meshes
10
0.165703
20
-0.298617
30
0.072461
70
192
0
VERTEX
8
Meshes
10
0.165370
20
-0.295112
30
0.093433
70
192
0
VERTEX
8
Meshes
10
0.144101
20
-0.247155
30
0.095584
70
192
0
VERTEX
8
Meshes
62
250
10
0.0
20
0.0
30
0.0
70
128
71
1
72
381
73
1009
74
365
0
VERTEX
8
Meshes
62
250
10
0.0
20
0.0
30
0.0
70
128
71
1
72
365
73
994
74
349
0
VERTEX
8
Meshes
62
250
10
0.0
20
0.0
30
0.0
70
128
71
1
72
349
73
993
74
366
0
VERTEX
8
Meshes
62
250
10
0.0
20
0.0
30
0.0
70
128
71
1
72
366
73
1010
74
381
0
VERTEX
8
Meshes
62
250
10
0.0
20
0.0
30
0.0
70
128
71
2
72
382
73
1010
74
366
0
VERTEX
8
Meshes
62
250
10
0.0
20
0.0
30
0.0
70
128
71
2
72
366
73
993
74
350
0
VERTEX
8
Meshes
62
250
10
0.0
20
0.0
30
0.0
70
128
71
2
72
350
73
995
74
367
0
VERTEX
8
Meshes
62
250
10
0.0
20
0.0
30
0.0
70
128
71
2
72
367
73
1011
74
382
0
VERTEX
8
Meshes
62
250
10
0.0
20
0.0
30
0.0
70
128
71
3
72
383
73
1011
74
367
0
VERTEX
8
Meshes
62
250
10
0.0
20
0.0
30
0.0
70
128
71
3
72
367
73
995
74
351
0
VERTEX
8
Meshes
62
250
10
0.0
20
0.0
30
0.0
70
128
71
3
72
351
73
996
74
368
0
VERTEX
8
Meshes
62
250
10
0.0
20
0.0
30
0.0
70
128
71
3
72
368
73
1012
74
383
0
VERTEX
8
Meshes
62
250
10
0.0
20
0.0
30
0.0
70
128
71
4
72
384
73
1012
74
368
0
VERTEX
8
Meshes
62
250
10
0.0
20
0.0
30
0.0
70
128
71
4
72
368
73
996
74
352
0
VERTEX
8
Meshes
62
250
10
0.0
20
0.0
30
0.0
70
128
71
4
72
352
73
997
74
369
0
VERTEX
8
Meshes
62
250
10
0.0
20
0.0
30
0.0
70
128
71
4
72
369
73
1013
74
384
0
VERTEX
8
Meshes
62
250
10
0.0
20
0.0
30
0.0
70
128
71
5
72
385
73
1013
74
369
0
VERTEX
8
Meshes
62
250
10
0.0
20
0.0
30
0.0
70
128
71
5
72
369
73
997
74
353
0
VERTEX
8
Meshes
62
250
10
0.0
20
0.0
30
0.0
70
128
71
5
72
353
73
998
74
370
0
VERTEX
8
Meshes
62
250
10
0.0
20
0.0
30
0.0
70
128
71
5
72
370
73
1014
74
385
0
VERTEX
8
Meshes
62
250
10
0.0
20
0.0
30
0.0
70
128
71
6
72
386
73
1014
74
370
0
VERTEX
8
Meshes
62
250
10
0.0
20
0.0
30
0.0
70
128
71
6
72
370
73
998
74
354
0
VERTEX
8
Meshes
62
250
10
0.0
20
0.0
30
0.0
70
128
71
6
72
354
73
999
74
371
0
VERTEX
8
Meshes
62
250
10
0.0
20
0.0
30
0.0
70
128
71
6
72
371
73
1015
74
386
0
VERTEX
8
Meshes
62
250
10
0.0
20
0.0
30
0.0
70
128
71
7
72
387
73
1015
74
371
0
VERTEX
8
Meshes
62
250
10
0.0
20
0.0
30
0.0
70
128
71
7
72
371
73
999
74
355
0
VERTEX
8
Meshes
62
250
10
0.0
20
0.0
30
0.0
70
128
71
7
72
355
73
1000
74
372
0
VERTEX
8
Meshes
62
250
10
0.0
20
0.0
30
0.0
70
128
71
7
72
372
73
1016
74
387
0
VERTEX
8
Meshes
62
250
10
0.0
20
0.0
30
0.0
70
128
71
8
72
388
73
1016
74
372
0
VERTEX
8
Meshes
62
250
10
0.0
20
0.0
30
0.0
70
128
71
8
72
372
73
1000
74
356
0
VERTEX
8
Meshes
62
250
10
0.0
20
0.0
30
0.0
70
128
71
8
72
356
73
1001
74
373
0
VERTEX
8
Meshes
62
250
10
0.0
20
0.0
30
0.0
70
128
71
8
72
373
73
1017
74
388
0
VERTEX
8
Meshes
62
250
10
0.0
20
0.0
30
0.0
70
128
71
9
72
389
73
1017
74
373
0
VERTEX
8
Meshes
62
250
10
0.0
20
0.0
30
0.0
70
128
71
9
72
373
73
1001
74
357
0
VERTEX
8
Meshes
62
250
10
0.0
20
0.0
30
0.0
70
128
71
9
72
357
73
1002
74
374
0
VERTEX
8
Meshes
62
250
10
0.0
20
0.0
30
0.0
70
128
71
9
72
374
73
1018
74
389
0
VERTEX
8
Meshes
62
250
10
0.0
20
0.0
30
0.0
70
128
71
10
72
390
73
1018
74
374
0
VERTEX
8
Meshes
62
250
10
0.0
20
0.0
30
0.0
70
128
71
10
72
374
73
1002
74
358
0
VERTEX
8
Meshes
62
250
10
0.0
20
0.0
30
0.0
70
128
71
10
72
358
73
1003
74
375
0
VERTEX
8
Meshes
62
250
10
0.0
20
0.0
30
0.0
70
128
71
10
72
375
73
1019
74
390
0
VERTEX
8
Meshes
62
250
10
0.0
20
0.0
30
0.0
70
128
71
11
72
391
73
1019
74
375
0
VERTEX
8
Meshes
62
250
10
0.0
20
0.0
30
0.0
70
128
71
11
72
375
73
1003
74
359
0
VERTEX
8
Meshes
62
250
10
0.0
20
0.0
30
0.0
70
128
71
11
72
359
73
1004
74
376
0
VERTEX
8
Meshes
62
250
10
0.0
20
0.0
30
0.0
70
128
71
11
72
376
73
1020
74
391
0
VERTEX
8
Meshes
62
250
10
0.0
20
0.0
30
0.0
70
128
71
12
72
392
73
1020
74
376
0
VERTEX
8
Meshes
62
250
10
0.0
20
0.0
30
0.0
70
128
71
12
72
376
73
1004
74
360
0
VERTEX
8
Meshes
62
250
10
0.0
20
0.0
30
0.0
70
128
71
12
72
360
73
1005
74
377
0
VERTEX
8
Meshes
62
250
10
0.0
20
0.0
30
0.0
70
128
71
12
72
377
73
1021
74
392
0
VERTEX
8
Meshes
62
250
10
0.0
20
0.0
30
0.0
70
128
71
13
72
393
73
1021
74
377
0
VERTEX
8
Meshes
62
250
10
0.0
20
0.0
30
0.0
70
128
71
13
72
377
73
1005
74
361
0
VERTEX
8
Meshes
62
250
10
0.0
20
0.0
30
0.0
70
128
71
13
72
361
73
1006
74
378
0
VERTEX
8
Meshes
62
250
10
0.0
20
0.0
30
0.0
70
128
71
13
72
378
73
1022
74
393
0
VERTEX
8
Meshes
62
250
10
0.0
20
0.0
30
0.0
70
128
71
14
72
394
73
1022
74
378
0
VERTEX
8
Meshes
62
250
10
0.0
20
0.0
30
0.0
70
128
71
14
72
378
73
1006
74
362
0
VERTEX
8
Meshes
62
250
10
0.0
20
0.0
30
0.0
70
128
71
14
72
362
73
1007
74
379
0
VERTEX
8
Meshes
62
250
10
0.0
20
0.0
30
0.0
70
128
71
14
72
379
73
1023
74
394
0
VERTEX
8
Meshes
62
250
10
0.0
20
0.0
30
0.0
70
128
71
15
72
395
73
1023
74
379
0
VERTEX
8
Meshes
62
250
10
0.0
20
0.0
30
0.0
70
128
71
15
72
379
73
1007
74
363
0
VERTEX
8
Meshes
62
250
10
0.0
20
0.0
30
0.0
70
128
71
15
72
363
73
1008
74
380
0
VERTEX
8
Meshes
62
250
10
0.0
20
0.0
30
0.0
70
128
71
15
72
380
73
1024
74
395
0
VERTEX
8
Meshes
62
250
10
0.0
20
0.0
30
0.0
70
128
71
16
72
396
73
1024
74
380
0
VERTEX
8
Meshes
62
250
10
0.0
20
0.0
30
0.0
70
128
71
16
72
380
73
1008
74
364
0
VERTEX
8
Meshes
62
250
10
0.0
20
0.0
30
0.0
70
128
71
16
72
364
73
994
74
365
0
VERTEX
8
Meshes
62
250
10
0.0
20
0.0
30
0.0
70
128
71
16
72
365
73
1009
74
396
0
VERTEX
8
Meshes
62
250
10
0.0
20
0.0
30
0.0
70
128
71
17
72
333
73
977
74
398
0
VERTEX
8
Meshes
62
250
10
0.0
20
0.0
30
0.0
70
128
71
17
72
398
73
1025
74
429
0
VERTEX
8
Meshes
62
250
10
0.0
20
0.0
30
0.0
70
128
71
17
72
429
73
1026
74
400
0
VERTEX
8
Meshes
62
250
10
0.0
20
0.0
30
0.0
70
128
71
17
72
400
73
978
74
333
0
VERTEX
8
Meshes
62
250
10
0.0
20
0.0
30
0.0
70
128
71
18
72
429
73
1025
74
397
0
VERTEX
8
Meshes
62
250
10
0.0
20
0.0
30
0.0
70
128
71
18
72
397
73
1009
74
381
0
VERTEX
8
Meshes
62
250
10
0.0
20
0.0
30
0.0
70
128
71
18
72
381
73
1010
74
399
0
VERTEX
8
Meshes
62
250
10
0.0
20
0.0
30
0.0
70
128
71
18
72
399
73
1026
74
429
0
VERTEX
8
Meshes
62
250
10
0.0
20
0.0
30
0.0
70
128
71
19
72
334
73
978
74
400
0
VERTEX
8
Meshes
62
250
10
0.0
20
0.0
30
0.0
70
128
71
19
72
400
73
1026
74
430
0
VERTEX
8
Meshes
62
250
10
0.0
20
0.0
30
0.0
70
128
71
19
72
430
73
1027
74
402
0
VERTEX
8
Meshes
62
250
10
0.0
20
0.0
30
0.0
70
128
71
19
72
402
73
979
74
334
0
VERTEX
8
Meshes
62
250
10
0.0
20
0.0
30
0.0
70
128
71
20
72
430
73
1026
74
399
0
VERTEX
8
Meshes
62
250
10
0.0
20
0.0
30
0.0
70
128
71
20
72
399
73
1010
74
382
0
VERTEX
8
Meshes
62
250
10
0.0
20
0.0
30
0.0
70
128
71
20
72
382
73
1011
74
401
0
VERTEX
8
Meshes
62
250
10
0.0
20
0.0
30
0.0
70
128
71
20
72
401
73
1027
74
430
0
VERTEX
8
Meshes
62
250
10
0.0
20
0.0
30
0.0
70
128
71
21
72
335
73
979
74
402
0
VERTEX
8
Meshes
62
250
10
0.0
20
0.0
30
0.0
70
128
71
21
72
402
73
1027
74
431
0
VERTEX
8
Meshes
62
250
10
0.0
20
0.0
30
0.0
70
128
71
21
72
431
73
1028
74
404
0
VERTEX
8
Meshes
62
250
10
0.0
20
0.0
30
0.0
70
128
71
21
72
404
73
980
74
335
0
VERTEX
8
Meshes
62
250
10
0.0
20
0.0
30
0.0
70
128
71
22
72
431
73
1027
74
401
0
VERTEX
8
Meshes
62
250
10
0.0
20
0.0
30
0.0
70
128
71
22
72
401
73
1011
74
383
0
VERTEX
8
Meshes
62
250
10
0.0
20
0.0
30
0.0
70
128
71
22
72
383
73
1012
74
403
0
VERTEX
8
Meshes
62
250
10
0.0
20
0.0
30
0.0
70
128
71
22
72
403
73
1028
74
431
0
VERTEX
8
Meshes
62
250
10
0.0
20
0.0
30
0.0
70
128
71
23
72
336
73
980
74
404
0
VERTEX
8
Meshes
62
250
10
0.0
20
0.0
30
0.0
70
128
71
23
72
404
73
1028
74
432
0
VERTEX
8
Meshes
62
250
10
0.0
20
0.0
30
0.0
70
128
71
23
72
432
73
1029
74
406
0
VERTEX
8
Meshes
62
250
10
0.0
20
0.0
30
0.0
70
128
71
23
72
406
73
981
74
336
0
VERTEX
8
Meshes
62
250
10
0.0
20
0.0
30
0.0
70
128
71
24
72
432
73
1028
74
403
0
VERTEX
8
Meshes
62
250
10
0.0
20
0.0
30
0.0
70
128
71
24
72
403
73
1012
74
384
0
VERTEX
8
Meshes
62
250
10
0.0
20
0.0
30
0.0
70
128
71
24
72
384
73
1013
74
405
0
VERTEX
8
Meshes
62
250
10
0.0
20
0.0
30
0.0
70
128
71
24
72
405
73
1029
74
432
0
VERTEX
8
Meshes
62
250
10
0.0
20
0.0
30
0.0
70
128
71
25
72
337
73
981
74
406
0
VERTEX
8
Meshes
62
250
10
0.0
20
0.0
30
0.0
70
128
71
25
72
406
73
1029
74
433
0
VERTEX
8
Meshes
62
250
10
0.0
20
0.0
30
0.0
70
128
71
25
72
433
73
1030
74
408
0
VERTEX
8
Meshes
62
250
10
0.0
20
0.0
30
0.0
70
128
71
25
72
408
73
982
74
337
0
VERTEX
8
Meshes
62
250
10
0.0
20
0.0
30
0.0
70
128
71
26
72
433
73
1029
74
405
0
VERTEX
8
Meshes
62
250
10
0.0
20
0.0
30
0.0
70
128
71
26
72
405
73
1013
74
385
0
VERTEX
8
Meshes
62
250
10
0.0
20
0.0
30
0.0
70
128
71
26
72
385
73
1014
74
407
0
VERTEX
8
Meshes
62
250
10
0.0
20
0.0
30
0.0
70
128
71
26
72
407
73
1030
74
433
0
VERTEX
8
Meshes
62
250
10
0.0
20
0.0
30
0.0
70
128
71
27
72
338
73
982
74
408
0
VERTEX
8
Meshes
62
250
10
0.0
20
0.0
30
0.0
70
128
71
27
72
408
73
1030
74
434
0
VERTEX
8
Meshes
62
250
10
0.0
20
0.0
30
0.0
70
128
71
27
72
434
73
1031
74
410
0
VERTEX
8
Meshes
62
250
10
0.0
20
0.0
30
0.0
70
128
71
27
72
410
73
983
74
338
0
VERTEX
8
Meshes
62
250
10
0.0
20
0.0
30
0.0
70
128
71
28
72
434
73
1030
74
407
0
VERTEX
8
Meshes
62
250
10
0.0
20
0.0
30
0.0
70
128
71
28
72
407
73
1014
74
386
0
VERTEX
8
Meshes
62
250
10
0.0
20
0.0
30
0.0
70
128
71
28
72
386
73
1015
74
409
0
VERTEX
8
Meshes
62
250
10
0.0
20
0.0
30
0.0
70
128
71
28
72
409
73
1031
74
434
0
VERTEX
8
Meshes
62
250
10
0.0
20
0.0
30
0.0
70
128
71
29
72
339
73
983
74
410
0
VERTEX
8
Meshes
62
250
10
0.0
20
0.0
30
0.0
70
128
71
29
72
410
73
1031
74
435
0
VERTEX
8
Meshes
62
250
10
0.0
20
0.0
30
0.0
70
128
71
29
72
435
73
1032
74
412
0
VERTEX
8
Meshes
62
250
10
0.0
20
0.0
30
0.0
70
128
71
29
72
412
73
984
74
339
0
VERTEX
8
Meshes
62
250
10
0.0
20
0.0
30
0.0
70
128
71
30
72
435
73
1031
74
409
0
VERTEX
8
Meshes
62
250
10
0.0
20
0.0
30
0.0
70
128
71
30
72
409
73
1015
74
387
0
VERTEX
8
Meshes
62
250
10
0.0
20
0.0
30
0.0
70
128
71
30
72
387
73
1016
74
411
0
VERTEX
8
Meshes
62
250
10
0.0
20
0.0
30
0.0
70
128
71
30
72
411
73
1032
74
435
0
VERTEX
8
Meshes
62
250
10
0.0
20
0.0
30
0.0
70
128
71
31
72
340
73
984
74
412
0
VERTEX
8
Meshes
62
250
10
0.0
20
0.0
30
0.0
70
128
71
31
72
412
73
1032
74
436
0
VERTEX
8
Meshes
62
250
10
0.0
20
0.0
30
0.0
70
128
71
31
72
436
73
1033
74
414
0
VERTEX
8
Meshes
62
250
10
0.0
20
0.0
30
0.0
70
128
71
31
72
414
73
985
74
340
0
VERTEX
8
Meshes
62
250
10
0.0
20
0.0
30
0.0
70
128
71
32
72
436
73
1032
74
411
0
VERTEX
8
Meshes
62
250
10
0.0
20
0.0
30
0.0
70
128
71
32
72
411
73
1016
74
388
0
VERTEX
8
Meshes
62
250
10
0.0
20
0.0
30
0.0
70
128
71
32
72
388
73
1017
74
413
0
VERTEX
8
Meshes
62
250
10
0.0
20
0.0
30
0.0
70
128
71
32
72
413
73
1033
74
436
0
VERTEX
8
Meshes
62
250
10
0.0
20
0.0
30
0.0
70
128
71
33
72
341
73
985
74
414
0
VERTEX
8
Meshes
62
250
10
0.0
20
0.0
30
0.0
70
128
71
33
72
414
73
1033
74
437
0
VERTEX
8
Meshes
62
250
10
0.0
20
0.0
30
0.0
70
128
71
33
72
437
73
1034
74
416
0
VERTEX
8
Meshes
62
250
10
0.0
20
0.0
30
0.0
70
128
71
33
72
416
73
986
74
341
0
VERTEX
8
Meshes
62
250
10
0.0
20
0.0
30
0.0
70
128
71
34
72
437
73
1033
74
413
0
VERTEX
8
Meshes
62
250
10
0.0
20
0.0
30
0.0
70
128
71
34
72
413
73
1017
74
389
0
VERTEX
8
Meshes
62
250
10
0.0
20
0.0
30
0.0
70
128
71
34
72
389
73
1018
74
415
0
VERTEX
8
Meshes
62
250
10
0.0
20
0.0
30
0.0
70
128
71
34
72
415
73
1034
74
437
0
VERTEX
8
Meshes
62
250
10
0.0
20
0.0
30
0.0
70
128
71
35
72
342
73
986
74
416
0
VERTEX
8
Meshes
62
250
10
0.0
20
0.0
30
0.0
70
128
71
35
72
416
73
1034
74
438
0
VERTEX
8
Meshes
62
250
10
0.0
20
0.0
30
0.0
70
128
71
35
72
438
73
1035
74
418
0
VERTEX
8
Meshes
62
250
10
0.0
20
0.0
30
0.0
70
128
71
35
72
418
73
987
74
342
0
VERTEX
8
Meshes
62
250
10
0.0
20
0.0
30
0.0
70
128
71
36
72
438
73
1034
74
415
0
VERTEX
8
Meshes
62
250
10
0.0
20
0.0
30
0.0
70
128
71
36
72
415
73
1018
74
390
0
VERTEX
8
Meshes
62
250
10
0.0
20
0.0
30
0.0
70
128
71
36
72
390
73
1019
74
417
0
VERTEX
8
Meshes
62
250
10
0.0
20
0.0
30
0.0
70
128
71
36
72
417
73
1035
74
438
0
VERTEX
8
Meshes
62
250
10
0.0
20
0.0
30
0.0
70
128
71
37
72
343
73
987
74
418
0
VERTEX
8
Meshes
62
250
10
0.0
20
0.0
30
0.0
70
128
71
37
72
418
73
1035
74
439
0
VERTEX
8
Meshes
62
250
10
0.0
20
0.0
30
0.0
70
128
71
37
72
439
73
1036
74
420
0
VERTEX
8
Meshes
62
250
10
0.0
20
0.0
30
0.0
70
128
71
37
72
420
73
988
74
343
0
VERTEX
8
Meshes
62
250
10
0.0
20
0.0
30
0.0
70
128
71
38
72
439
73
1035
74
417
0
VERTEX
8
Meshes
62
250
10
0.0
20
0.0
30
0.0
70
128
71
38
72
417
73
1019
74
391
0
VERTEX
8
Meshes
62
250
10
0.0
20
0.0
30
0.0
70
128
71
38
72
391
73
1020
74
419
0
VERTEX
8
Meshes
62
250
10
0.0
20
0.0
30
0.0
70
128
71
38
72
419
73
1036
74
439
0
VERTEX
8
Meshes
62
250
10
0.0
20
0.0
30
0.0
70
128
71
39
72
344
73
988
74
420
0
VERTEX
8
Meshes
62
250
10
0.0
20
0.0
30
0.0
70
128
71
39
72
420
73
1036
74
440
0
VERTEX
8
Meshes
62
250
10
0.0
20
0.0
30
0.0
70
128
71
39
72
440
73
1037
74
422
0
VERTEX
8
Meshes
62
250
10
0.0
20
0.0
30
0.0
70
128
71
39
72
422
73
989
74
344
0
VERTEX
8
Meshes
62
250
10
0.0
20
0.0
30
0.0
70
128
71
40
72
440
73
1036
74
419
0
VERTEX
8
Meshes
62
250
10
0.0
20
0.0
30
0.0
70
128
71
40
72
419
73
1020
74
392
0
VERTEX
8
Meshes
62
250
10
0.0
20
0.0
30
0.0
70
128
71
40
72
392
73
1021
74
421
0
VERTEX
8
Meshes
62
250
10
0.0
20
0.0
30
0.0
70
128
71
40
72
421
73
1037
74
440
0
VERTEX
8
Meshes
62
250
10
0.0
20
0.0
30
0.0
70
128
71
41
72
345
73
989
74
422
0
VERTEX
8
Meshes
62
250
10
0.0
20
0.0
30
0.0
70
128
71
41
72
422
73
1037
74
441
0
VERTEX
8
Meshes
62
250
10
0.0
20
0.0
30
0.0
70
128
71
41
72
441
73
1038
74
424
0
VERTEX
8
Meshes
62
250
10
0.0
20
0.0
30
0.0
70
128
71
41
72
424
73
990
74
345
0
VERTEX
8
Meshes
62
250
10
0.0
20
0.0
30
0.0
70
128
71
42
72
441
73
1037
74
421
0
VERTEX
8
Meshes
62
250
10
0.0
20
0.0
30
0.0
70
128
71
42
72
421
73
1021
74
393
0
VERTEX
8
Meshes
62
250
10
0.0
20
0.0
30
0.0
70
128
71
42
72
393
73
1022
74
423
0
VERTEX
8
Meshes
62
250
10
0.0
20
0.0
30
0.0
70
128
71
42
72
423
73
1038
74
441
0
VERTEX
8
Meshes
62
250
10
0.0
20
0.0
30
0.0
70
128
71
43
72
346
73
990
74
424
0
VERTEX
8
Meshes
62
250
10
0.0
20
0.0
30
0.0
70
128
71
43
72
424
73
1038
74
442
0
VERTEX
8
Meshes
62
250
10
0.0
20
0.0
30
0.0
70
128
71
43
72
442
73
1039
74
426
0
VERTEX
8
Meshes
62
250
10
0.0
20
0.0
30
0.0
70
128
71
43
72
426
73
991
74
346
0
VERTEX
8
Meshes
62
250
10
0.0
20
0.0
30
0.0
70
128
71
44
72
442
73
1038
74
423
0
VERTEX
8
Meshes
62
250
10
0.0
20
0.0
30
0.0
70
128
71
44
72
423
73
1022
74
394
0
VERTEX
8
Meshes
62
250
10
0.0
20
0.0
30
0.0
70
128
71
44
72
394
73
1023
74
425
0
VERTEX
8
Meshes
62
250
10
0.0
20
0.0
30
0.0
70
128
71
44
72
425
73
1039
74
442
0
VERTEX
8
Meshes
62
250
10
0.0
20
0.0
30
0.0
70
128
71
45
72
347
73
991
74
426
0
VERTEX
8
Meshes
62
250
10
0.0
20
0.0
30
0.0
70
128
71
45
72
426
73
1039
74
443
0
VERTEX
8
Meshes
62
250
10
0.0
20
0.0
30
0.0
70
128
71
45
72
443
73
1040
74
428
0
VERTEX
8
Meshes
62
250
10
0.0
20
0.0
30
0.0
70
128
71
45
72
428
73
992
74
347
0
VERTEX
8
Meshes
62
250
10
0.0
20
0.0
30
0.0
70
128
71
46
72
443
73
1039
74
425
0
VERTEX
8
Meshes
62
250
10
0.0
20
0.0
30
0.0
70
128
71
46
72
425
73
1023
74
395
0
VERTEX
8
Meshes
62
250
10
0.0
20
0.0
30
0.0
70
128
71
46
72
395
73
1024
74
427
0
VERTEX
8
Meshes
62
250
10
0.0
20
0.0
30
0.0
70
128
71
46
72
427
73
1040
74
443
0
VERTEX
8
Meshes
62
250
10
0.0
20
0.0
30
0.0
70
128
71
47
72
444
73
1025
74
398
0
VERTEX
8
Meshes
62
250
10
0.0
20
0.0
30
0.0
70
128
71
47
72
398
73
977
74
348
0
VERTEX
8
Meshes
62
250
10
0.0
20
0.0
30
0.0
70
128
71
47
72
348
73
992
74
428
0
VERTEX
8
Meshes
62
250
10
0.0
20
0.0
30
0.0
70
128
71
47
72
428
73
1040
74
444
0
VERTEX
8
Meshes
62
250
10
0.0
20
0.0
30
0.0
70
128
71
48
72
444
73
1040
74
427
0
VERTEX
8
Meshes
62
250
10
0.0
20
0.0
30
0.0
70
128
71
48
72
427
73
1024
74
396
0
VERTEX
8
Meshes
62
250
10
0.0
20
0.0
30
0.0
70
128
71
48
72
396
73
1009
74
397
0
VERTEX
8
Meshes
62
250
10
0.0
20
0.0
30
0.0
70
128
71
48
72
397
73
1025
74
444
0
VERTEX
8
Meshes
62
250
10
0.0
20
0.0
30
0.0
70
128
71
49
72
447
73
994
74
364
0
VERTEX
8
Meshes
62
250
10
0.0
20
0.0
30
0.0
70
128
71
49
72
364
73
1008
74
445
0
VERTEX
8
Meshes
62
250
10
0.0
20
0.0
30
0.0
70
128
71
49
72
445
73
1041
74
446
0
VERTEX
8
Meshes
62
250
10
0.0
20
0.0
30
0.0
70
128
71
49
72
446
73
1055
74
447
0
VERTEX
8
Meshes
62
250
10
0.0
20
0.0
30
0.0
70
128
71
50
72
445
73
1008
74
363
0
VERTEX
8
Meshes
62
250
10
0.0
20
0.0
30
0.0
70
128
71
50
72
363
73
1007
74
448
0
VERTEX
8
Meshes
62
250
10
0.0
20
0.0
30
0.0
70
128
71
50
72
448
73
1042
74
449
0
VERTEX
8
Meshes
62
250
10
0.0
20
0.0
30
0.0
70
128
71
50
72
449
73
1041
74
445
0
VERTEX
8
Meshes
62
250
10
0.0
20
0.0
30
0.0
70
128
71
51
72
448
73
1007
74
362
0
VERTEX
8
Meshes
62
250
10
0.0
20
0.0
30
0.0
70
128
71
51
72
362
73
1006
74
450
0
VERTEX
8
Meshes
62
250
10
0.0
20
0.0
30
0.0
70
128
71
51
72
450
73
1043
74
451
0
VERTEX
8
Meshes
62
250
10
0.0
20
0.0
30
0.0
70
128
71
51
72
451
73
1042
74
448
0
VERTEX
8
Meshes
62
250
10
0.0
20
0.0
30
0.0
70
128
71
52
72
450
73
1006
74
361
0
VERTEX
8
Meshes
62
250
10
0.0
20
0.0
30
0.0
70
128
71
52
72
361
73
1005
74
452
0
VERTEX
8
Meshes
62
250
10
0.0
20
0.0
30
0.0
70
128
71
52
72
452
73
1044
74
453
0
VERTEX
8
Meshes
62
250
10
0.0
20
0.0
30
0.0
70
128
71
52
72
453
73
1043
74
450
0
VERTEX
8
Meshes
62
250
10
0.0
20
0.0
30
0.0
70
128
71
53
72
452
73
1005
74
360
0
VERTEX
8
Meshes
62
250
10
0.0
20
0.0
30
0.0
70
128
71
53
72
360
73
1004
74
454
0
VERTEX
8
Meshes
62
250
10
0.0
20
0.0
30
0.0
70
128
71
53
72
454
73
1045
74
455
0
VERTEX
8
Meshes
62
250
10
0.0
20
0.0
30
0.0
70
128
71
53
72
455
73
1044
74
452
0
VERTEX
8
Meshes
62
250
10
0.0
20
0.0
30
0.0
70
128
71
54
72
454
73
1004
74
359
0
VERTEX
8
Meshes
62
250
10
0.0
20
0.0
30
0.0
70
128
71
54
72
359
73
1003
74
456
0
VERTEX
8
Meshes
62
250
10
0.0
20
0.0
30
0.0
70
128
71
54
72
456
73
1046
74
457
0
VERTEX
8
Meshes
62
250
10
0.0
20
0.0
30
0.0
70
128
71
54
72
457
73
1045
74
454
0
VERTEX
8
Meshes
62
250
10
0.0
20
0.0
30
0.0
70
128
71
55
72
456
73
1003
74
358
0
VERTEX
8
Meshes
62
250
10
0.0
20
0.0
30
0.0
70
128
71
55
72
358
73
1002
74
458
0
VERTEX
8
Meshes
62
250
10
0.0
20
0.0
30
0.0
70
128
71
55
72
458
73
1047
74
459
0
VERTEX
8
Meshes
62
250
10
0.0
20
0.0
30
0.0
70
128
71
55
72
459
73
1046
74
456
0
VERTEX
8
Meshes
62
250
10
0.0
20
0.0
30
0.0
70
128
71
56
72
458
73
1002
74
357
0
VERTEX
8
Meshes
62
250
10
0.0
20
0.0
30
0.0
70
128
71
56
72
357
73
1001
74
460
0
VERTEX
8
Meshes
62
250
10
0.0
20
0.0
30
0.0
70
128
71
56
72
460
73
1048
74
461
0
VERTEX
8
Meshes
62
250
10
0.0
20
0.0
30
0.0
70
128
71
56
72
461
73
1047
74
458
0
VERTEX
8
Meshes
62
250
10
0.0
20
0.0
30
0.0
70
128
71
57
72
460
73
1001
74
356
0
VERTEX
8
Meshes
62
250
10
0.0
20
0.0
30
0.0
70
128
71
57
72
356
73
1000
74
462
0
VERTEX
8
Meshes
62
250
10
0.0
20
0.0
30
0.0
70
128
71
57
72
462
73
1049
74
463
0
VERTEX
8
Meshes
62
250
10
0.0
20
0.0
30
0.0
70
128
71
57
72
463
73
1048
74
460
0
VERTEX
8
Meshes
62
250
10
0.0
20
0.0
30
0.0
70
128
71
58
72
462
73
1000
74
355
0
VERTEX
8
Meshes
62
250
10
0.0
20
0.0
30
0.0
70
128
71
58
72
355
73
999
74
464
0
VERTEX
8
Meshes
62
250
10
0.0
20
0.0
30
0.0
70
128
71
58
72
464
73
1050
74
465
0
VERTEX
8
Meshes
62
250
10
0.0
20
0.0
30
0.0
70
128
71
58
72
465
73
1049
74
462
0
VERTEX
8
Meshes
62
250
10
0.0
20
0.0
30
0.0
70
128
71
59
72
464
73
999
74
354
0
VERTEX
8
Meshes
62
250
10
0.0
20
0.0
30
0.0
70
128
71
59
72
354
73
998
74
466
0
VERTEX
8
Meshes
62
250
10
0.0
20
0.0
30
0.0
70
128
71
59
72
466
73
1051
74
467
0
VERTEX
8
Meshes
62
250
10
0.0
20
0.0
30
0.0
70
128
71
59
72
467
73
1050
74
464
0
VERTEX
8
Meshes
62
250
10
0.0
20
0.0
30
0.0
70
128
71
60
72
466
73
998
74
353
0
VERTEX
8
Meshes
62
250
10
0.0
20
0.0
30
0.0
70
128
71
60
72
353
73
997
74
468
0
VERTEX
8
Meshes
62
250
10
0.0
20
0.0
30
0.0
70
128
71
60
72
468
73
1052
74
469
0
VERTEX
8
Meshes
62
250
10
0.0
20
0.0
30
0.0
70
128
71
60
72
469
73
1051
74
466
0
VERTEX
8
Meshes
62
250
10
0.0
20
0.0
30
0.0
70
128
71
61
72
468
73
997
74
352
0
VERTEX
8
Meshes
62
250
10
0.0
20
0.0
30
0.0
70
128
71
61
72
352
73
996
74
470
0
VERTEX
8
Meshes
62
250
10
0.0
20
0.0
30
0.0
70
128
71
61
72
470
73
1053
74
471
0
VERTEX
8
Meshes
62
250
10
0.0
20
0.0
30
0.0
70
128
71
61
72
471
73
1052
74
468
0
VERTEX
8
Meshes
62
250
10
0.0
20
0.0
30
0.0
70
128
71
62
72
470
73
996
74
351
0
VERTEX
8
Meshes
62
250
10
0.0
20
0.0
30
0.0
70
128
71
62
72
351
73
995
74
472
0
VERTEX
8
Meshes
62
250
10
0.0
20
0.0
30
0.0
70
128
71
62
72
472
73
1054
74
473
0
VERTEX
8
Meshes
62
250
10
0.0
20
0.0
30
0.0
70
128
71
62
72
473
73
1053
74
470
0
VERTEX
8
Meshes
62
250
10
0.0
20
0.0
30
0.0
70
128
71
63
72
472
73
995
74
350
0
VERTEX
8
Meshes
62
250
10
0.0
20
0.0
30
0.0
70
128
71
63
72
350
73
993
74
474
0
VERTEX
8
Meshes
62
250
10
0.0
20
0.0
30
0.0
70
128
71
63
72
474
73
1056
74
475
0
VERTEX
8
Meshes
62
250
10
0.0
20
0.0
30
0.0
70
128
71
63
72
475
73
1054
74
472
0
VERTEX
8
Meshes
62
250
10
0.0
20
0.0
30
0.0
70
128
71
64
72
474
73
993
74
349
0
VERTEX
8
Meshes
62
250
10
0.0
20
0.0
30
0.0
70
128
71
64
72
349
73
994
74
447
0
VERTEX
8
Meshes
62
250
10
0.0
20
0.0
30
0.0
70
128
71
64
72
447
73
1055
74
476
0
VERTEX
8
Meshes
62
250
10
0.0
20
0.0
30
0.0
70
128
71
64
72
476
73
1056
74
474
0
VERTEX
8
Meshes
62
250
10
0.0
20
0.0
30
0.0
70
128
71
65
72
479
73
992
74
348
0
VERTEX
8
Meshes
62
250
10
0.0
20
0.0
30
0.0
70
128
71
65
72
348
73
977
74
477
0
VERTEX
8
Meshes
62
250
10
0.0
20
0.0
30
0.0
70
128
71
65
72
477
73
1072
74
478
0
VERTEX
8
Meshes
62
250
10
0.0
20
0.0
30
0.0
70
128
71
65
72
478
73
1057
74
479
0
VERTEX
8
Meshes
62
250
10
0.0
20
0.0
30
0.0
70
128
71
66
72
481
73
991
74
347
0
VERTEX
8
Meshes
62
250
10
0.0
20
0.0
30
0.0
70
128
71
66
72
347
73
992
74
479
0
VERTEX
8
Meshes
62
250
10
0.0
20
0.0
30
0.0
70
128
71
66
72
479
73
1057
74
480
0
VERTEX
8
Meshes
62
250
10
0.0
20
0.0
30
0.0
70
128
71
66
72
480
73
1058
74
481
0
VERTEX
8
Meshes
62
250
10
0.0
20
0.0
30
0.0
70
128
71
67
72
483
73
990
74
346
0
VERTEX
8
Meshes
62
250
10
0.0
20
0.0
30
0.0
70
128
71
67
72
346
73
991
74
481
0
VERTEX
8
Meshes
62
250
10
0.0
20
0.0
30
0.0
70
128
71
67
72
481
73
1058
74
482
0
VERTEX
8
Meshes
62
250
10
0.0
20
0.0
30
0.0
70
128
71
67
72
482
73
1059
74
483
0
VERTEX
8
Meshes
62
250
10
0.0
20
0.0
30
0.0
70
128
71
68
72
485
73
989
74
345
0
VERTEX
8
Meshes
62
250
10
0.0
20
0.0
30
0.0
70
128
71
68
72
345
73
990
74
483
0
VERTEX
8
Meshes
62
250
10
0.0
20
0.0
30
0.0
70
128
71
68
72
483
73
1059
74
484
0
VERTEX
8
Meshes
62
250
10
0.0
20
0.0
30
0.0
70
128
71
68
72
484
73
1060
74
485
0
VERTEX
8
Meshes
62
250
10
0.0
20
0.0
30
0.0
70
128
71
69
72
487
73
988
74
344
0
VERTEX
8
Meshes
62
250
10
0.0
20
0.0
30
0.0
70
128
71
69
72
344
73
989
74
485
0
VERTEX
8
Meshes
62
250
10
0.0
20
0.0
30
0.0
70
128
71
69
72
485
73
1060
74
486
0
VERTEX
8
Meshes
62
250
10
0.0
20
0.0
30
0.0
70
128
71
69
72
486
73
1061
74
487
0
VERTEX
8
Meshes
62
250
10
0.0
20
0.0
30
0.0
70
128
71
70
72
489
73
987
74
343
0
VERTEX
8
Meshes
62
250
10
0.0
20
0.0
30
0.0
70
128
71
70
72
343
73
988
74
487
0
VERTEX
8
Meshes
62
250
10
0.0
20
0.0
30
0.0
70
128
71
70
72
487
73
1061
74
488
0
VERTEX
8
Meshes
62
250
10
0.0
20
0.0
30
0.0
70
128
71
70
72
488
73
1062
74
489
0
VERTEX
8
Meshes
62
250
10
0.0
20
0.0
30
0.0
70
128
71
71
72
491
73
986
74
342
0
VERTEX
8
Meshes
62
250
10
0.0
20
0.0
30
0.0
70
128
71
71
72
342
73
987
74
489
0
VERTEX
8
Meshes
62
250
10
0.0
20
0.0
30
0.0
70
128
71
71
72
489
73
1062
74
490
0
VERTEX
8
Meshes
62
250
10
0.0
20
0.0
30
0.0
70
128
71
71
72
490
73
1063
74
491
0
VERTEX
8
Meshes
62
250
10
0.0
20
0.0
30
0.0
70
128
71
72
72
493
73
985
74
341
0
VERTEX
8
Meshes
62
250
10
0.0
20
0.0
30
0.0
70
128
71
72
72
341
73
986
74
491
0
VERTEX
8
Meshes
62
250
10
0.0
20
0.0
30
0.0
70
128
71
72
72
491
73
1063
74
492
0
VERTEX
8
Meshes
62
250
10
0.0
20
0.0
30
0.0
70
128
71
72
72
492
73
1064
74
493
0
VERTEX
8
Meshes
62
250
10
0.0
20
0.0
30
0.0
70
128
71
73
72
495
73
984
74
340
0
VERTEX
8
Meshes
62
250
10
0.0
20
0.0
30
0.0
70
128
71
73
72
340
73
985
74
493
0
VERTEX
8
Meshes
62
250
10
0.0
20
0.0
30
0.0
70
128
71
73
72
493
73
1064
74
494
0
VERTEX
8
Meshes
62
250
10
0.0
20
0.0
30
0.0
70
128
71
73
72
494
73
1065
74
495
0
VERTEX
8
Meshes
62
250
10
0.0
20
0.0
30
0.0
70
128
71
74
72
497
73
983
74
339
0
VERTEX
8
Meshes
62
250
10
0.0
20
0.0
30
0.0
70
128
71
74
72
339
73
984
74
495
0
VERTEX
8
Meshes
62
250
10
0.0
20
0.0
30
0.0
70
128
71
74
72
495
73
1065
74
496
0
VERTEX
8
Meshes
62
250
10
0.0
20
0.0
30
0.0
70
128
71
74
72
496
73
1066
74
497
0
VERTEX
8
Meshes
62
250
10
0.0
20
0.0
30
0.0
70
128
71
75
72
499
73
982
74
338
0
VERTEX
8
Meshes
62
250
10
0.0
20
0.0
30
0.0
70
128
71
75
72
338
73
983
74
497
0
VERTEX
8
Meshes
62
250
10
0.0
20
0.0
30
0.0
70
128
71
75
72
497
73
1066
74
498
0
VERTEX
8
Meshes
62
250
10
0.0
20
0.0
30
0.0
70
128
71
75
72
498
73
1067
74
499
0
VERTEX
8
Meshes
62
250
10
0.0
20
0.0
30
0.0
70
128
71
76
72
501
73
981
74
337
0
VERTEX
8
Meshes
62
250
10
0.0
20
0.0
30
0.0
70
128
71
76
72
337
73
982
74
499
0
VERTEX
8
Meshes
62
250
10
0.0
20
0.0
30
0.0
70
128
71
76
72
499
73
1067
74
500
0
VERTEX
8
Meshes
62
250
10
0.0
20
0.0
30
0.0
70
128
71
76
72
500
73
1068
74
501
0
VERTEX
8
Meshes
62
250
10
0.0
20
0.0
30
0.0
70
128
71
77
72
503
73
980
74
336
0
VERTEX
8
Meshes
62
250
10
0.0
20
0.0
30
0.0
70
128
71
77
72
336
73
981
74
501
0
VERTEX
8
Meshes
62
250
10
0.0
20
0.0
30
0.0
70
128
71
77
72
501
73
1068
74
502
0
VERTEX
8
Meshes
62
250
10
0.0
20
0.0
30
0.0
70
128
71
77
72
502
73
1069
74
503
0
VERTEX
8
Meshes
62
250
10
0.0
20
0.0
30
0.0
70
128
71
78
72
505
73
979
74
335
0
VERTEX
8
Meshes
62
250
10
0.0
20
0.0
30
0.0
70
128
71
78
72
335
73
980
74
503
0
VERTEX
8
Meshes
62
250
10
0.0
20
0.0
30
0.0
70
128
71
78
72
503
73
1069
74
504
0
VERTEX
8
Meshes
62
250
10
0.0
20
0.0
30
0.0
70
128
71
78
72
504
73
1070
74
505
0
VERTEX
8
Meshes
62
250
10
0.0
20
0.0
30
0.0
70
128
71
79
72
507
73
978
74
334
0
VERTEX
8
Meshes
62
250
10
0.0
20
0.0
30
0.0
70
128
71
79
72
334
73
979
74
505
0
VERTEX
8
Meshes
62
250
10
0.0
20
0.0
30
0.0
70
128
71
79
72
505
73
1070
74
506
0
VERTEX
8
Meshes
62
250
10
0.0
20
0.0
30
0.0
70
128
71
79
72
506
73
1071
74
507
0
VERTEX
8
Meshes
62
250
10
0.0
20
0.0
30
0.0
70
128
71
80
72
477
73
977
74
333
0
VERTEX
8
Meshes
62
250
10
0.0
20
0.0
30
0.0
70
128
71
80
72
333
73
978
74
507
0
VERTEX
8
Meshes
62
250
10
0.0
20
0.0
30
0.0
70
128
71
80
72
507
73
1071
74
508
0
VERTEX
8
Meshes
62
250
10
0.0
20
0.0
30
0.0
70
128
71
80
72
508
73
1072
74
477
0
VERTEX
8
Meshes
62
250
10
0.0
20
0.0
30
0.0
70
128
71
81
72
511
73
1072
74
508
0
VERTEX
8
Meshes
62
250
10
0.0
20
0.0
30
0.0
70
128
71
81
72
508
73
1071
74
509
0
VERTEX
8
Meshes
62
250
10
0.0
20
0.0
30
0.0
70
128
71
81
72
509
73
1074
74
510
0
VERTEX
8
Meshes
62
250
10
0.0
20
0.0
30
0.0
70
128
71
81
72
510
73
1073
74
511
0
VERTEX
8
Meshes
62
250
10
0.0
20
0.0
30
0.0
70
128
71
82
72
509
73
1071
74
506
0
VERTEX
8
Meshes
62
250
10
0.0
20
0.0
30
0.0
70
128
71
82
72
506
73
1070
74
512
0
VERTEX
8
Meshes
62
250
10
0.0
20
0.0
30
0.0
70
128
71
82
72
512
73
1075
74
513
0
VERTEX
8
Meshes
62
250
10
0.0
20
0.0
30
0.0
70
128
71
82
72
513
73
1074
74
509
0
VERTEX
8
Meshes
62
250
10
0.0
20
0.0
30
0.0
70
128
71
83
72
512
73
1070
74
504
0
VERTEX
8
Meshes
62
250
10
0.0
20
0.0
30
0.0
70
128
71
83
72
504
73
1069
74
514
0
VERTEX
8
Meshes
62
250
10
0.0
20
0.0
30
0.0
70
128
71
83
72
514
73
1076
74
515
0
VERTEX
8
Meshes
62
250
10
0.0
20
0.0
30
0.0
70
128
71
83
72
515
73
1075
74
512
0
VERTEX
8
Meshes
62
250
10
0.0
20
0.0
30
0.0
70
128
71
84
72
514
73
1069
74
502
0
VERTEX
8
Meshes
62
250
10
0.0
20
0.0
30
0.0
70
128
71
84
72
502
73
1068
74
516
0
VERTEX
8
Meshes
62
250
10
0.0
20
0.0
30
0.0
70
128
71
84
72
516
73
1077
74
517
0
VERTEX
8
Meshes
62
250
10
0.0
20
0.0
30
0.0
70
128
71
84
72
517
73
1076
74
514
0
VERTEX
8
Meshes
62
250
10
0.0
20
0.0
30
0.0
70
128
71
85
72
516
73
1068
74
500
0
VERTEX
8
Meshes
62
250
10
0.0
20
0.0
30
0.0
70
128
71
85
72
500
73
1067
74
518
0
VERTEX
8
Meshes
62
250
10
0.0
20
0.0
30
0.0
70
128
71
85
72
518
73
1078
74
519
0
VERTEX
8
Meshes
62
250
10
0.0
20
0.0
30
0.0
70
128
71
85
72
519
73
1077
74
516
0
VERTEX
8
Meshes
62
250
10
0.0
20
0.0
30
0.0
70
128
71
86
72
518
73
1067
74
498
0
VERTEX
8
Meshes
62
250
10
0.0
20
0.0
30
0.0
70
128
71
86
72
498
73
1066
74
520
0
VERTEX
8
Meshes
62
250
10
0.0
20
0.0
30
0.0
70
128
71
86
72
520
73
1079
74
521
0
VERTEX
8
Meshes
62
250
10
0.0
20
0.0
30
0.0
70
128
71
86
72
521
73
1078
74
518
0
VERTEX
8
Meshes
62
250
10
0.0
20
0.0
30
0.0
70
128
71
87
72
520
73
1066
74
496
0
VERTEX
8
Meshes
62
250
10
0.0
20
0.0
30
0.0
70
128
71
87
72
496
73
1065
74
522
0
VERTEX
8
Meshes
62
250
10
0.0
20
0.0
30
0.0
70
128
71
87
72
522
73
1080
74
523
0
VERTEX
8
Meshes
62
250
10
0.0
20
0.0
30
0.0
70
128
71
87
72
523
73
1079
74
520
0
VERTEX
8
Meshes
62
250
10
0.0
20
0.0
30
0.0
70
128
71
88
72
522
73
1065
74
494
0
VERTEX
8
Meshes
62
250
10
0.0
20
0.0
30
0.0
70
128
71
88
72
494
73
1064
74
524
0
VERTEX
8
Meshes
62
250
10
0.0
20
0.0
30
0.0
70
128
71
88
72
524
73
1081
74
525
0
VERTEX
8
Meshes
62
250
10
0.0
20
0.0
30
0.0
70
128
71
88
72
525
73
1080
74
522
0
VERTEX
8
Meshes
62
250
10
0.0
20
0.0
30
0.0
70
128
71
89
72
524
73
1064
74
492
0
VERTEX
8
Meshes
62
250
10
0.0
20
0.0
30
0.0
70
128
71
89
72
492
73
1063
74
526
0
VERTEX
8
Meshes
62
250
10
0.0
20
0.0
30
0.0
70
128
71
89
72
526
73
1082
74
527
0
VERTEX
8
Meshes
62
250
10
0.0
20
0.0
30
0.0
70
128
71
89
72
527
73
1081
74
524
0
VERTEX
8
Meshes
62
250
10
0.0
20
0.0
30
0.0
70
128
71
90
72
526
73
1063
74
490
0
VERTEX
8
Meshes
62
250
10
0.0
20
0.0
30
0.0
70
128
71
90
72
490
73
1062
74
528
0
VERTEX
8
Meshes
62
250
10
0.0
20
0.0
30
0.0
70
128
71
90
72
528
73
1083
74
529
0
VERTEX
8
Meshes
62
250
10
0.0
20
0.0
30
0.0
70
128
71
90
72
529
73
1082
74
526
0
VERTEX
8
Meshes
62
250
10
0.0
20
0.0
30
0.0
70
128
71
91
72
528
73
1062
74
488
0
VERTEX
8
Meshes
62
250
10
0.0
20
0.0
30
0.0
70
128
71
91
72
488
73
1061
74
530
0
VERTEX
8
Meshes
62
250
10
0.0
20
0.0
30
0.0
70
128
71
91
72
530
73
1084
74
531
0
VERTEX
8
Meshes
62
250
10
0.0
20
0.0
30
0.0
70
128
71
91
72
531
73
1083
74
528
0
VERTEX
8
Meshes
62
250
10
0.0
20
0.0
30
0.0
70
128
71
92
72
530
73
1061
74
486
0
VERTEX
8
Meshes
62
250
10
0.0
20
0.0
30
0.0
70
128
71
92
72
486
73
1060
74
532
0
VERTEX
8
Meshes
62
250
10
0.0
20
0.0
30
0.0
70
128
71
92
72
532
73
1085
74
533
0
VERTEX
8
Meshes
62
250
10
0.0
20
0.0
30
0.0
70
128
71
92
72
533
73
1084
74
530
0
VERTEX
8
Meshes
62
250
10
0.0
20
0.0
30
0.0
70
128
71
93
72
532
73
1060
74
484
0
VERTEX
8
Meshes
62
250
10
0.0
20
0.0
30
0.0
70
128
71
93
72
484
73
1059
74
534
0
VERTEX
8
Meshes
62
250
10
0.0
20
0.0
30
0.0
70
128
71
93
72
534
73
1086
74
535
0
VERTEX
8
Meshes
62
250
10
0.0
20
0.0
30
0.0
70
128
71
93
72
535
73
1085
74
532
0
VERTEX
8
Meshes
62
250
10
0.0
20
0.0
30
0.0
70
128
71
94
72
534
73
1059
74
482
0
VERTEX
8
Meshes
62
250
10
0.0
20
0.0
30
0.0
70
128
71
94
72
482
73
1058
74
536
0
VERTEX
8
Meshes
62
250
10
0.0
20
0.0
30
0.0
70
128
71
94
72
536
73
1087
74
537
0
VERTEX
8
Meshes
62
250
10
0.0
20
0.0
30
0.0
70
128
71
94
72
537
73
1086
74
534
0
VERTEX
8
Meshes
62
250
10
0.0
20
0.0
30
0.0
70
128
71
95
72
536
73
1058
74
480
0
VERTEX
8
Meshes
62
250
10
0.0
20
0.0
30
0.0
70
128
71
95
72
480
73
1057
74
538
0
VERTEX
8
Meshes
62
250
10
0.0
20
0.0
30
0.0
70
128
71
95
72
538
73
1088
74
539
0
VERTEX
8
Meshes
62
250
10
0.0
20
0.0
30
0.0
70
128
71
95
72
539
73
1087
74
536
0
VERTEX
8
Meshes
62
250
10
0.0
20
0.0
30
0.0
70
128
71
96
72
538
73
1057
74
478
0
VERTEX
8
Meshes
62
250
10
0.0
20
0.0
30
0.0
70
128
71
96
72
478
73
1072
74
511
0
VERTEX
8
Meshes
62
250
10
0.0
20
0.0
30
0.0
70
128
71
96
72
511
73
1073
74
540
0
VERTEX
8
Meshes
62
250
10
0.0
20
0.0
30
0.0
70
128
71
96
72
540
73
1088
74
538
0
VERTEX
8
Meshes
62
250
10
0.0
20
0.0
30
0.0
70
128
71
97
72
543
73
1056
74
476
0
VERTEX
8
Meshes
62
250
10
0.0
20
0.0
30
0.0
70
128
71
97
72
476
73
1055
74
541
0
VERTEX
8
Meshes
62
250
10
0.0
20
0.0
30
0.0
70
128
71
97
72
541
73
1090
74
542
0
VERTEX
8
Meshes
62
250
10
0.0
20
0.0
30
0.0
70
128
71
97
72
542
73
1089
74
543
0
VERTEX
8
Meshes
62
250
10
0.0
20
0.0
30
0.0
70
128
71
98
72
545
73
1054
74
475
0
VERTEX
8
Meshes
62
250
10
0.0
20
0.0
30
0.0
70
128
71
98
72
475
73
1056
74
543
0
VERTEX
8
Meshes
62
250
10
0.0
20
0.0
30
0.0
70
128
71
98
72
543
73
1089
74
544
0
VERTEX
8
Meshes
62
250
10
0.0
20
0.0
30
0.0
70
128
71
98
72
544
73
1091
74
545
0
VERTEX
8
Meshes
62
250
10
0.0
20
0.0
30
0.0
70
128
71
99
72
547
73
1053
74
473
0
VERTEX
8
Meshes
62
250
10
0.0
20
0.0
30
0.0
70
128
71
99
72
473
73
1054
74
545
0
VERTEX
8
Meshes
62
250
10
0.0
20
0.0
30
0.0
70
128
71
99
72
545
73
1091
74
546
0
VERTEX
8
Meshes
62
250
10
0.0
20
0.0
30
0.0
70
128
71
99
72
546
73
1092
74
547
0
VERTEX
8
Meshes
62
250
10
0.0
20
0.0
30
0.0
70
128
71
100
72
549
73
1052
74
471
0
VERTEX
8
Meshes
62
250
10
0.0
20
0.0
30
0.0
70
128
71
100
72
471
73
1053
74
547
0
VERTEX
8
Meshes
62
250
10
0.0
20
0.0
30
0.0
70
128
71
100
72
547
73
1092
74
548
0
VERTEX
8
Meshes
62
250
10
0.0
20
0.0
30
0.0
70
128
71
100
72
548
73
1093
74
549
0
VERTEX
8
Meshes
62
250
10
0.0
20
0.0
30
0.0
70
128
71
101
72
551
73
1051
74
469
0
VERTEX
8
Meshes
62
250
10
0.0
20
0.0
30
0.0
70
128
71
101
72
469
73
1052
74
549
0
VERTEX
8
Meshes
62
250
10
0.0
20
0.0
30
0.0
70
128
71
101
72
549
73
1093
74
550
0
VERTEX
8
Meshes
62
250
10
0.0
20
0.0
30
0.0
70
128
71
101
72
550
73
1094
74
551
0
VERTEX
8
Meshes
62
250
10
0.0
20
0.0
30
0.0
70
128
71
102
72
553
73
1050
74
467
0
VERTEX
8
Meshes
62
250
10
0.0
20
0.0
30
0.0
70
128
71
102
72
467
73
1051
74
551
0
VERTEX
8
Meshes
62
250
10
0.0
20
0.0
30
0.0
70
128
71
102
72
551
73
1094
74
552
0
VERTEX
8
Meshes
62
250
10
0.0
20
0.0
30
0.0
70
128
71
102
72
552
73
1095
74
553
0
VERTEX
8
Meshes
62
250
10
0.0
20
0.0
30
0.0
70
128
71
103
72
555
73
1049
74
465
0
VERTEX
8
Meshes
62
250
10
0.0
20
0.0
30
0.0
70
128
71
103
72
465
73
1050
74
553
0
VERTEX
8
Meshes
62
250
10
0.0
20
0.0
30
0.0
70
128
71
103
72
553
73
1095
74
554
0
VERTEX
8
Meshes
62
250
10
0.0
20
0.0
30
0.0
70
128
71
103
72
554
73
1096
74
555
0
VERTEX
8
Meshes
62
250
10
0.0
20
0.0
30
0.0
70
128
71
104
72
557
73
1048
74
463
0
VERTEX
8
Meshes
62
250
10
0.0
20
0.0
30
0.0
70
128
71
104
72
463
73
1049
74
555
0
VERTEX
8
Meshes
62
250
10
0.0
20
0.0
30
0.0
70
128
71
104
72
555
73
1096
74
556
0
VERTEX
8
Meshes
62
250
10
0.0
20
0.0
30
0.0
70
128
71
104
72
556
73
1097
74
557
0
VERTEX
8
Meshes
62
250
10
0.0
20
0.0
30
0.0
70
128
71
105
72
559
73
1047
74
461
0
VERTEX
8
Meshes
62
250
10
0.0
20
0.0
30
0.0
70
128
71
105
72
461
73
1048
74
557
0
VERTEX
8
Meshes
62
250
10
0.0
20
0.0
30
0.0
70
128
71
105
72
557
73
1097
74
558
0
VERTEX
8
Meshes
62
250
10
0.0
20
0.0
30
0.0
70
128
71
105
72
558
73
1098
74
559
0
VERTEX
8
Meshes
62
250
10
0.0
20
0.0
30
0.0
70
128
71
106
72
561
73
1046
74
459
0
VERTEX
8
Meshes
62
250
10
0.0
20
0.0
30
0.0
70
128
71
106
72
459
73
1047
74
559
0
VERTEX
8
Meshes
62
250
10
0.0
20
0.0
30
0.0
70
128
71
106
72
559
73
1098
74
560
0
VERTEX
8
Meshes
62
250
10
0.0
20
0.0
30
0.0
70
128
71
106
72
560
73
1099
74
561
0
VERTEX
8
Meshes
62
250
10
0.0
20
0.0
30
0.0
70
128
71
107
72
563
73
1045
74
457
0
VERTEX
8
Meshes
62
250
10
0.0
20
0.0
30
0.0
70
128
71
107
72
457
73
1046
74
561
0
VERTEX
8
Meshes
62
250
10
0.0
20
0.0
30
0.0
70
128
71
107
72
561
73
1099
74
562
0
VERTEX
8
Meshes
62
250
10
0.0
20
0.0
30
0.0
70
128
71
107
72
562
73
1100
74
563
0
VERTEX
8
Meshes
62
250
10
0.0
20
0.0
30
0.0
70
128
71
108
72
565
73
1044
74
455
0
VERTEX
8
Meshes
62
250
10
0.0
20
0.0
30
0.0
70
128
71
108
72
455
73
1045
74
563
0
VERTEX
8
Meshes
62
250
10
0.0
20
0.0
30
0.0
70
128
71
108
72
563
73
1100
74
564
0
VERTEX
8
Meshes
62
250
10
0.0
20
0.0
30
0.0
70
128
71
108
72
564
73
1101
74
565
0
VERTEX
8
Meshes
62
250
10
0.0
20
0.0
30
0.0
70
128
71
109
72
567
73
1043
74
453
0
VERTEX
8
Meshes
62
250
10
0.0
20
0.0
30
0.0
70
128
71
109
72
453
73
1044
74
565
0
VERTEX
8
Meshes
62
250
10
0.0
20
0.0
30
0.0
70
128
71
109
72
565
73
1101
74
566
0
VERTEX
8
Meshes
62
250
10
0.0
20
0.0
30
0.0
70
128
71
109
72
566
73
1102
74
567
0
VERTEX
8
Meshes
62
250
10
0.0
20
0.0
30
0.0
70
128
71
110
72
569
73
1042
74
451
0
VERTEX
8
Meshes
62
250
10
0.0
20
0.0
30
0.0
70
128
71
110
72
451
73
1043
74
567
0
VERTEX
8
Meshes
62
250
10
0.0
20
0.0
30
0.0
70
128
71
110
72
567
73
1102
74
568
0
VERTEX
8
Meshes
62
250
10
0.0
20
0.0
30
0.0
70
128
71
110
72
568
73
1103
74
569
0
VERTEX
8
Meshes
62
250
10
0.0
20
0.0
30
0.0
70
128
71
111
72
571
73
1041
74
449
0
VERTEX
8
Meshes
62
250
10
0.0
20
0.0
30
0.0
70
128
71
111
72
449
73
1042
74
569
0
VERTEX
8
Meshes
62
250
10
0.0
20
0.0
30
0.0
70
128
71
111
72
569
73
1103
74
570
0
VERTEX
8
Meshes
62
250
10
0.0
20
0.0
30
0.0
70
128
71
111
72
570
73
1104
74
571
0
VERTEX
8
Meshes
62
250
10
0.0
20
0.0
30
0.0
70
128
71
112
72
541
73
1055
74
446
0
VERTEX
8
Meshes
62
250
10
0.0
20
0.0
30
0.0
70
128
71
112
72
446
73
1041
74
571
0
VERTEX
8
Meshes
62
250
10
0.0
20
0.0
30
0.0
70
128
71
112
72
571
73
1104
74
572
0
VERTEX
8
Meshes
62
250
10
0.0
20
0.0
30
0.0
70
128
71
112
72
572
73
1090
74
541
0
VERTEX
8
Meshes
62
250
10
0.0
20
0.0
30
0.0
70
128
71
113
72
575
73
1090
74
572
0
VERTEX
8
Meshes
62
250
10
0.0
20
0.0
30
0.0
70
128
71
113
72
572
73
1104
74
573
0
VERTEX
8
Meshes
62
250
10
0.0
20
0.0
30
0.0
70
128
71
113
72
573
73
1137
74
574
0
VERTEX
8
Meshes
62
250
10
0.0
20
0.0
30
0.0
70
128
71
113
72
574
73
1151
74
575
0
VERTEX
8
Meshes
62
250
10
0.0
20
0.0
30
0.0
70
128
71
114
72
573
73
1104
74
570
0
VERTEX
8
Meshes
62
250
10
0.0
20
0.0
30
0.0
70
128
71
114
72
570
73
1103
74
576
0
VERTEX
8
Meshes
62
250
10
0.0
20
0.0
30
0.0
70
128
71
114
72
576
73
1138
74
577
0
VERTEX
8
Meshes
62
250
10
0.0
20
0.0
30
0.0
70
128
71
114
72
577
73
1137
74
573
0
VERTEX
8
Meshes
62
250
10
0.0
20
0.0
30
0.0
70
128
71
115
72
576
73
1103
74
568
0
VERTEX
8
Meshes
62
250
10
0.0
20
0.0
30
0.0
70
128
71
115
72
568
73
1102
74
578
0
VERTEX
8
Meshes
62
250
10
0.0
20
0.0
30
0.0
70
128
71
115
72
578
73
1139
74
579
0
VERTEX
8
Meshes
62
250
10
0.0
20
0.0
30
0.0
70
128
71
115
72
579
73
1138
74
576
0
VERTEX
8
Meshes
62
250
10
0.0
20
0.0
30
0.0
70
128
71
116
72
578
73
1102
74
566
0
VERTEX
8
Meshes
62
250
10
0.0
20
0.0
30
0.0
70
128
71
116
72
566
73
1101
74
580
0
VERTEX
8
Meshes
62
250
10
0.0
20
0.0
30
0.0
70
128
71
116
72
580
73
1140
74
581
0
VERTEX
8
Meshes
62
250
10
0.0
20
0.0
30
0.0
70
128
71
116
72
581
73
1139
74
578
0
VERTEX
8
Meshes
62
250
10
0.0
20
0.0
30
0.0
70
128
71
117
72
580
73
1101
74
564
0
VERTEX
8
Meshes
62
250
10
0.0
20
0.0
30
0.0
70
128
71
117
72
564
73
1100
74
582
0
VERTEX
8
Meshes
62
250
10
0.0
20
0.0
30
0.0
70
128
71
117
72
582
73
1141
74
583
0
VERTEX
8
Meshes
62
250
10
0.0
20
0.0
30
0.0
70
128
71
117
72
583
73
1140
74
580
0
VERTEX
8
Meshes
62
250
10
0.0
20
0.0
30
0.0
70
128
71
118
72
582
73
1100
74
562
0
VERTEX
8
Meshes
62
250
10
0.0
20
0.0
30
0.0
70
128
71
118
72
562
73
1099
74
584
0
VERTEX
8
Meshes
62
250
10
0.0
20
0.0
30
0.0
70
128
71
118
72
584
73
1142
74
585
0
VERTEX
8
Meshes
62
250
10
0.0
20
0.0
30
0.0
70
128
71
118
72
585
73
1141
74
582
0
VERTEX
8
Meshes
62
250
10
0.0
20
0.0
30
0.0
70
128
71
119
72
584
73
1099
74
560
0
VERTEX
8
Meshes
62
250
10
0.0
20
0.0
30
0.0
70
128
71
119
72
560
73
1098
74
586
0
VERTEX
8
Meshes
62
250
10
0.0
20
0.0
30
0.0
70
128
71
119
72
586
73
1143
74
587
0
VERTEX
8
Meshes
62
250
10
0.0
20
0.0
30
0.0
70
128
71
119
72
587
73
1142
74
584
0
VERTEX
8
Meshes
62
250
10
0.0
20
0.0
30
0.0
70
128
71
120
72
586
73
1098
74
558
0
VERTEX
8
Meshes
62
250
10
0.0
20
0.0
30
0.0
70
128
71
120
72
558
73
1097
74
588
0
VERTEX
8
Meshes
62
250
10
0.0
20
0.0
30
0.0
70
128
71
120
72
588
73
1144
74
589
0
VERTEX
8
Meshes
62
250
10
0.0
20
0.0
30
0.0
70
128
71
120
72
589
73
1143
74
586
0
VERTEX
8
Meshes
62
250
10
0.0
20
0.0
30
0.0
70
128
71
121
72
588
73
1097
74
556
0
VERTEX
8
Meshes
62
250
10
0.0
20
0.0
30
0.0
70
128
71
121
72
556
73
1096
74
590
0
VERTEX
8
Meshes
62
250
10
0.0
20
0.0
30
0.0
70
128
71
121
72
590
73
1145
74
591
0
VERTEX
8
Meshes
62
250
10
0.0
20
0.0
30
0.0
70
128
71
121
72
591
73
1144
74
588
0
VERTEX
8
Meshes
62
250
10
0.0
20
0.0
30
0.0
70
128
71
122
72
590
73
1096
74
554
0
VERTEX
8
Meshes
62
250
10
0.0
20
0.0
30
0.0
70
128
71
122
72
554
73
1095
74
592
0
VERTEX
8
Meshes
62
250
10
0.0
20
0.0
30
0.0
70
128
71
122
72
592
73
1146
74
593
0
VERTEX
8
Meshes
62
250
10
0.0
20
0.0
30
0.0
70
128
71
122
72
593
73
1145
74
590
0
VERTEX
8
Meshes
62
250
10
0.0
20
0.0
30
0.0
70
128
71
123
72
592
73
1095
74
552
0
VERTEX
8
Meshes
62
250
10
0.0
20
0.0
30
0.0
70
128
71
123
72
552
73
1094
74
594
0
VERTEX
8
Meshes
62
250
10
0.0
20
0.0
30
0.0
70
128
71
123
72
594
73
1147
74
595
0
VERTEX
8
Meshes
62
250
10
0.0
20
0.0
30
0.0
70
128
71
123
72
595
73
1146
74
592
0
VERTEX
8
Meshes
62
250
10
0.0
20
0.0
30
0.0
70
128
71
124
72
594
73
1094
74
550
0
VERTEX
8
Meshes
62
250
10
0.0
20
0.0
30
0.0
70
128
71
124
72
550
73
1093
74
596
0
VERTEX
8
Meshes
62
250
10
0.0
20
0.0
30
0.0
70
128
71
124
72
596
73
1148
74
597
0
VERTEX
8
Meshes
62
250
10
0.0
20
0.0
30
0.0
70
128
71
124
72
597
73
1147
74
594
0
VERTEX
8
Meshes
62
250
10
0.0
20
0.0
30
0.0
70
128
71
125
72
596
73
1093
74
548
0
VERTEX
8
Meshes
62
250
10
0.0
20
0.0
30
0.0
70
128
71
125
72
548
73
1092
74
598
0
VERTEX
8
Meshes
62
250
10
0.0
20
0.0
30
0.0
70
128
71
125
72
598
73
1149
74
599
0
VERTEX
8
Meshes
62
250
10
0.0
20
0.0
30
0.0
70
128
71
125
72
599
73
1148
74
596
0
VERTEX
8
Meshes
62
250
10
0.0
20
0.0
30
0.0
70
128
71
126
72
598
73
1092
74
546
0
VERTEX
8
Meshes
62
250
10
0.0
20
0.0
30
0.0
70
128
71
126
72
546
73
1091
74
600
0
VERTEX
8
Meshes
62
250
10
0.0
20
0.0
30
0.0
70
128
71
126
72
600
73
1150
74
601
0
VERTEX
8
Meshes
62
250
10
0.0
20
0.0
30
0.0
70
128
71
126
72
601
73
1149
74
598
0
VERTEX
8
Meshes
62
250
10
0.0
20
0.0
30
0.0
70
128
71
127
72
600
73
1091
74
544
0
VERTEX
8
Meshes
62
250
10
0.0
20
0.0
30
0.0
70
128
71
127
72
544
73
1089
74
602
0
VERTEX
8
Meshes
62
250
10
0.0
20
0.0
30
0.0
70
128
71
127
72
602
73
1152
74
603
0
VERTEX
8
Meshes
62
250
10
0.0
20
0.0
30
0.0
70
128
71
127
72
603
73
1150
74
600
0
VERTEX
8
Meshes
62
250
10
0.0
20
0.0
30
0.0
70
128
71
128
72
602
73
1089
74
542
0
VERTEX
8
Meshes
62
250
10
0.0
20
0.0
30
0.0
70
128
71
128
72
542
73
1090
74
575
0
VERTEX
8
Meshes
62
250
10
0.0
20
0.0
30
0.0
70
128
71
128
72
575
73
1151
74
604
0
VERTEX
8
Meshes
62
250
10
0.0
20
0.0
30
0.0
70
128
71
128
72
604
73
1152
74
602
0
VERTEX
8
Meshes
62
250
10
0.0
20
0.0
30
0.0
70
128
71
129
72
607
73
1088
74
540
0
VERTEX
8
Meshes
62
250
10
0.0
20
0.0
30
0.0
70
128
71
129
72
540
73
1073
74
605
0
VERTEX
8
Meshes
62
250
10
0.0
20
0.0
30
0.0
70
128
71
129
72
605
73
1168
74
606
0
VERTEX
8
Meshes
62
250
10
0.0
20
0.0
30
0.0
70
128
71
129
72
606
73
1153
74
607
0
VERTEX
8
Meshes
62
250
10
0.0
20
0.0
30
0.0
70
128
71
130
72
609
73
1087
74
539
0
VERTEX
8
Meshes
62
250
10
0.0
20
0.0
30
0.0
70
128
71
130
72
539
73
1088
74
607
0
VERTEX
8
Meshes
62
250
10
0.0
20
0.0
30
0.0
70
128
71
130
72
607
73
1153
74
608
0
VERTEX
8
Meshes
62
250
10
0.0
20
0.0
30
0.0
70
128
71
130
72
608
73
1154
74
609
0
VERTEX
8
Meshes
62
250
10
0.0
20
0.0
30
0.0
70
128
71
131
72
611
73
1086
74
537
0
VERTEX
8
Meshes
62
250
10
0.0
20
0.0
30
0.0
70
128
71
131
72
537
73
1087
74
609
0
VERTEX
8
Meshes
62
250
10
0.0
20
0.0
30
0.0
70
128
71
131
72
609
73
1154
74
610
0
VERTEX
8
Meshes
62
250
10
0.0
20
0.0
30
0.0
70
128
71
131
72
610
73
1155
74
611
0
VERTEX
8
Meshes
62
250
10
0.0
20
0.0
30
0.0
70
128
71
132
72
613
73
1085
74
535
0
VERTEX
8
Meshes
62
250
10
0.0
20
0.0
30
0.0
70
128
71
132
72
535
73
1086
74
611
0
VERTEX
8
Meshes
62
250
10
0.0
20
0.0
30
0.0
70
128
71
132
72
611
73
1155
74
612
0
VERTEX
8
Meshes
62
250
10
0.0
20
0.0
30
0.0
70
128
71
132
72
612
73
1156
74
613
0
VERTEX
8
Meshes
62
250
10
0.0
20
0.0
30
0.0
70
128
71
133
72
615
73
1084
74
533
0
VERTEX
8
Meshes
62
250
10
0.0
20
0.0
30
0.0
70
128
71
133
72
533
73
1085
74
613
0
VERTEX
8
Meshes
62
250
10
0.0
20
0.0
30
0.0
70
128
71
133
72
613
73
1156
74
614
0
VERTEX
8
Meshes
62
250
10
0.0
20
0.0
30
0.0
70
128
71
133
72
614
73
1157
74
615
0
VERTEX
8
Meshes
62
250
10
0.0
20
0.0
30
0.0
70
128
71
134
72
617
73
1083
74
531
0
VERTEX
8
Meshes
62
250
10
0.0
20
0.0
30
0.0
70
128
71
134
72
531
73
1084
74
615
0
VERTEX
8
Meshes
62
250
10
0.0
20
0.0
30
0.0
70
128
71
134
72
615
73
1157
74
616
0
VERTEX
8
Meshes
62
250
10
0.0
20
0.0
30
0.0
70
128
71
134
72
616
73
1158
74
617
0
VERTEX
8
Meshes
62
250
10
0.0
20
0.0
30
0.0
70
128
71
135
72
619
73
1082
74
529
0
VERTEX
8
Meshes
62
250
10
0.0
20
0.0
30
0.0
70
128
71
135
72
529
73
1083
74
617
0
VERTEX
8
Meshes
62
250
10
0.0
20
0.0
30
0.0
70
128
71
135
72
617
73
1158
74
618
0
VERTEX
8
Meshes
62
250
10
0.0
20
0.0
30
0.0
70
128
71
135
72
618
73
1159
74
619
0
VERTEX
8
Meshes
62
250
10
0.0
20
0.0
30
0.0
70
128
71
136
72
621
73
1081
74
527
0
VERTEX
8
Meshes
62
250
10
0.0
20
0.0
30
0.0
70
128
71
136
72
527
73
1082
74
619
0
VERTEX
8
Meshes
62
250
10
0.0
20
0.0
30
0.0
70
128
71
136
72
619
73
1159
74
620
0
VERTEX
8
Meshes
62
250
10
0.0
20
0.0
30
0.0
70
128
71
136
72
620
73
1160
74
621
0
VERTEX
8
Meshes
62
250
10
0.0
20
0.0
30
0.0
70
128
71
137
72
623
73
1080
74
525
0
VERTEX
8
Meshes
62
250
10
0.0
20
0.0
30
0.0
70
128
71
137
72
525
73
1081
74
621
0
VERTEX
8
Meshes
62
250
10
0.0
20
0.0
30
0.0
70
128
71
137
72
621
73
1160
74
622
0
VERTEX
8
Meshes
62
250
10
0.0
20
0.0
30
0.0
70
128
71
137
72
622
73
1161
74
623
0
VERTEX
8
Meshes
62
250
10
0.0
20
0.0
30
0.0
70
128
71
138
72
625
73
1079
74
523
0
VERTEX
8
Meshes
62
250
10
0.0
20
0.0
30
0.0
70
128
71
138
72
523
73
1080
74
623
0
VERTEX
8
Meshes
62
250
10
0.0
20
0.0
30
0.0
70
128
71
138
72
623
73
1161
74
624
0
VERTEX
8
Meshes
62
250
10
0.0
20
0.0
30
0.0
70
128
71
138
72
624
73
1162
74
625
0
VERTEX
8
Meshes
62
250
10
0.0
20
0.0
30
0.0
70
128
71
139
72
627
73
1078
74
521
0
VERTEX
8
Meshes
62
250
10
0.0
20
0.0
30
0.0
70
128
71
139
72
521
73
1079
74
625
0
VERTEX
8
Meshes
62
250
10
0.0
20
0.0
30
0.0
70
128
71
139
72
625
73
1162
74
626
0
VERTEX
8
Meshes
62
250
10
0.0
20
0.0
30
0.0
70
128
71
139
72
626
73
1163
74
627
0
VERTEX
8
Meshes
62
250
10
0.0
20
0.0
30
0.0
70
128
71
140
72
629
73
1077
74
519
0
VERTEX
8
Meshes
62
250
10
0.0
20
0.0
30
0.0
70
128
71
140
72
519
73
1078
74
627
0
VERTEX
8
Meshes
62
250
10
0.0
20
0.0
30
0.0
70
128
71
140
72
627
73
1163
74
628
0
VERTEX
8
Meshes
62
250
10
0.0
20
0.0
30
0.0
70
128
71
140
72
628
73
1164
74
629
0
VERTEX
8
Meshes
62
250
10
0.0
20
0.0
30
0.0
70
128
71
141
72
631
73
1076
74
517
0
VERTEX
8
Meshes
62
250
10
0.0
20
0.0
30
0.0
70
128
71
141
72
517
73
1077
74
629
0
VERTEX
8
Meshes
62
250
10
0.0
20
0.0
30
0.0
70
128
71
141
72
629
73
1164
74
630
0
VERTEX
8
Meshes
62
250
10
0.0
20
0.0
30
0.0
70
128
71
141
72
630
73
1165
74
631
0
VERTEX
8
Meshes
62
250
10
0.0
20
0.0
30
0.0
70
128
71
142
72
633
73
1075
74
515
0
VERTEX
8
Meshes
62
250
10
0.0
20
0.0
30
0.0
70
128
71
142
72
515
73
1076
74
631
0
VERTEX
8
Meshes
62
250
10
0.0
20
0.0
30
0.0
70
128
71
142
72
631
73
1165
74
632
0
VERTEX
8
Meshes
62
250
10
0.0
20
0.0
30
0.0
70
128
71
142
72
632
73
1166
74
633
0
VERTEX
8
Meshes
62
250
10
0.0
20
0.0
30
0.0
70
128
71
143
72
635
73
1074
74
513
0
VERTEX
8
Meshes
62
250
10
0.0
20
0.0
30
0.0
70
128
71
143
72
513
73
1075
74
633
0
VERTEX
8
Meshes
62
250
10
0.0
20
0.0
30
0.0
70
128
71
143
72
633
73
1166
74
634
0
VERTEX
8
Meshes
62
250
10
0.0
20
0.0
30
0.0
70
128
71
143
72
634
73
1167
74
635
0
VERTEX
8
Meshes
62
250
10
0.0
20
0.0
30
0.0
70
128
71
144
72
605
73
1073
74
510
0
VERTEX
8
Meshes
62
250
10
0.0
20
0.0
30
0.0
70
128
71
144
72
510
73
1074
74
635
0
VERTEX
8
Meshes
62
250
10
0.0
20
0.0
30
0.0
70
128
71
144
72
635
73
1167
74
636
0
VERTEX
8
Meshes
62
250
10
0.0
20
0.0
30
0.0
70
128
71
144
72
636
73
1168
74
605
0
VERTEX
8
Meshes
62
250
10
0.0
20
0.0
30
0.0
70
128
71
145
72
639
73
1152
74
604
0
VERTEX
8
Meshes
62
250
10
0.0
20
0.0
30
0.0
70
128
71
145
72
604
73
1151
74
637
0
VERTEX
8
Meshes
62
250
10
0.0
20
0.0
30
0.0
70
128
71
145
72
637
73
1136
74
638
0
VERTEX
8
Meshes
62
250
10
0.0
20
0.0
30
0.0
70
128
71
145
72
638
73
1135
74
639
0
VERTEX
8
Meshes
62
250
10
0.0
20
0.0
30
0.0
70
128
71
146
72
641
73
1150
74
603
0
VERTEX
8
Meshes
62
250
10
0.0
20
0.0
30
0.0
70
128
71
146
72
603
73
1152
74
639
0
VERTEX
8
Meshes
62
250
10
0.0
20
0.0
30
0.0
70
128
71
146
72
639
73
1135
74
640
0
VERTEX
8
Meshes
62
250
10
0.0
20
0.0
30
0.0
70
128
71
146
72
640
73
1134
74
641
0
VERTEX
8
Meshes
62
250
10
0.0
20
0.0
30
0.0
70
128
71
147
72
643
73
1149
74
601
0
VERTEX
8
Meshes
62
250
10
0.0
20
0.0
30
0.0
70
128
71
147
72
601
73
1150
74
641
0
VERTEX
8
Meshes
62
250
10
0.0
20
0.0
30
0.0
70
128
71
147
72
641
73
1134
74
642
0
VERTEX
8
Meshes
62
250
10
0.0
20
0.0
30
0.0
70
128
71
147
72
642
73
1133
74
643
0
VERTEX
8
Meshes
62
250
10
0.0
20
0.0
30
0.0
70
128
71
148
72
645
73
1148
74
599
0
VERTEX
8
Meshes
62
250
10
0.0
20
0.0
30
0.0
70
128
71
148
72
599
73
1149
74
643
0
VERTEX
8
Meshes
62
250
10
0.0
20
0.0
30
0.0
70
128
71
148
72
643
73
1133
74
644
0
VERTEX
8
Meshes
62
250
10
0.0
20
0.0
30
0.0
70
128
71
148
72
644
73
1132
74
645
0
VERTEX
8
Meshes
62
250
10
0.0
20
0.0
30
0.0
70
128
71
149
72
647
73
1147
74
597
0
VERTEX
8
Meshes
62
250
10
0.0
20
0.0
30
0.0
70
128
71
149
72
597
73
1148
74
645
0
VERTEX
8
Meshes
62
250
10
0.0
20
0.0
30
0.0
70
128
71
149
72
645
73
1132
74
646
0
VERTEX
8
Meshes
62
250
10
0.0
20
0.0
30
0.0
70
128
71
149
72
646
73
1131
74
647
0
VERTEX
8
Meshes
62
250
10
0.0
20
0.0
30
0.0
70
128
71
150
72
649
73
1146
74
595
0
VERTEX
8
Meshes
62
250
10
0.0
20
0.0
30
0.0
70
128
71
150
72
595
73
1147
74
647
0
VERTEX
8
Meshes
62
250
10
0.0
20
0.0
30
0.0
70
128
71
150
72
647
73
1131
74
648
0
VERTEX
8
Meshes
62
250
10
0.0
20
0.0
30
0.0
70
128
71
150
72
648
73
1130
74
649
0
VERTEX
8
Meshes
62
250
10
0.0
20
0.0
30
0.0
70
128
71
151
72
651
73
1145
74
593
0
VERTEX
8
Meshes
62
250
10
0.0
20
0.0
30
0.0
70
128
71
151
72
593
73
1146
74
649
0
VERTEX
8
Meshes
62
250
10
0.0
20
0.0
30
0.0
70
128
71
151
72
649
73
1130
74
650
0
VERTEX
8
Meshes
62
250
10
0.0
20
0.0
30
0.0
70
128
71
151
72
650
73
1129
74
651
0
VERTEX
8
Meshes
62
250
10
0.0
20
0.0
30
0.0
70
128
71
152
72
653
73
1144
74
591
0
VERTEX
8
Meshes
62
250
10
0.0
20
0.0
30
0.0
70
128
71
152
72
591
73
1145
74
651
0
VERTEX
8
Meshes
62
250
10
0.0
20
0.0
30
0.0
70
128
71
152
72
651
73
1129
74
652
0
VERTEX
8
Meshes
62
250
10
0.0
20
0.0
30
0.0
70
128
71
152
72
652
73
1128
74
653
0
VERTEX
8
Meshes
62
250
10
0.0
20
0.0
30
0.0
70
128
71
153
72
655
73
1143
74
589
0
VERTEX
8
Meshes
62
250
10
0.0
20
0.0
30
0.0
70
128
71
153
72
589
73
1144
74
653
0
VERTEX
8
Meshes
62
250
10
0.0
20
0.0
30
0.0
70
128
71
153
72
653
73
1128
74
654
0
VERTEX
8
Meshes
62
250
10
0.0
20
0.0
30
0.0
70
128
71
153
72
654
73
1127
74
655
0
VERTEX
8
Meshes
62
250
10
0.0
20
0.0
30
0.0
70
128
71
154
72
657
73
1142
74
587
0
VERTEX
8
Meshes
62
250
10
0.0
20
0.0
30
0.0
70
128
71
154
72
587
73
1143
74
655
0
VERTEX
8
Meshes
62
250
10
0.0
20
0.0
30
0.0
70
128
71
154
72
655
73
1127
74
656
0
VERTEX
8
Meshes
62
250
10
0.0
20
0.0
30
0.0
70
128
71
154
72
656
73
1126
74
657
0
VERTEX
8
Meshes
62
250
10
0.0
20
0.0
30
0.0
70
128
71
155
72
659
73
1141
74
585
0
VERTEX
8
Meshes
62
250
10
0.0
20
0.0
30
0.0
70
128
71
155
72
585
73
1142
74
657
0
VERTEX
8
Meshes
62
250
10
0.0
20
0.0
30
0.0
70
128
71
155
72
657
73
1126
74
658
0
VERTEX
8
Meshes
62
250
10
0.0
20
0.0
30
0.0
70
128
71
155
72
658
73
1125
74
659
0
VERTEX
8
Meshes
62
250
10
0.0
20
0.0
30
0.0
70
128
71
156
72
661
73
1140
74
583
0
VERTEX
8
Meshes
62
250
10
0.0
20
0.0
30
0.0
70
128
71
156
72
583
73
1141
74
659
0
VERTEX
8
Meshes
62
250
10
0.0
20
0.0
30
0.0
70
128
71
156
72
659
73
1125
74
660
0
VERTEX
8
Meshes
62
250
10
0.0
20
0.0
30
0.0
70
128
71
156
72
660
73
1124
74
661
0
VERTEX
8
Meshes
62
250
10
0.0
20
0.0
30
0.0
70
128
71
157
72
663
73
1139
74
581
0
VERTEX
8
Meshes
62
250
10
0.0
20
0.0
30
0.0
70
128
71
157
72
581
73
1140
74
661
0
VERTEX
8
Meshes
62
250
10
0.0
20
0.0
30
0.0
70
128
71
157
72
661
73
1124
74
662
0
VERTEX
8
Meshes
62
250
10
0.0
20
0.0
30
0.0
70
128
71
157
72
662
73
1123
74
663
0
VERTEX
8
Meshes
62
250
10
0.0
20
0.0
30
0.0
70
128
71
158
72
665
73
1138
74
579
0
VERTEX
8
Meshes
62
250
10
0.0
20
0.0
30
0.0
70
128
71
158
72
579
73
1139
74
663
0
VERTEX
8
Meshes
62
250
10
0.0
20
0.0
30
0.0
70
128
71
158
72
663
73
1123
74
664
0
VERTEX
8
Meshes
62
250
10
0.0
20
0.0
30
0.0
70
128
71
158
72
664
73
1122
74
665
0
VERTEX
8
Meshes
62
250
10
0.0
20
0.0
30
0.0
70
128
71
159
72
667
73
1137
74
577
0
VERTEX
8
Meshes
62
250
10
0.0
20
0.0
30
0.0
70
128
71
159
72
577
73
1138
74
665
0
VERTEX
8
Meshes
62
250
10
0.0
20
0.0
30
0.0
70
128
71
159
72
665
73
1122
74
666
0
VERTEX
8
Meshes
62
250
10
0.0
20
0.0
30
0.0
70
128
71
159
72
666
73
1121
74
667
0
VERTEX
8
Meshes
62
250
10
0.0
20
0.0
30
0.0
70
128
71
160
72
637
73
1151
74
574
0
VERTEX
8
Meshes
62
250
10
0.0
20
0.0
30
0.0
70
128
71
160
72
574
73
1137
74
667
0
VERTEX
8
Meshes
62
250
10
0.0
20
0.0
30
0.0
70
128
71
160
72
667
73
1121
74
668
0
VERTEX
8
Meshes
62
250
10
0.0
20
0.0
30
0.0
70
128
71
160
72
668
73
1136
74
637
0
VERTEX
8
Meshes
62
250
10
0.0
20
0.0
30
0.0
70
128
71
161
72
671
73
1119
74
669
0
VERTEX
8
Meshes
62
250
10
0.0
20
0.0
30
0.0
70
128
71
161
72
669
73
1120
74
670
0
VERTEX
8
Meshes
62
250
10
0.0
20
0.0
30
0.0
70
128
71
161
72
670
73
1168
74
636
0
VERTEX
8
Meshes
62
250
10
0.0
20
0.0
30
0.0
70
128
71
161
72
636
73
1167
74
671
0
VERTEX
8
Meshes
62
250
10
0.0
20
0.0
30
0.0
70
128
71
162
72
673
73
1135
74
638
0
VERTEX
8
Meshes
62
250
10
0.0
20
0.0
30
0.0
70
128
71
162
72
638
73
1136
74
672
0
VERTEX
8
Meshes
62
250
10
0.0
20
0.0
30
0.0
70
128
71
162
72
672
73
1120
74
669
0
VERTEX
8
Meshes
62
250
10
0.0
20
0.0
30
0.0
70
128
71
162
72
669
73
1119
74
673
0
VERTEX
8
Meshes
62
250
10
0.0
20
0.0
30
0.0
70
128
71
163
72
675
73
1118
74
674
0
VERTEX
8
Meshes
62
250
10
0.0
20
0.0
30
0.0
70
128
71
163
72
674
73
1119
74
671
0
VERTEX
8
Meshes
62
250
10
0.0
20
0.0
30
0.0
70
128
71
163
72
671
73
1167
74
634
0
VERTEX
8
Meshes
62
250
10
0.0
20
0.0
30
0.0
70
128
71
163
72
634
73
1166
74
675
0
VERTEX
8
Meshes
62
250
10
0.0
20
0.0
30
0.0
70
128
71
164
72
676
73
1134
74
640
0
VERTEX
8
Meshes
62
250
10
0.0
20
0.0
30
0.0
70
128
71
164
72
640
73
1135
74
673
0
VERTEX
8
Meshes
62
250
10
0.0
20
0.0
30
0.0
70
128
71
164
72
673
73
1119
74
674
0
VERTEX
8
Meshes
62
250
10
0.0
20
0.0
30
0.0
70
128
71
164
72
674
73
1118
74
676
0
VERTEX
8
Meshes
62
250
10
0.0
20
0.0
30
0.0
70
128
71
165
72
678
73
1117
74
677
0
VERTEX
8
Meshes
62
250
10
0.0
20
0.0
30
0.0
70
128
71
165
72
677
73
1118
74
675
0
VERTEX
8
Meshes
62
250
10
0.0
20
0.0
30
0.0
70
128
71
165
72
675
73
1166
74
632
0
VERTEX
8
Meshes
62
250
10
0.0
20
0.0
30
0.0
70
128
71
165
72
632
73
1165
74
678
0
VERTEX
8
Meshes
62
250
10
0.0
20
0.0
30
0.0
70
128
71
166
72
679
73
1133
74
642
0
VERTEX
8
Meshes
62
250
10
0.0
20
0.0
30
0.0
70
128
71
166
72
642
73
1134
74
676
0
VERTEX
8
Meshes
62
250
10
0.0
20
0.0
30
0.0
70
128
71
166
72
676
73
1118
74
677
0
VERTEX
8
Meshes
62
250
10
0.0
20
0.0
30
0.0
70
128
71
166
72
677
73
1117
74
679
0
VERTEX
8
Meshes
62
250
10
0.0
20
0.0
30
0.0
70
128
71
167
72
681
73
1116
74
680
0
VERTEX
8
Meshes
62
250
10
0.0
20
0.0
30
0.0
70
128
71
167
72
680
73
1117
74
678
0
VERTEX
8
Meshes
62
250
10
0.0
20
0.0
30
0.0
70
128
71
167
72
678
73
1165
74
630
0
VERTEX
8
Meshes
62
250
10
0.0
20
0.0
30
0.0
70
128
71
167
72
630
73
1164
74
681
0
VERTEX
8
Meshes
62
250
10
0.0
20
0.0
30
0.0
70
128
71
168
72
682
73
1132
74
644
0
VERTEX
8
Meshes
62
250
10
0.0
20
0.0
30
0.0
70
128
71
168
72
644
73
1133
74
679
0
VERTEX
8
Meshes
62
250
10
0.0
20
0.0
30
0.0
70
128
71
168
72
679
73
1117
74
680
0
VERTEX
8
Meshes
62
250
10
0.0
20
0.0
30
0.0
70
128
71
168
72
680
73
1116
74
682
0
VERTEX
8
Meshes
62
250
10
0.0
20
0.0
30
0.0
70
128
71
169
72
684
73
1115
74
683
0
VERTEX
8
Meshes
62
250
10
0.0
20
0.0
30
0.0
70
128
71
169
72
683
73
1116
74
681
0
VERTEX
8
Meshes
62
250
10
0.0
20
0.0
30
0.0
70
128
71
169
72
681
73
1164
74
628
0
VERTEX
8
Meshes
62
250
10
0.0
20
0.0
30
0.0
70
128
71
169
72
628
73
1163
74
684
0
VERTEX
8
Meshes
62
250
10
0.0
20
0.0
30
0.0
70
128
71
170
72
685
73
1131
74
646
0
VERTEX
8
Meshes
62
250
10
0.0
20
0.0
30
0.0
70
128
71
170
72
646
73
1132
74
682
0
VERTEX
8
Meshes
62
250
10
0.0
20
0.0
30
0.0
70
128
71
170
72
682
73
1116
74
683
0
VERTEX
8
Meshes
62
250
10
0.0
20
0.0
30
0.0
70
128
71
170
72
683
73
1115
74
685
0
VERTEX
8
Meshes
62
250
10
0.0
20
0.0
30
0.0
70
128
71
171
72
687
73
1114
74
686
0
VERTEX
8
Meshes
62
250
10
0.0
20
0.0
30
0.0
70
128
71
171
72
686
73
1115
74
684
0
VERTEX
8
Meshes
62
250
10
0.0
20
0.0
30
0.0
70
128
71
171
72
684
73
1163
74
626
0
VERTEX
8
Meshes
62
250
10
0.0
20
0.0
30
0.0
70
128
71
171
72
626
73
1162
74
687
0
VERTEX
8
Meshes
62
250
10
0.0
20
0.0
30
0.0
70
128
71
172
72
688
73
1130
74
648
0
VERTEX
8
Meshes
62
250
10
0.0
20
0.0
30
0.0
70
128
71
172
72
648
73
1131
74
685
0
VERTEX
8
Meshes
62
250
10
0.0
20
0.0
30
0.0
70
128
71
172
72
685
73
1115
74
686
0
VERTEX
8
Meshes
62
250
10
0.0
20
0.0
30
0.0
70
128
71
172
72
686
73
1114
74
688
0
VERTEX
8
Meshes
62
250
10
0.0
20
0.0
30
0.0
70
128
71
173
72
690
73
1113
74
689
0
VERTEX
8
Meshes
62
250
10
0.0
20
0.0
30
0.0
70
128
71
173
72
689
73
1114
74
687
0
VERTEX
8
Meshes
62
250
10
0.0
20
0.0
30
0.0
70
128
71
173
72
687
73
1162
74
624
0
VERTEX
8
Meshes
62
250
10
0.0
20
0.0
30
0.0
70
128
71
173
72
624
73
1161
74
690
0
VERTEX
8
Meshes
62
250
10
0.0
20
0.0
30
0.0
70
128
71
174
72
691
73
1129
74
650
0
VERTEX
8
Meshes
62
250
10
0.0
20
0.0
30
0.0
70
128
71
174
72
650
73
1130
74
688
0
VERTEX
8
Meshes
62
250
10
0.0
20
0.0
30
0.0
70
128
71
174
72
688
73
1114
74
689
0
VERTEX
8
Meshes
62
250
10
0.0
20
0.0
30
0.0
70
128
71
174
72
689
73
1113
74
691
0
VERTEX
8
Meshes
62
250
10
0.0
20
0.0
30
0.0
70
128
71
175
72
693
73
1112
74
692
0
VERTEX
8
Meshes
62
250
10
0.0
20
0.0
30
0.0
70
128
71
175
72
692
73
1113
74
690
0
VERTEX
8
Meshes
62
250
10
0.0
20
0.0
30
0.0
70
128
71
175
72
690
73
1161
74
622
0
VERTEX
8
Meshes
62
250
10
0.0
20
0.0
30
0.0
70
128
71
175
72
622
73
1160
74
693
0
VERTEX
8
Meshes
62
250
10
0.0
20
0.0
30
0.0
70
128
71
176
72
694
73
1128
74
652
0
VERTEX
8
Meshes
62
250
10
0.0
20
0.0
30
0.0
70
128
71
176
72
652
73
1129
74
691
0
VERTEX
8
Meshes
62
250
10
0.0
20
0.0
30
0.0
70
128
71
176
72
691
73
1113
74
692
0
VERTEX
8
Meshes
62
250
10
0.0
20
0.0
30
0.0
70
128
71
176
72
692
73
1112
74
694
0
VERTEX
8
Meshes
62
250
10
0.0
20
0.0
30
0.0
70
128
71
177
72
696
73
1111
74
695
0
VERTEX
8
Meshes
62
250
10
0.0
20
0.0
30
0.0
70
128
71
177
72
695
73
1112
74
693
0
VERTEX
8
Meshes
62
250
10
0.0
20
0.0
30
0.0
70
128
71
177
72
693
73
1160
74
620
0
VERTEX
8
Meshes
62
250
10
0.0
20
0.0
30
0.0
70
128
71
177
72
620
73
1159
74
696
0
VERTEX
8
Meshes
62
250
10
0.0
20
0.0
30
0.0
70
128
71
178
72
697
73
1127
74
654
0
VERTEX
8
Meshes
62
250
10
0.0
20
0.0
30
0.0
70
128
71
178
72
654
73
1128
74
694
0
VERTEX
8
Meshes
62
250
10
0.0
20
0.0
30
0.0
70
128
71
178
72
694
73
1112
74
695
0
VERTEX
8
Meshes
62
250
10
0.0
20
0.0
30
0.0
70
128
71
178
72
695
73
1111
74
697
0
VERTEX
8
Meshes
62
250
10
0.0
20
0.0
30
0.0
70
128
71
179
72
699
73
1110
74
698
0
VERTEX
8
Meshes
62
250
10
0.0
20
0.0
30
0.0
70
128
71
179
72
698
73
1111
74
696
0
VERTEX
8
Meshes
62
250
10
0.0
20
0.0
30
0.0
70
128
71
179
72
696
73
1159
74
618
0
VERTEX
8
Meshes
62
250
10
0.0
20
0.0
30
0.0
70
128
71
179
72
618
73
1158
74
699
0
VERTEX
8
Meshes
62
250
10
0.0
20
0.0
30
0.0
70
128
71
180
72
700
73
1126
74
656
0
VERTEX
8
Meshes
62
250
10
0.0
20
0.0
30
0.0
70
128
71
180
72
656
73
1127
74
697
0
VERTEX
8
Meshes
62
250
10
0.0
20
0.0
30
0.0
70
128
71
180
72
697
73
1111
74
698
0
VERTEX
8
Meshes
62
250
10
0.0
20
0.0
30
0.0
70
128
71
180
72
698
73
1110
74
700
0
VERTEX
8
Meshes
62
250
10
0.0
20
0.0
30
0.0
70
128
71
181
72
702
73
1109
74
701
0
VERTEX
8
Meshes
62
250
10
0.0
20
0.0
30
0.0
70
128
71
181
72
701
73
1110
74
699
0
VERTEX
8
Meshes
62
250
10
0.0
20
0.0
30
0.0
70
128
71
181
72
699
73
1158
74
616
0
VERTEX
8
Meshes
62
250
10
0.0
20
0.0
30
0.0
70
128
71
181
72
616
73
1157
74
702
0
VERTEX
8
Meshes
62
250
10
0.0
20
0.0
30
0.0
70
128
71
182
72
703
73
1125
74
658
0
VERTEX
8
Meshes
62
250
10
0.0
20
0.0
30
0.0
70
128
71
182
72
658
73
1126
74
700
0
VERTEX
8
Meshes
62
250
10
0.0
20
0.0
30
0.0
70
128
71
182
72
700
73
1110
74
701
0
VERTEX
8
Meshes
62
250
10
0.0
20
0.0
30
0.0
70
128
71
182
72
701
73
1109
74
703
0
VERTEX
8
Meshes
62
250
10
0.0
20
0.0
30
0.0
70
128
71
183
72
705
73
1108
74
704
0
VERTEX
8
Meshes
62
250
10
0.0
20
0.0
30
0.0
70
128
71
183
72
704
73
1109
74
702
0
VERTEX
8
Meshes
62
250
10
0.0
20
0.0
30
0.0
70
128
71
183
72
702
73
1157
74
614
0
VERTEX
8
Meshes
62
250
10
0.0
20
0.0
30
0.0
70
128
71
183
72
614
73
1156
74
705
0
VERTEX
8
Meshes
62
250
10
0.0
20
0.0
30
0.0
70
128
71
184
72
706
73
1124
74
660
0
VERTEX
8
Meshes
62
250
10
0.0
20
0.0
30
0.0
70
128
71
184
72
660
73
1125
74
703
0
VERTEX
8
Meshes
62
250
10
0.0
20
0.0
30
0.0
70
128
71
184
72
703
73
1109
74
704
0
VERTEX
8
Meshes
62
250
10
0.0
20
0.0
30
0.0
70
128
71
184
72
704
73
1108
74
706
0
VERTEX
8
Meshes
62
250
10
0.0
20
0.0
30
0.0
70
128
71
185
72
708
73
1107
74
707
0
VERTEX
8
Meshes
62
250
10
0.0
20
0.0
30
0.0
70
128
71
185
72
707
73
1108
74
705
0
VERTEX
8
Meshes
62
250
10
0.0
20
0.0
30
0.0
70
128
71
185
72
705
73
1156
74
612
0
VERTEX
8
Meshes
62
250
10
0.0
20
0.0
30
0.0
70
128
71
185
72
612
73
1155
74
708
0
VERTEX
8
Meshes
62
250
10
0.0
20
0.0
30
0.0
70
128
71
186
72
709
73
1123
74
662
0
VERTEX
8
Meshes
62
250
10
0.0
20
0.0
30
0.0
70
128
71
186
72
662
73
1124
74
706
0
VERTEX
8
Meshes
62
250
10
0.0
20
0.0
30
0.0
70
128
71
186
72
706
73
1108
74
707
0
VERTEX
8
Meshes
62
250
10
0.0
20
0.0
30
0.0
70
128
71
186
72
707
73
1107
74
709
0
VERTEX
8
Meshes
62
250
10
0.0
20
0.0
30
0.0
70
128
71
187
72
711
73
1106
74
710
0
VERTEX
8
Meshes
62
250
10
0.0
20
0.0
30
0.0
70
128
71
187
72
710
73
1107
74
708
0
VERTEX
8
Meshes
62
250
10
0.0
20
0.0
30
0.0
70
128
71
187
72
708
73
1155
74
610
0
VERTEX
8
Meshes
62
250
10
0.0
20
0.0
30
0.0
70
128
71
187
72
610
73
1154
74
711
0
VERTEX
8
Meshes
62
250
10
0.0
20
0.0
30
0.0
70
128
71
188
72
712
73
1122
74
664
0
VERTEX
8
Meshes
62
250
10
0.0
20
0.0
30
0.0
70
128
71
188
72
664
73
1123
74
709
0
VERTEX
8
Meshes
62
250
10
0.0
20
0.0
30
0.0
70
128
71
188
72
709
73
1107
74
710
0
VERTEX
8
Meshes
62
250
10
0.0
20
0.0
30
0.0
70
128
71
188
72
710
73
1106
74
712
0
VERTEX
8
Meshes
62
250
10
0.0
20
0.0
30
0.0
70
128
71
189
72
670
73
1120
74
713
0
VERTEX
8
Meshes
62
250
10
0.0
20
0.0
30
0.0
70
128
71
189
72
713
73
1105
74
714
0
VERTEX
8
Meshes
62
250
10
0.0
20
0.0
30
0.0
70
128
71
189
72
714
73
1153
74
606
0
VERTEX
8
Meshes
62
250
10
0.0
20
0.0
30
0.0
70
128
71
189
72
606
73
1168
74
670
0
VERTEX
8
Meshes
62
250
10
0.0
20
0.0
30
0.0
70
128
71
190
72
714
73
1105
74
716
0
VERTEX
8
Meshes
62
250
10
0.0
20
0.0
30
0.0
70
128
71
190
72
716
73
1106
74
711
0
VERTEX
8
Meshes
62
250
10
0.0
20
0.0
30
0.0
70
128
71
190
72
711
73
1154
74
608
0
VERTEX
8
Meshes
62
250
10
0.0
20
0.0
30
0.0
70
128
71
190
72
608
73
1153
74
714
0
VERTEX
8
Meshes
62
250
10
0.0
20
0.0
30
0.0
70
128
71
191
72
717
73
1170
74
727
0
VERTEX
8
Meshes
62
250
10
0.0
20
0.0
30
0.0
70
128
71
191
72
727
73
1181
74
726
0
VERTEX
8
Meshes
62
250
10
0.0
20
0.0
30
0.0
70
128
71
191
72
726
73
1182
74
725
0
VERTEX
8
Meshes
62
250
10
0.0
20
0.0
30
0.0
70
128
71
191
72
725
73
1169
74
717
0
VERTEX
8
Meshes
62
250
10
0.0
20
0.0
30
0.0
70
128
71
192
72
718
73
1172
74
730
0
VERTEX
8
Meshes
62
250
10
0.0
20
0.0
30
0.0
70
128
71
192
72
730
73
1184
74
729
0
VERTEX
8
Meshes
62
250
10
0.0
20
0.0
30
0.0
70
128
71
192
72
729
73
1183
74
728
0
VERTEX
8
Meshes
62
250
10
0.0
20
0.0
30
0.0
70
128
71
192
72
728
73
1171
74
718
0
VERTEX
8
Meshes
62
250
10
0.0
20
0.0
30
0.0
70
128
71
193
72
719
73
1173
74
732
0
VERTEX
8
Meshes
62
250
10
0.0
20
0.0
30
0.0
70
128
71
193
72
732
73
1185
74
731
0
VERTEX
8
Meshes
62
250
10
0.0
20
0.0
30
0.0
70
128
71
193
72
731
73
1184
74
730
0
VERTEX
8
Meshes
62
250
10
0.0
20
0.0
30
0.0
70
128
71
193
72
730
73
1172
74
719
0
VERTEX
8
Meshes
62
250
10
0.0
20
0.0
30
0.0
70
128
71
194
72
720
73
1175
74
735
0
VERTEX
8
Meshes
62
250
10
0.0
20
0.0
30
0.0
70
128
71
194
72
735
73
1187
74
734
0
VERTEX
8
Meshes
62
250
10
0.0
20
0.0
30
0.0
70
128
71
194
72
734
73
1186
74
733
0
VERTEX
8
Meshes
62
250
10
0.0
20
0.0
30
0.0
70
128
71
194
72
733
73
1174
74
720
0
VERTEX
8
Meshes
62
250
10
0.0
20
0.0
30
0.0
70
128
71
195
72
721
73
1176
74
737
0
VERTEX
8
Meshes
62
250
10
0.0
20
0.0
30
0.0
70
128
71
195
72
737
73
1188
74
736
0
VERTEX
8
Meshes
62
250
10
0.0
20
0.0
30
0.0
70
128
71
195
72
736
73
1187
74
735
0
VERTEX
8
Meshes
62
250
10
0.0
20
0.0
30
0.0
70
128
71
195
72
735
73
1175
74
721
0
VERTEX
8
Meshes
62
250
10
0.0
20
0.0
30
0.0
70
128
71
196
72
722
73
1178
74
740
0
VERTEX
8
Meshes
62
250
10
0.0
20
0.0
30
0.0
70
128
71
196
72
740
73
1190
74
739
0
VERTEX
8
Meshes
62
250
10
0.0
20
0.0
30
0.0
70
128
71
196
72
739
73
1189
74
738
0
VERTEX
8
Meshes
62
250
10
0.0
20
0.0
30
0.0
70
128
71
196
72
738
73
1177
74
722
0
VERTEX
8
Meshes
62
250
10
0.0
20
0.0
30
0.0
70
128
71
197
72
723
73
1179
74
742
0
VERTEX
8
Meshes
62
250
10
0.0
20
0.0
30
0.0
70
128
71
197
72
742
73
1191
74
741
0
VERTEX
8
Meshes
62
250
10
0.0
20
0.0
30
0.0
70
128
71
197
72
741
73
1190
74
740
0
VERTEX
8
Meshes
62
250
10
0.0
20
0.0
30
0.0
70
128
71
197
72
740
73
1178
74
723
0
VERTEX
8
Meshes
62
250
10
0.0
20
0.0
30
0.0
70
128
71
198
72
724
73
1169
74
725
0
VERTEX
8
Meshes
62
250
10
0.0
20
0.0
30
0.0
70
128
71
198
72
725
73
1182
74
744
0
VERTEX
8
Meshes
62
250
10
0.0
20
0.0
30
0.0
70
128
71
198
72
744
73
1192
74
743
0
VERTEX
8
Meshes
62
250
10
0.0
20
0.0
30
0.0
70
128
71
198
72
743
73
1180
74
724
0
VERTEX
8
Meshes
62
250
10
0.0
20
0.0
30
0.0
70
128
71
199
72
726
73
1181
74
755
0
VERTEX
8
Meshes
62
250
10
0.0
20
0.0
30
0.0
70
128
71
199
72
755
73
1193
74
756
0
VERTEX
8
Meshes
62
250
10
0.0
20
0.0
30
0.0
70
128
71
199
72
756
73
1182
74
726
0
VERTEX
8
Meshes
62
250
10
0.0
20
0.0
30
0.0
70
128
71
200
72
729
73
1184
74
753
0
VERTEX
8
Meshes
62
250
10
0.0
20
0.0
30
0.0
70
128
71
200
72
753
73
1193
74
754
0
VERTEX
8
Meshes
62
250
10
0.0
20
0.0
30
0.0
70
128
71
200
72
754
73
1183
74
729
0
VERTEX
8
Meshes
62
250
10
0.0
20
0.0
30
0.0
70
128
71
201
72
731
73
1185
74
752
0
VERTEX
8
Meshes
62
250
10
0.0
20
0.0
30
0.0
70
128
71
201
72
752
73
1193
74
753
0
VERTEX
8
Meshes
62
250
10
0.0
20
0.0
30
0.0
70
128
71
201
72
753
73
1184
74
731
0
VERTEX
8
Meshes
62
250
10
0.0
20
0.0
30
0.0
70
128
71
202
72
734
73
1187
74
751
0
VERTEX
8
Meshes
62
250
10
0.0
20
0.0
30
0.0
70
128
71
202
72
751
73
1193
74
745
0
VERTEX
8
Meshes
62
250
10
0.0
20
0.0
30
0.0
70
128
71
202
72
745
73
1186
74
734
0
VERTEX
8
Meshes
62
250
10
0.0
20
0.0
30
0.0
70
128
71
203
72
736
73
1188
74
750
0
VERTEX
8
Meshes
62
250
10
0.0
20
0.0
30
0.0
70
128
71
203
72
750
73
1193
74
751
0
VERTEX
8
Meshes
62
250
10
0.0
20
0.0
30
0.0
70
128
71
203
72
751
73
1187
74
736
0
VERTEX
8
Meshes
62
250
10
0.0
20
0.0
30
0.0
70
128
71
204
72
739
73
1190
74
748
0
VERTEX
8
Meshes
62
250
10
0.0
20
0.0
30
0.0
70
128
71
204
72
748
73
1193
74
749
0
VERTEX
8
Meshes
62
250
10
0.0
20
0.0
30
0.0
70
128
71
204
72
749
73
1189
74
739
0
VERTEX
8
Meshes
62
250
10
0.0
20
0.0
30
0.0
70
128
71
205
72
741
73
1191
74
747
0
VERTEX
8
Meshes
62
250
10
0.0
20
0.0
30
0.0
70
128
71
205
72
747
73
1193
74
748
0
VERTEX
8
Meshes
62
250
10
0.0
20
0.0
30
0.0
70
128
71
205
72
748
73
1190
74
741
0
VERTEX
8
Meshes
62
250
10
0.0
20
0.0
30
0.0
70
128
71
206
72
744
73
1182
74
756
0
VERTEX
8
Meshes
62
250
10
0.0
20
0.0
30
0.0
70
128
71
206
72
756
73
1193
74
746
0
VERTEX
8
Meshes
62
250
10
0.0
20
0.0
30
0.0
70
128
71
206
72
746
73
1192
74
744
0
VERTEX
8
Meshes
62
250
10
0.0
20
0.0
30
0.0
70
128
71
207
72
724
73
1180
74
759
0
VERTEX
8
Meshes
62
250
10
0.0
20
0.0
30
0.0
70
128
71
207
72
759
73
1194
74
758
0
VERTEX
8
Meshes
62
250
10
0.0
20
0.0
30
0.0
70
128
71
207
72
758
73
1205
74
757
0
VERTEX
8
Meshes
62
250
10
0.0
20
0.0
30
0.0
70
128
71
207
72
757
73
1169
74
724
0
VERTEX
8
Meshes
62
250
10
0.0
20
0.0
30
0.0
70
128
71
208
72
723
73
1178
74
762
0
VERTEX
8
Meshes
62
250
10
0.0
20
0.0
30
0.0
70
128
71
208
72
762
73
1196
74
761
0
VERTEX
8
Meshes
62
250
10
0.0
20
0.0
30
0.0
70
128
71
208
72
761
73
1195
74
760
0
VERTEX
8
Meshes
62
250
10
0.0
20
0.0
30
0.0
70
128
71
208
72
760
73
1179
74
723
0
VERTEX
8
Meshes
62
250
10
0.0
20
0.0
30
0.0
70
128
71
209
72
722
73
1177
74
764
0
VERTEX
8
Meshes
62
250
10
0.0
20
0.0
30
0.0
70
128
71
209
72
764
73
1197
74
763
0
VERTEX
8
Meshes
62
250
10
0.0
20
0.0
30
0.0
70
128
71
209
72
763
73
1196
74
762
0
VERTEX
8
Meshes
62
250
10
0.0
20
0.0
30
0.0
70
128
71
209
72
762
73
1178
74
722
0
VERTEX
8
Meshes
62
250
10
0.0
20
0.0
30
0.0
70
128
71
210
72
721
73
1175
74
767
0
VERTEX
8
Meshes
62
250
10
0.0
20
0.0
30
0.0
70
128
71
210
72
767
73
1199
74
766
0
VERTEX
8
Meshes
62
250
10
0.0
20
0.0
30
0.0
70
128
71
210
72
766
73
1198
74
765
0
VERTEX
8
Meshes
62
250
10
0.0
20
0.0
30
0.0
70
128
71
210
72
765
73
1176
74
721
0
VERTEX
8
Meshes
62
250
10
0.0
20
0.0
30
0.0
70
128
71
211
72
720
73
1174
74
769
0
VERTEX
8
Meshes
62
250
10
0.0
20
0.0
30
0.0
70
128
71
211
72
769
73
1200
74
768
0
VERTEX
8
Meshes
62
250
10
0.0
20
0.0
30
0.0
70
128
71
211
72
768
73
1199
74
767
0
VERTEX
8
Meshes
62
250
10
0.0
20
0.0
30
0.0
70
128
71
211
72
767
73
1175
74
720
0
VERTEX
8
Meshes
62
250
10
0.0
20
0.0
30
0.0
70
128
71
212
72
719
73
1172
74
772
0
VERTEX
8
Meshes
62
250
10
0.0
20
0.0
30
0.0
70
128
71
212
72
772
73
1202
74
771
0
VERTEX
8
Meshes
62
250
10
0.0
20
0.0
30
0.0
70
128
71
212
72
771
73
1201
74
770
0
VERTEX
8
Meshes
62
250
10
0.0
20
0.0
30
0.0
70
128
71
212
72
770
73
1173
74
719
0
VERTEX
8
Meshes
62
250
10
0.0
20
0.0
30
0.0
70
128
71
213
72
718
73
1171
74
774
0
VERTEX
8
Meshes
62
250
10
0.0
20
0.0
30
0.0
70
128
71
213
72
774
73
1203
74
773
0
VERTEX
8
Meshes
62
250
10
0.0
20
0.0
30
0.0
70
128
71
213
72
773
73
1202
74
772
0
VERTEX
8
Meshes
62
250
10
0.0
20
0.0
30
0.0
70
128
71
213
72
772
73
1172
74
718
0
VERTEX
8
Meshes
62
250
10
0.0
20
0.0
30
0.0
70
128
71
214
72
717
73
1169
74
757
0
VERTEX
8
Meshes
62
250
10
0.0
20
0.0
30
0.0
70
128
71
214
72
757
73
1205
74
776
0
VERTEX
8
Meshes
62
250
10
0.0
20
0.0
30
0.0
70
128
71
214
72
776
73
1204
74
775
0
VERTEX
8
Meshes
62
250
10
0.0
20
0.0
30
0.0
70
128
71
214
72
775
73
1170
74
717
0
VERTEX
8
Meshes
62
250
10
0.0
20
0.0
30
0.0
70
128
71
215
72
776
73
1205
74
779
0
VERTEX
8
Meshes
62
250
10
0.0
20
0.0
30
0.0
70
128
71
215
72
779
73
1206
74
778
0
VERTEX
8
Meshes
62
250
10
0.0
20
0.0
30
0.0
70
128
71
215
72
778
73
1207
74
777
0
VERTEX
8
Meshes
62
250
10
0.0
20
0.0
30
0.0
70
128
71
215
72
777
73
1204
74
776
0
VERTEX
8
Meshes
62
250
10
0.0
20
0.0
30
0.0
70
128
71
216
72
773
73
1203
74
780
0
VERTEX
8
Meshes
62
250
10
0.0
20
0.0
30
0.0
70
128
71
216
72
780
73
1208
74
782
0
VERTEX
8
Meshes
62
250
10
0.0
20
0.0
30
0.0
70
128
71
216
72
782
73
1209
74
781
0
VERTEX
8
Meshes
62
250
10
0.0
20
0.0
30
0.0
70
128
71
216
72
781
73
1202
74
773
0
VERTEX
8
Meshes
62
250
10
0.0
20
0.0
30
0.0
70
128
71
217
72
771
73
1202
74
781
0
VERTEX
8
Meshes
62
250
10
0.0
20
0.0
30
0.0
70
128
71
217
72
781
73
1209
74
784
0
VERTEX
8
Meshes
62
250
10
0.0
20
0.0
30
0.0
70
128
71
217
72
784
73
1210
74
783
0
VERTEX
8
Meshes
62
250
10
0.0
20
0.0
30
0.0
70
128
71
217
72
783
73
1201
74
771
0
VERTEX
8
Meshes
62
250
10
0.0
20
0.0
30
0.0
70
128
71
218
72
768
73
1200
74
785
0
VERTEX
8
Meshes
62
250
10
0.0
20
0.0
30
0.0
70
128
71
218
72
785
73
1211
74
787
0
VERTEX
8
Meshes
62
250
10
0.0
20
0.0
30
0.0
70
128
71
218
72
787
73
1212
74
786
0
VERTEX
8
Meshes
62
250
10
0.0
20
0.0
30
0.0
70
128
71
218
72
786
73
1199
74
768
0
VERTEX
8
Meshes
62
250
10
0.0
20
0.0
30
0.0
70
128
71
219
72
766
73
1199
74
786
0
VERTEX
8
Meshes
62
250
10
0.0
20
0.0
30
0.0
70
128
71
219
72
786
73
1212
74
789
0
VERTEX
8
Meshes
62
250
10
0.0
20
0.0
30
0.0
70
128
71
219
72
789
73
1213
74
788
0
VERTEX
8
Meshes
62
250
10
0.0
20
0.0
30
0.0
70
128
71
219
72
788
73
1198
74
766
0
VERTEX
8
Meshes
62
250
10
0.0
20
0.0
30
0.0
70
128
71
220
72
763
73
1197
74
790
0
VERTEX
8
Meshes
62
250
10
0.0
20
0.0
30
0.0
70
128
71
220
72
790
73
1214
74
792
0
VERTEX
8
Meshes
62
250
10
0.0
20
0.0
30
0.0
70
128
71
220
72
792
73
1215
74
791
0
VERTEX
8
Meshes
62
250
10
0.0
20
0.0
30
0.0
70
128
71
220
72
791
73
1196
74
763
0
VERTEX
8
Meshes
62
250
10
0.0
20
0.0
30
0.0
70
128
71
221
72
761
73
1196
74
791
0
VERTEX
8
Meshes
62
250
10
0.0
20
0.0
30
0.0
70
128
71
221
72
791
73
1215
74
794
0
VERTEX
8
Meshes
62
250
10
0.0
20
0.0
30
0.0
70
128
71
221
72
794
73
1216
74
793
0
VERTEX
8
Meshes
62
250
10
0.0
20
0.0
30
0.0
70
128
71
221
72
793
73
1195
74
761
0
VERTEX
8
Meshes
62
250
10
0.0
20
0.0
30
0.0
70
128
71
222
72
758
73
1194
74
795
0
VERTEX
8
Meshes
62
250
10
0.0
20
0.0
30
0.0
70
128
71
222
72
795
73
1217
74
796
0
VERTEX
8
Meshes
62
250
10
0.0
20
0.0
30
0.0
70
128
71
222
72
796
73
1206
74
779
0
VERTEX
8
Meshes
62
250
10
0.0
20
0.0
30
0.0
70
128
71
222
72
779
73
1205
74
758
0
VERTEX
8
Meshes
62
250
10
0.0
20
0.0
30
0.0
70
128
71
223
72
796
73
1217
74
799
0
VERTEX
8
Meshes
62
250
10
0.0
20
0.0
30
0.0
70
128
71
223
72
799
73
1231
74
798
0
VERTEX
8
Meshes
62
250
10
0.0
20
0.0
30
0.0
70
128
71
223
72
798
73
1242
74
797
0
VERTEX
8
Meshes
62
250
10
0.0
20
0.0
30
0.0
70
128
71
223
72
797
73
1206
74
796
0
VERTEX
8
Meshes
62
250
10
0.0
20
0.0
30
0.0
70
128
71
224
72
794
73
1215
74
802
0
VERTEX
8
Meshes
62
250
10
0.0
20
0.0
30
0.0
70
128
71
224
72
802
73
1233
74
801
0
VERTEX
8
Meshes
62
250
10
0.0
20
0.0
30
0.0
70
128
71
224
72
801
73
1232
74
800
0
VERTEX
8
Meshes
62
250
10
0.0
20
0.0
30
0.0
70
128
71
224
72
800
73
1216
74
794
0
VERTEX
8
Meshes
62
250
10
0.0
20
0.0
30
0.0
70
128
71
225
72
792
73
1214
74
804
0
VERTEX
8
Meshes
62
250
10
0.0
20
0.0
30
0.0
70
128
71
225
72
804
73
1234
74
803
0
VERTEX
8
Meshes
62
250
10
0.0
20
0.0
30
0.0
70
128
71
225
72
803
73
1233
74
802
0
VERTEX
8
Meshes
62
250
10
0.0
20
0.0
30
0.0
70
128
71
225
72
802
73
1215
74
792
0
VERTEX
8
Meshes
62
250
10
0.0
20
0.0
30
0.0
70
128
71
226
72
789
73
1212
74
807
0
VERTEX
8
Meshes
62
250
10
0.0
20
0.0
30
0.0
70
128
71
226
72
807
73
1236
74
806
0
VERTEX
8
Meshes
62
250
10
0.0
20
0.0
30
0.0
70
128
71
226
72
806
73
1235
74
805
0
VERTEX
8
Meshes
62
250
10
0.0
20
0.0
30
0.0
70
128
71
226
72
805
73
1213
74
789
0
VERTEX
8
Meshes
62
250
10
0.0
20
0.0
30
0.0
70
128
71
227
72
787
73
1211
74
809
0
VERTEX
8
Meshes
62
250
10
0.0
20
0.0
30
0.0
70
128
71
227
72
809
73
1237
74
808
0
VERTEX
8
Meshes
62
250
10
0.0
20
0.0
30
0.0
70
128
71
227
72
808
73
1236
74
807
0
VERTEX
8
Meshes
62
250
10
0.0
20
0.0
30
0.0
70
128
71
227
72
807
73
1212
74
787
0
VERTEX
8
Meshes
62
250
10
0.0
20
0.0
30
0.0
70
128
71
228
72
784
73
1209
74
812
0
VERTEX
8
Meshes
62
250
10
0.0
20
0.0
30
0.0
70
128
71
228
72
812
73
1239
74
811
0
VERTEX
8
Meshes
62
250
10
0.0
20
0.0
30
0.0
70
128
71
228
72
811
73
1238
74
810
0
VERTEX
8
Meshes
62
250
10
0.0
20
0.0
30
0.0
70
128
71
228
72
810
73
1210
74
784
0
VERTEX
8
Meshes
62
250
10
0.0
20
0.0
30
0.0
70
128
71
229
72
782
73
1208
74
814
0
VERTEX
8
Meshes
62
250
10
0.0
20
0.0
30
0.0
70
128
71
229
72
814
73
1240
74
813
0
VERTEX
8
Meshes
62
250
10
0.0
20
0.0
30
0.0
70
128
71
229
72
813
73
1239
74
812
0
VERTEX
8
Meshes
62
250
10
0.0
20
0.0
30
0.0
70
128
71
229
72
812
73
1209
74
782
0
VERTEX
8
Meshes
62
250
10
0.0
20
0.0
30
0.0
70
128
71
230
72
778
73
1206
74
797
0
VERTEX
8
Meshes
62
250
10
0.0
20
0.0
30
0.0
70
128
71
230
72
797
73
1242
74
816
0
VERTEX
8
Meshes
62
250
10
0.0
20
0.0
30
0.0
70
128
71
230
72
816
73
1241
74
815
0
VERTEX
8
Meshes
62
250
10
0.0
20
0.0
30
0.0
70
128
71
230
72
815
73
1207
74
778
0
VERTEX
8
Meshes
62
250
10
0.0
20
0.0
30
0.0
70
128
71
231
72
817
73
1229
74
819
0
VERTEX
8
Meshes
62
250
10
0.0
20
0.0
30
0.0
70
128
71
231
72
819
73
1230
74
818
0
VERTEX
8
Meshes
62
250
10
0.0
20
0.0
30
0.0
70
128
71
231
72
818
73
1241
74
816
0
VERTEX
8
Meshes
62
250
10
0.0
20
0.0
30
0.0
70
128
71
231
72
816
73
1242
74
817
0
VERTEX
8
Meshes
62
250
10
0.0
20
0.0
30
0.0
70
128
71
232
72
820
73
1228
74
822
0
VERTEX
8
Meshes
62
250
10
0.0
20
0.0
30
0.0
70
128
71
232
72
822
73
1227
74
821
0
VERTEX
8
Meshes
62
250
10
0.0
20
0.0
30
0.0
70
128
71
232
72
821
73
1239
74
813
0
VERTEX
8
Meshes
62
250
10
0.0
20
0.0
30
0.0
70
128
71
232
72
813
73
1240
74
820
0
VERTEX
8
Meshes
62
250
10
0.0
20
0.0
30
0.0
70
128
71
233
72
821
73
1227
74
824
0
VERTEX
8
Meshes
62
250
10
0.0
20
0.0
30
0.0
70
128
71
233
72
824
73
1226
74
823
0
VERTEX
8
Meshes
62
250
10
0.0
20
0.0
30
0.0
70
128
71
233
72
823
73
1238
74
811
0
VERTEX
8
Meshes
62
250
10
0.0
20
0.0
30
0.0
70
128
71
233
72
811
73
1239
74
821
0
VERTEX
8
Meshes
62
250
10
0.0
20
0.0
30
0.0
70
128
71
234
72
825
73
1225
74
827
0
VERTEX
8
Meshes
62
250
10
0.0
20
0.0
30
0.0
70
128
71
234
72
827
73
1224
74
826
0
VERTEX
8
Meshes
62
250
10
0.0
20
0.0
30
0.0
70
128
71
234
72
826
73
1236
74
808
0
VERTEX
8
Meshes
62
250
10
0.0
20
0.0
30
0.0
70
128
71
234
72
808
73
1237
74
825
0
VERTEX
8
Meshes
62
250
10
0.0
20
0.0
30
0.0
70
128
71
235
72
826
73
1224
74
829
0
VERTEX
8
Meshes
62
250
10
0.0
20
0.0
30
0.0
70
128
71
235
72
829
73
1223
74
828
0
VERTEX
8
Meshes
62
250
10
0.0
20
0.0
30
0.0
70
128
71
235
72
828
73
1235
74
806
0
VERTEX
8
Meshes
62
250
10
0.0
20
0.0
30
0.0
70
128
71
235
72
806
73
1236
74
826
0
VERTEX
8
Meshes
62
250
10
0.0
20
0.0
30
0.0
70
128
71
236
72
830
73
1222
74
832
0
VERTEX
8
Meshes
62
250
10
0.0
20
0.0
30
0.0
70
128
71
236
72
832
73
1221
74
831
0
VERTEX
8
Meshes
62
250
10
0.0
20
0.0
30
0.0
70
128
71
236
72
831
73
1233
74
803
0
VERTEX
8
Meshes
62
250
10
0.0
20
0.0
30
0.0
70
128
71
236
72
803
73
1234
74
830
0
VERTEX
8
Meshes
62
250
10
0.0
20
0.0
30
0.0
70
128
71
237
72
831
73
1221
74
834
0
VERTEX
8
Meshes
62
250
10
0.0
20
0.0
30
0.0
70
128
71
237
72
834
73
1220
74
833
0
VERTEX
8
Meshes
62
250
10
0.0
20
0.0
30
0.0
70
128
71
237
72
833
73
1232
74
801
0
VERTEX
8
Meshes
62
250
10
0.0
20
0.0
30
0.0
70
128
71
237
72
801
73
1233
74
831
0
VERTEX
8
Meshes
62
250
10
0.0
20
0.0
30
0.0
70
128
71
238
72
835
73
1219
74
836
0
VERTEX
8
Meshes
62
250
10
0.0
20
0.0
30
0.0
70
128
71
238
72
836
73
1229
74
817
0
VERTEX
8
Meshes
62
250
10
0.0
20
0.0
30
0.0
70
128
71
238
72
817
73
1242
74
798
0
VERTEX
8
Meshes
62
250
10
0.0
20
0.0
30
0.0
70
128
71
238
72
798
73
1231
74
835
0
VERTEX
8
Meshes
62
250
10
0.0
20
0.0
30
0.0
70
128
71
239
72
837
73
1218
74
838
0
VERTEX
8
Meshes
62
250
10
0.0
20
0.0
30
0.0
70
128
71
239
72
838
73
1230
74
819
0
VERTEX
8
Meshes
62
250
10
0.0
20
0.0
30
0.0
70
128
71
239
72
819
73
1229
74
837
0
VERTEX
8
Meshes
62
250
10
0.0
20
0.0
30
0.0
70
128
71
240
72
839
73
1218
74
840
0
VERTEX
8
Meshes
62
250
10
0.0
20
0.0
30
0.0
70
128
71
240
72
840
73
1227
74
822
0
VERTEX
8
Meshes
62
250
10
0.0
20
0.0
30
0.0
70
128
71
240
72
822
73
1228
74
839
0
VERTEX
8
Meshes
62
250
10
0.0
20
0.0
30
0.0
70
128
71
241
72
840
73
1218
74
841
0
VERTEX
8
Meshes
62
250
10
0.0
20
0.0
30
0.0
70
128
71
241
72
841
73
1226
74
824
0
VERTEX
8
Meshes
62
250
10
0.0
20
0.0
30
0.0
70
128
71
241
72
824
73
1227
74
840
0
VERTEX
8
Meshes
62
250
10
0.0
20
0.0
30
0.0
70
128
71
242
72
842
73
1218
74
843
0
VERTEX
8
Meshes
62
250
10
0.0
20
0.0
30
0.0
70
128
71
242
72
843
73
1224
74
827
0
VERTEX
8
Meshes
62
250
10
0.0
20
0.0
30
0.0
70
128
71
242
72
827
73
1225
74
842
0
VERTEX
8
Meshes
62
250
10
0.0
20
0.0
30
0.0
70
128
71
243
72
843
73
1218
74
844
0
VERTEX
8
Meshes
62
250
10
0.0
20
0.0
30
0.0
70
128
71
243
72
844
73
1223
74
829
0
VERTEX
8
Meshes
62
250
10
0.0
20
0.0
30
0.0
70
128
71
243
72
829
73
1224
74
843
0
VERTEX
8
Meshes
62
250
10
0.0
20
0.0
30
0.0
70
128
71
244
72
845
73
1218
74
846
0
VERTEX
8
Meshes
62
250
10
0.0
20
0.0
30
0.0
70
128
71
244
72
846
73
1221
74
832
0
VERTEX
8
Meshes
62
250
10
0.0
20
0.0
30
0.0
70
128
71
244
72
832
73
1222
74
845
0
VERTEX
8
Meshes
62
250
10
0.0
20
0.0
30
0.0
70
128
71
245
72
846
73
1218
74
847
0
VERTEX
8
Meshes
62
250
10
0.0
20
0.0
30
0.0
70
128
71
245
72
847
73
1220
74
834
0
VERTEX
8
Meshes
62
250
10
0.0
20
0.0
30
0.0
70
128
71
245
72
834
73
1221
74
846
0
VERTEX
8
Meshes
62
250
10
0.0
20
0.0
30
0.0
70
128
71
246
72
848
73
1218
74
837
0
VERTEX
8
Meshes
62
250
10
0.0
20
0.0
30
0.0
70
128
71
246
72
837
73
1229
74
836
0
VERTEX
8
Meshes
62
250
10
0.0
20
0.0
30
0.0
70
128
71
246
72
836
73
1219
74
848
0
VERTEX
8
Meshes
62
250
10
0.0
20
0.0
30
0.0
70
128
71
247
72
849
73
1243
74
855
0
VERTEX
8
Meshes
62
250
10
0.0
20
0.0
30
0.0
70
128
71
247
72
855
73
1244
74
850
0
VERTEX
8
Meshes
62
250
10
0.0
20
0.0
30
0.0
70
128
71
247
72
850
73
1181
74
727
0
VERTEX
8
Meshes
62
250
10
0.0
20
0.0
30
0.0
70
128
71
247
72
727
73
1170
74
849
0
VERTEX
8
Meshes
62
250
10
0.0
20
0.0
30
0.0
70
128
71
248
72
850
73
1244
74
856
0
VERTEX
8
Meshes
62
250
10
0.0
20
0.0
30
0.0
70
128
71
248
72
856
73
1193
74
755
0
VERTEX
8
Meshes
62
250
10
0.0
20
0.0
30
0.0
70
128
71
248
72
755
73
1181
74
850
0
VERTEX
8
Meshes
62
250
10
0.0
20
0.0
30
0.0
70
128
71
249
72
849
73
1170
74
775
0
VERTEX
8
Meshes
62
250
10
0.0
20
0.0
30
0.0
70
128
71
249
72
775
73
1204
74
851
0
VERTEX
8
Meshes
62
250
10
0.0
20
0.0
30
0.0
70
128
71
249
72
851
73
1245
74
857
0
VERTEX
8
Meshes
62
250
10
0.0
20
0.0
30
0.0
70
128
71
249
72
857
73
1243
74
849
0
VERTEX
8
Meshes
62
250
10
0.0
20
0.0
30
0.0
70
128
71
250
72
851
73
1204
74
777
0
VERTEX
8
Meshes
62
250
10
0.0
20
0.0
30
0.0
70
128
71
250
72
777
73
1207
74
852
0
VERTEX
8
Meshes
62
250
10
0.0
20
0.0
30
0.0
70
128
71
250
72
852
73
1246
74
858
0
VERTEX
8
Meshes
62
250
10
0.0
20
0.0
30
0.0
70
128
71
250
72
858
73
1245
74
851
0
VERTEX
8
Meshes
62
250
10
0.0
20
0.0
30
0.0
70
128
71
251
72
852
73
1207
74
815
0
VERTEX
8
Meshes
62
250
10
0.0
20
0.0
30
0.0
70
128
71
251
72
815
73
1241
74
853
0
VERTEX
8
Meshes
62
250
10
0.0
20
0.0
30
0.0
70
128
71
251
72
853
73
1247
74
859
0
VERTEX
8
Meshes
62
250
10
0.0
20
0.0
30
0.0
70
128
71
251
72
859
73
1246
74
852
0
VERTEX
8
Meshes
62
250
10
0.0
20
0.0
30
0.0
70
128
71
252
72
853
73
1241
74
818
0
VERTEX
8
Meshes
62
250
10
0.0
20
0.0
30
0.0
70
128
71
252
72
818
73
1230
74
854
0
VERTEX
8
Meshes
62
250
10
0.0
20
0.0
30
0.0
70
128
71
252
72
854
73
1248
74
860
0
VERTEX
8
Meshes
62
250
10
0.0
20
0.0
30
0.0
70
128
71
252
72
860
73
1247
74
853
0
VERTEX
8
Meshes
62
250
10
0.0
20
0.0
30
0.0
70
128
71
253
72
854
73
1230
74
838
0
VERTEX
8
Meshes
62
250
10
0.0
20
0.0
30
0.0
70
128
71
253
72
838
73
1218
74
861
0
VERTEX
8
Meshes
62
250
10
0.0
20
0.0
30
0.0
70
128
71
253
72
861
73
1248
74
854
0
VERTEX
8
Meshes
62
250
10
0.0
20
0.0
30
0.0
70
128
71
254
72
863
73
1171
74
728
0
VERTEX
8
Meshes
62
250
10
0.0
20
0.0
30
0.0
70
128
71
254
72
728
73
1183
74
865
0
VERTEX
8
Meshes
62
250
10
0.0
20
0.0
30
0.0
70
128
71
254
72
865
73
1250
74
874
0
VERTEX
8
Meshes
62
250
10
0.0
20
0.0
30
0.0
70
128
71
254
72
874
73
1249
74
863
0
VERTEX
8
Meshes
62
250
10
0.0
20
0.0
30
0.0
70
128
71
255
72
862
73
1249
74
874
0
VERTEX
8
Meshes
62
250
10
0.0
20
0.0
30
0.0
70
128
71
255
72
874
73
1250
74
864
0
VERTEX
8
Meshes
62
250
10
0.0
20
0.0
30
0.0
70
128
71
255
72
864
73
1244
74
855
0
VERTEX
8
Meshes
62
250
10
0.0
20
0.0
30
0.0
70
128
71
255
72
855
73
1243
74
862
0
VERTEX
8
Meshes
62
250
10
0.0
20
0.0
30
0.0
70
128
71
256
72
865
73
1183
74
754
0
VERTEX
8
Meshes
62
250
10
0.0
20
0.0
30
0.0
70
128
71
256
72
754
73
1193
74
875
0
VERTEX
8
Meshes
62
250
10
0.0
20
0.0
30
0.0
70
128
71
256
72
875
73
1250
74
865
0
VERTEX
8
Meshes
62
250
10
0.0
20
0.0
30
0.0
70
128
71
257
72
864
73
1250
74
875
0
VERTEX
8
Meshes
62
250
10
0.0
20
0.0
30
0.0
70
128
71
257
72
875
73
1193
74
856
0
VERTEX
8
Meshes
62
250
10
0.0
20
0.0
30
0.0
70
128
71
257
72
856
73
1244
74
864
0
VERTEX
8
Meshes
62
250
10
0.0
20
0.0
30
0.0
70
128
71
258
72
862
73
1243
74
857
0
VERTEX
8
Meshes
62
250
10
0.0
20
0.0
30
0.0
70
128
71
258
72
857
73
1245
74
866
0
VERTEX
8
Meshes
62
250
10
0.0
20
0.0
30
0.0
70
128
71
258
72
866
73
1251
74
876
0
VERTEX
8
Meshes
62
250
10
0.0
20
0.0
30
0.0
70
128
71
258
72
876
73
1249
74
862
0
VERTEX
8
Meshes
62
250
10
0.0
20
0.0
30
0.0
70
128
71
259
72
863
73
1249
74
876
0
VERTEX
8
Meshes
62
250
10
0.0
20
0.0
30
0.0
70
128
71
259
72
876
73
1251
74
867
0
VERTEX
8
Meshes
62
250
10
0.0
20
0.0
30
0.0
70
128
71
259
72
867
73
1203
74
774
0
VERTEX
8
Meshes
62
250
10
0.0
20
0.0
30
0.0
70
128
71
259
72
774
73
1171
74
863
0
VERTEX
8
Meshes
62
250
10
0.0
20
0.0
30
0.0
70
128
71
260
72
866
73
1245
74
858
0
VERTEX
8
Meshes
62
250
10
0.0
20
0.0
30
0.0
70
128
71
260
72
858
73
1246
74
868
0
VERTEX
8
Meshes
62
250
10
0.0
20
0.0
30
0.0
70
128
71
260
72
868
73
1252
74
877
0
VERTEX
8
Meshes
62
250
10
0.0
20
0.0
30
0.0
70
128
71
260
72
877
73
1251
74
866
0
VERTEX
8
Meshes
62
250
10
0.0
20
0.0
30
0.0
70
128
71
261
72
867
73
1251
74
877
0
VERTEX
8
Meshes
62
250
10
0.0
20
0.0
30
0.0
70
128
71
261
72
877
73
1252
74
869
0
VERTEX
8
Meshes
62
250
10
0.0
20
0.0
30
0.0
70
128
71
261
72
869
73
1208
74
780
0
VERTEX
8
Meshes
62
250
10
0.0
20
0.0
30
0.0
70
128
71
261
72
780
73
1203
74
867
0
VERTEX
8
Meshes
62
250
10
0.0
20
0.0
30
0.0
70
128
71
262
72
868
73
1246
74
859
0
VERTEX
8
Meshes
62
250
10
0.0
20
0.0
30
0.0
70
128
71
262
72
859
73
1247
74
870
0
VERTEX
8
Meshes
62
250
10
0.0
20
0.0
30
0.0
70
128
71
262
72
870
73
1253
74
878
0
VERTEX
8
Meshes
62
250
10
0.0
20
0.0
30
0.0
70
128
71
262
72
878
73
1252
74
868
0
VERTEX
8
Meshes
62
250
10
0.0
20
0.0
30
0.0
70
128
71
263
72
869
73
1252
74
878
0
VERTEX
8
Meshes
62
250
10
0.0
20
0.0
30
0.0
70
128
71
263
72
878
73
1253
74
871
0
VERTEX
8
Meshes
62
250
10
0.0
20
0.0
30
0.0
70
128
71
263
72
871
73
1240
74
814
0
VERTEX
8
Meshes
62
250
10
0.0
20
0.0
30
0.0
70
128
71
263
72
814
73
1208
74
869
0
VERTEX
8
Meshes
62
250
10
0.0
20
0.0
30
0.0
70
128
71
264
72
870
73
1247
74
860
0
VERTEX
8
Meshes
62
250
10
0.0
20
0.0
30
0.0
70
128
71
264
72
860
73
1248
74
872
0
VERTEX
8
Meshes
62
250
10
0.0
20
0.0
30
0.0
70
128
71
264
72
872
73
1254
74
879
0
VERTEX
8
Meshes
62
250
10
0.0
20
0.0
30
0.0
70
128
71
264
72
879
73
1253
74
870
0
VERTEX
8
Meshes
62
250
10
0.0
20
0.0
30
0.0
70
128
71
265
72
871
73
1253
74
879
0
VERTEX
8
Meshes
62
250
10
0.0
20
0.0
30
0.0
70
128
71
265
72
879
73
1254
74
873
0
VERTEX
8
Meshes
62
250
10
0.0
20
0.0
30
0.0
70
128
71
265
72
873
73
1228
74
820
0
VERTEX
8
Meshes
62
250
10
0.0
20
0.0
30
0.0
70
128
71
265
72
820
73
1240
74
871
0
VERTEX
8
Meshes
62
250
10
0.0
20
0.0
30
0.0
70
128
71
266
72
872
73
1248
74
861
0
VERTEX
8
Meshes
62
250
10
0.0
20
0.0
30
0.0
70
128
71
266
72
861
73
1218
74
880
0
VERTEX
8
Meshes
62
250
10
0.0
20
0.0
30
0.0
70
128
71
266
72
880
73
1254
74
872
0
VERTEX
8
Meshes
62
250
10
0.0
20
0.0
30
0.0
70
128
71
267
72
873
73
1254
74
880
0
VERTEX
8
Meshes
62
250
10
0.0
20
0.0
30
0.0
70
128
71
267
72
880
73
1218
74
839
0
VERTEX
8
Meshes
62
250
10
0.0
20
0.0
30
0.0
70
128
71
267
72
839
73
1228
74
873
0
VERTEX
8
Meshes
62
250
10
0.0
20
0.0
30
0.0
70
128
71
268
72
881
73
1177
74
738
0
VERTEX
8
Meshes
62
250
10
0.0
20
0.0
30
0.0
70
128
71
268
72
738
73
1189
74
882
0
VERTEX
8
Meshes
62
250
10
0.0
20
0.0
30
0.0
70
128
71
268
72
882
73
1256
74
887
0
VERTEX
8
Meshes
62
250
10
0.0
20
0.0
30
0.0
70
128
71
268
72
887
73
1255
74
881
0
VERTEX
8
Meshes
62
250
10
0.0
20
0.0
30
0.0
70
128
71
269
72
882
73
1189
74
749
0
VERTEX
8
Meshes
62
250
10
0.0
20
0.0
30
0.0
70
128
71
269
72
749
73
1193
74
888
0
VERTEX
8
Meshes
62
250
10
0.0
20
0.0
30
0.0
70
128
71
269
72
888
73
1256
74
882
0
VERTEX
8
Meshes
62
250
10
0.0
20
0.0
30
0.0
70
128
71
270
72
881
73
1255
74
889
0
VERTEX
8
Meshes
62
250
10
0.0
20
0.0
30
0.0
70
128
71
270
72
889
73
1257
74
883
0
VERTEX
8
Meshes
62
250
10
0.0
20
0.0
30
0.0
70
128
71
270
72
883
73
1197
74
764
0
VERTEX
8
Meshes
62
250
10
0.0
20
0.0
30
0.0
70
128
71
270
72
764
73
1177
74
881
0
VERTEX
8
Meshes
62
250
10
0.0
20
0.0
30
0.0
70
128
71
271
72
883
73
1257
74
890
0
VERTEX
8
Meshes
62
250
10
0.0
20
0.0
30
0.0
70
128
71
271
72
890
73
1258
74
884
0
VERTEX
8
Meshes
62
250
10
0.0
20
0.0
30
0.0
70
128
71
271
72
884
73
1214
74
790
0
VERTEX
8
Meshes
62
250
10
0.0
20
0.0
30
0.0
70
128
71
271
72
790
73
1197
74
883
0
VERTEX
8
Meshes
62
250
10
0.0
20
0.0
30
0.0
70
128
71
272
72
884
73
1258
74
891
0
VERTEX
8
Meshes
62
250
10
0.0
20
0.0
30
0.0
70
128
71
272
72
891
73
1259
74
885
0
VERTEX
8
Meshes
62
250
10
0.0
20
0.0
30
0.0
70
128
71
272
72
885
73
1234
74
804
0
VERTEX
8
Meshes
62
250
10
0.0
20
0.0
30
0.0
70
128
71
272
72
804
73
1214
74
884
0
VERTEX
8
Meshes
62
250
10
0.0
20
0.0
30
0.0
70
128
71
273
72
885
73
1259
74
892
0
VERTEX
8
Meshes
62
250
10
0.0
20
0.0
30
0.0
70
128
71
273
72
892
73
1260
74
886
0
VERTEX
8
Meshes
62
250
10
0.0
20
0.0
30
0.0
70
128
71
273
72
886
73
1222
74
830
0
VERTEX
8
Meshes
62
250
10
0.0
20
0.0
30
0.0
70
128
71
273
72
830
73
1234
74
885
0
VERTEX
8
Meshes
62
250
10
0.0
20
0.0
30
0.0
70
128
71
274
72
886
73
1260
74
893
0
VERTEX
8
Meshes
62
250
10
0.0
20
0.0
30
0.0
70
128
71
274
72
893
73
1218
74
845
0
VERTEX
8
Meshes
62
250
10
0.0
20
0.0
30
0.0
70
128
71
274
72
845
73
1222
74
886
0
VERTEX
8
Meshes
62
250
10
0.0
20
0.0
30
0.0
70
128
71
275
72
894
73
1255
74
887
0
VERTEX
8
Meshes
62
250
10
0.0
20
0.0
30
0.0
70
128
71
275
72
887
73
1256
74
896
0
VERTEX
8
Meshes
62
250
10
0.0
20
0.0
30
0.0
70
128
71
275
72
896
73
1262
74
906
0
VERTEX
8
Meshes
62
250
10
0.0
20
0.0
30
0.0
70
128
71
275
72
906
73
1261
74
894
0
VERTEX
8
Meshes
62
250
10
0.0
20
0.0
30
0.0
70
128
71
276
72
895
73
1261
74
906
0
VERTEX
8
Meshes
62
250
10
0.0
20
0.0
30
0.0
70
128
71
276
72
906
73
1262
74
897
0
VERTEX
8
Meshes
62
250
10
0.0
20
0.0
30
0.0
70
128
71
276
72
897
73
1188
74
737
0
VERTEX
8
Meshes
62
250
10
0.0
20
0.0
30
0.0
70
128
71
276
72
737
73
1176
74
895
0
VERTEX
8
Meshes
62
250
10
0.0
20
0.0
30
0.0
70
128
71
277
72
896
73
1256
74
888
0
VERTEX
8
Meshes
62
250
10
0.0
20
0.0
30
0.0
70
128
71
277
72
888
73
1193
74
907
0
VERTEX
8
Meshes
62
250
10
0.0
20
0.0
30
0.0
70
128
71
277
72
907
73
1262
74
896
0
VERTEX
8
Meshes
62
250
10
0.0
20
0.0
30
0.0
70
128
71
278
72
897
73
1262
74
907
0
VERTEX
8
Meshes
62
250
10
0.0
20
0.0
30
0.0
70
128
71
278
72
907
73
1193
74
750
0
VERTEX
8
Meshes
62
250
10
0.0
20
0.0
30
0.0
70
128
71
278
72
750
73
1188
74
897
0
VERTEX
8
Meshes
62
250
10
0.0
20
0.0
30
0.0
70
128
71
279
72
895
73
1176
74
765
0
VERTEX
8
Meshes
62
250
10
0.0
20
0.0
30
0.0
70
128
71
279
72
765
73
1198
74
899
0
VERTEX
8
Meshes
62
250
10
0.0
20
0.0
30
0.0
70
128
71
279
72
899
73
1263
74
908
0
VERTEX
8
Meshes
62
250
10
0.0
20
0.0
30
0.0
70
128
71
279
72
908
73
1261
74
895
0
VERTEX
8
Meshes
62
250
10
0.0
20
0.0
30
0.0
70
128
71
280
72
894
73
1261
74
908
0
VERTEX
8
Meshes
62
250
10
0.0
20
0.0
30
0.0
70
128
71
280
72
908
73
1263
74
898
0
VERTEX
8
Meshes
62
250
10
0.0
20
0.0
30
0.0
70
128
71
280
72
898
73
1257
74
889
0
VERTEX
8
Meshes
62
250
10
0.0
20
0.0
30
0.0
70
128
71
280
72
889
73
1255
74
894
0
VERTEX
8
Meshes
62
250
10
0.0
20
0.0
30
0.0
70
128
71
281
72
899
73
1198
74
788
0
VERTEX
8
Meshes
62
250
10
0.0
20
0.0
30
0.0
70
128
71
281
72
788
73
1213
74
901
0
VERTEX
8
Meshes
62
250
10
0.0
20
0.0
30
0.0
70
128
71
281
72
901
73
1264
74
909
0
VERTEX
8
Meshes
62
250
10
0.0
20
0.0
30
0.0
70
128
71
281
72
909
73
1263
74
899
0
VERTEX
8
Meshes
62
250
10
0.0
20
0.0
30
0.0
70
128
71
282
72
898
73
1263
74
909
0
VERTEX
8
Meshes
62
250
10
0.0
20
0.0
30
0.0
70
128
71
282
72
909
73
1264
74
900
0
VERTEX
8
Meshes
62
250
10
0.0
20
0.0
30
0.0
70
128
71
282
72
900
73
1258
74
890
0
VERTEX
8
Meshes
62
250
10
0.0
20
0.0
30
0.0
70
128
71
282
72
890
73
1257
74
898
0
VERTEX
8
Meshes
62
250
10
0.0
20
0.0
30
0.0
70
128
71
283
72
901
73
1213
74
805
0
VERTEX
8
Meshes
62
250
10
0.0
20
0.0
30
0.0
70
128
71
283
72
805
73
1235
74
903
0
VERTEX
8
Meshes
62
250
10
0.0
20
0.0
30
0.0
70
128
71
283
72
903
73
1265
74
910
0
VERTEX
8
Meshes
62
250
10
0.0
20
0.0
30
0.0
70
128
71
283
72
910
73
1264
74
901
0
VERTEX
8
Meshes
62
250
10
0.0
20
0.0
30
0.0
70
128
71
284
72
900
73
1264
74
910
0
VERTEX
8
Meshes
62
250
10
0.0
20
0.0
30
0.0
70
128
71
284
72
910
73
1265
74
902
0
VERTEX
8
Meshes
62
250
10
0.0
20
0.0
30
0.0
70
128
71
284
72
902
73
1259
74
891
0
VERTEX
8
Meshes
62
250
10
0.0
20
0.0
30
0.0
70
128
71
284
72
891
73
1258
74
900
0
VERTEX
8
Meshes
62
250
10
0.0
20
0.0
30
0.0
70
128
71
285
72
903
73
1235
74
828
0
VERTEX
8
Meshes
62
250
10
0.0
20
0.0
30
0.0
70
128
71
285
72
828
73
1223
74
905
0
VERTEX
8
Meshes
62
250
10
0.0
20
0.0
30
0.0
70
128
71
285
72
905
73
1266
74
911
0
VERTEX
8
Meshes
62
250
10
0.0
20
0.0
30
0.0
70
128
71
285
72
911
73
1265
74
903
0
VERTEX
8
Meshes
62
250
10
0.0
20
0.0
30
0.0
70
128
71
286
72
902
73
1265
74
911
0
VERTEX
8
Meshes
62
250
10
0.0
20
0.0
30
0.0
70
128
71
286
72
911
73
1266
74
904
0
VERTEX
8
Meshes
62
250
10
0.0
20
0.0
30
0.0
70
128
71
286
72
904
73
1260
74
892
0
VERTEX
8
Meshes
62
250
10
0.0
20
0.0
30
0.0
70
128
71
286
72
892
73
1259
74
902
0
VERTEX
8
Meshes
62
250
10
0.0
20
0.0
30
0.0
70
128
71
287
72
905
73
1223
74
844
0
VERTEX
8
Meshes
62
250
10
0.0
20
0.0
30
0.0
70
128
71
287
72
844
73
1218
74
912
0
VERTEX
8
Meshes
62
250
10
0.0
20
0.0
30
0.0
70
128
71
287
72
912
73
1266
74
905
0
VERTEX
8
Meshes
62
250
10
0.0
20
0.0
30
0.0
70
128
71
288
72
904
73
1266
74
912
0
VERTEX
8
Meshes
62
250
10
0.0
20
0.0
30
0.0
70
128
71
288
72
912
73
1218
74
893
0
VERTEX
8
Meshes
62
250
10
0.0
20
0.0
30
0.0
70
128
71
288
72
893
73
1260
74
904
0
VERTEX
8
Meshes
62
250
10
0.0
20
0.0
30
0.0
70
128
71
289
72
919
73
1268
74
914
0
VERTEX
8
Meshes
62
250
10
0.0
20
0.0
30
0.0
70
128
71
289
72
914
73
1191
74
742
0
VERTEX
8
Meshes
62
250
10
0.0
20
0.0
30
0.0
70
128
71
289
72
742
73
1179
74
913
0
VERTEX
8
Meshes
62
250
10
0.0
20
0.0
30
0.0
70
128
71
289
72
913
73
1267
74
919
0
VERTEX
8
Meshes
62
250
10
0.0
20
0.0
30
0.0
70
128
71
290
72
747
73
1191
74
914
0
VERTEX
8
Meshes
62
250
10
0.0
20
0.0
30
0.0
70
128
71
290
72
914
73
1268
74
920
0
VERTEX
8
Meshes
62
250
10
0.0
20
0.0
30
0.0
70
128
71
290
72
920
73
1193
74
747
0
VERTEX
8
Meshes
62
250
10
0.0
20
0.0
30
0.0
70
128
71
291
72
760
73
1195
74
915
0
VERTEX
8
Meshes
62
250
10
0.0
20
0.0
30
0.0
70
128
71
291
72
915
73
1269
74
921
0
VERTEX
8
Meshes
62
250
10
0.0
20
0.0
30
0.0
70
128
71
291
72
921
73
1267
74
913
0
VERTEX
8
Meshes
62
250
10
0.0
20
0.0
30
0.0
70
128
71
291
72
913
73
1179
74
760
0
VERTEX
8
Meshes
62
250
10
0.0
20
0.0
30
0.0
70
128
71
292
72
793
73
1216
74
916
0
VERTEX
8
Meshes
62
250
10
0.0
20
0.0
30
0.0
70
128
71
292
72
916
73
1270
74
922
0
VERTEX
8
Meshes
62
250
10
0.0
20
0.0
30
0.0
70
128
71
292
72
922
73
1269
74
915
0
VERTEX
8
Meshes
62
250
10
0.0
20
0.0
30
0.0
70
128
71
292
72
915
73
1195
74
793
0
VERTEX
8
Meshes
62
250
10
0.0
20
0.0
30
0.0
70
128
71
293
72
800
73
1232
74
917
0
VERTEX
8
Meshes
62
250
10
0.0
20
0.0
30
0.0
70
128
71
293
72
917
73
1271
74
923
0
VERTEX
8
Meshes
62
250
10
0.0
20
0.0
30
0.0
70
128
71
293
72
923
73
1270
74
916
0
VERTEX
8
Meshes
62
250
10
0.0
20
0.0
30
0.0
70
128
71
293
72
916
73
1216
74
800
0
VERTEX
8
Meshes
62
250
10
0.0
20
0.0
30
0.0
70
128
71
294
72
833
73
1220
74
918
0
VERTEX
8
Meshes
62
250
10
0.0
20
0.0
30
0.0
70
128
71
294
72
918
73
1272
74
924
0
VERTEX
8
Meshes
62
250
10
0.0
20
0.0
30
0.0
70
128
71
294
72
924
73
1271
74
917
0
VERTEX
8
Meshes
62
250
10
0.0
20
0.0
30
0.0
70
128
71
294
72
917
73
1232
74
833
0
VERTEX
8
Meshes
62
250
10
0.0
20
0.0
30
0.0
70
128
71
295
72
925
73
1272
74
918
0
VERTEX
8
Meshes
62
250
10
0.0
20
0.0
30
0.0
70
128
71
295
72
918
73
1220
74
847
0
VERTEX
8
Meshes
62
250
10
0.0
20
0.0
30
0.0
70
128
71
295
72
847
73
1218
74
925
0
VERTEX
8
Meshes
62
250
10
0.0
20
0.0
30
0.0
70
128
71
296
72
743
73
1192
74
929
0
VERTEX
8
Meshes
62
250
10
0.0
20
0.0
30
0.0
70
128
71
296
72
929
73
1274
74
938
0
VERTEX
8
Meshes
62
250
10
0.0
20
0.0
30
0.0
70
128
71
296
72
938
73
1273
74
927
0
VERTEX
8
Meshes
62
250
10
0.0
20
0.0
30
0.0
70
128
71
296
72
927
73
1180
74
743
0
VERTEX
8
Meshes
62
250
10
0.0
20
0.0
30
0.0
70
128
71
297
72
938
73
1274
74
928
0
VERTEX
8
Meshes
62
250
10
0.0
20
0.0
30
0.0
70
128
71
297
72
928
73
1268
74
919
0
VERTEX
8
Meshes
62
250
10
0.0
20
0.0
30
0.0
70
128
71
297
72
919
73
1267
74
926
0
VERTEX
8
Meshes
62
250
10
0.0
20
0.0
30
0.0
70
128
71
297
72
926
73
1273
74
938
0
VERTEX
8
Meshes
62
250
10
0.0
20
0.0
30
0.0
70
128
71
298
72
920
73
1268
74
928
0
VERTEX
8
Meshes
62
250
10
0.0
20
0.0
30
0.0
70
128
71
298
72
928
73
1274
74
939
0
VERTEX
8
Meshes
62
250
10
0.0
20
0.0
30
0.0
70
128
71
298
72
939
73
1193
74
920
0
VERTEX
8
Meshes
62
250
10
0.0
20
0.0
30
0.0
70
128
71
299
72
939
73
1274
74
929
0
VERTEX
8
Meshes
62
250
10
0.0
20
0.0
30
0.0
70
128
71
299
72
929
73
1192
74
746
0
VERTEX
8
Meshes
62
250
10
0.0
20
0.0
30
0.0
70
128
71
299
72
746
73
1193
74
939
0
VERTEX
8
Meshes
62
250
10
0.0
20
0.0
30
0.0
70
128
71
300
72
921
73
1269
74
930
0
VERTEX
8
Meshes
62
250
10
0.0
20
0.0
30
0.0
70
128
71
300
72
930
73
1275
74
940
0
VERTEX
8
Meshes
62
250
10
0.0
20
0.0
30
0.0
70
128
71
300
72
940
73
1273
74
926
0
VERTEX
8
Meshes
62
250
10
0.0
20
0.0
30
0.0
70
128
71
300
72
926
73
1267
74
921
0
VERTEX
8
Meshes
62
250
10
0.0
20
0.0
30
0.0
70
128
71
301
72
940
73
1275
74
931
0
VERTEX
8
Meshes
62
250
10
0.0
20
0.0
30
0.0
70
128
71
301
72
931
73
1194
74
759
0
VERTEX
8
Meshes
62
250
10
0.0
20
0.0
30
0.0
70
128
71
301
72
759
73
1180
74
927
0
VERTEX
8
Meshes
62
250
10
0.0
20
0.0
30
0.0
70
128
71
301
72
927
73
1273
74
940
0
VERTEX
8
Meshes
62
250
10
0.0
20
0.0
30
0.0
70
128
71
302
72
922
73
1270
74
933
0
VERTEX
8
Meshes
62
250
10
0.0
20
0.0
30
0.0
70
128
71
302
72
933
73
1276
74
941
0
VERTEX
8
Meshes
62
250
10
0.0
20
0.0
30
0.0
70
128
71
302
72
941
73
1275
74
930
0
VERTEX
8
Meshes
62
250
10
0.0
20
0.0
30
0.0
70
128
71
302
72
930
73
1269
74
922
0
VERTEX
8
Meshes
62
250
10
0.0
20
0.0
30
0.0
70
128
71
303
72
941
73
1276
74
932
0
VERTEX
8
Meshes
62
250
10
0.0
20
0.0
30
0.0
70
128
71
303
72
932
73
1217
74
795
0
VERTEX
8
Meshes
62
250
10
0.0
20
0.0
30
0.0
70
128
71
303
72
795
73
1194
74
931
0
VERTEX
8
Meshes
62
250
10
0.0
20
0.0
30
0.0
70
128
71
303
72
931
73
1275
74
941
0
VERTEX
8
Meshes
62
250
10
0.0
20
0.0
30
0.0
70
128
71
304
72
923
73
1271
74
935
0
VERTEX
8
Meshes
62
250
10
0.0
20
0.0
30
0.0
70
128
71
304
72
935
73
1277
74
942
0
VERTEX
8
Meshes
62
250
10
0.0
20
0.0
30
0.0
70
128
71
304
72
942
73
1276
74
933
0
VERTEX
8
Meshes
62
250
10
0.0
20
0.0
30
0.0
70
128
71
304
72
933
73
1270
74
923
0
VERTEX
8
Meshes
62
250
10
0.0
20
0.0
30
0.0
70
128
71
305
72
942
73
1277
74
934
0
VERTEX
8
Meshes
62
250
10
0.0
20
0.0
30
0.0
70
128
71
305
72
934
73
1231
74
799
0
VERTEX
8
Meshes
62
250
10
0.0
20
0.0
30
0.0
70
128
71
305
72
799
73
1217
74
932
0
VERTEX
8
Meshes
62
250
10
0.0
20
0.0
30
0.0
70
128
71
305
72
932
73
1276
74
942
0
VERTEX
8
Meshes
62
250
10
0.0
20
0.0
30
0.0
70
128
71
306
72
924
73
1272
74
937
0
VERTEX
8
Meshes
62
250
10
0.0
20
0.0
30
0.0
70
128
71
306
72
937
73
1278
74
943
0
VERTEX
8
Meshes
62
250
10
0.0
20
0.0
30
0.0
70
128
71
306
72
943
73
1277
74
935
0
VERTEX
8
Meshes
62
250
10
0.0
20
0.0
30
0.0
70
128
71
306
72
935
73
1271
74
924
0
VERTEX
8
Meshes
62
250
10
0.0
20
0.0
30
0.0
70
128
71
307
72
943
73
1278
74
936
0
VERTEX
8
Meshes
62
250
10
0.0
20
0.0
30
0.0
70
128
71
307
72
936
73
1219
74
835
0
VERTEX
8
Meshes
62
250
10
0.0
20
0.0
30
0.0
70
128
71
307
72
835
73
1231
74
934
0
VERTEX
8
Meshes
62
250
10
0.0
20
0.0
30
0.0
70
128
71
307
72
934
73
1277
74
943
0
VERTEX
8
Meshes
62
250
10
0.0
20
0.0
30
0.0
70
128
71
308
72
848
73
1219
74
936
0
VERTEX
8
Meshes
62
250
10
0.0
20
0.0
30
0.0
70
128
71
308
72
936
73
1278
74
944
0
VERTEX
8
Meshes
62
250
10
0.0
20
0.0
30
0.0
70
128
71
308
72
944
73
1218
74
848
0
VERTEX
8
Meshes
62
250
10
0.0
20
0.0
30
0.0
70
128
71
309
72
944
73
1278
74
937
0
VERTEX
8
Meshes
62
250
10
0.0
20
0.0
30
0.0
70
128
71
309
72
937
73
1272
74
925
0
VERTEX
8
Meshes
62
250
10
0.0
20
0.0
30
0.0
70
128
71
309
72
925
73
1218
74
944
0
VERTEX
8
Meshes
62
250
10
0.0
20
0.0
30
0.0
70
128
71
310
72
733
73
1186
74
946
0
VERTEX
8
Meshes
62
250
10
0.0
20
0.0
30
0.0
70
128
71
310
72
946
73
1280
74
951
0
VERTEX
8
Meshes
62
250
10
0.0
20
0.0
30
0.0
70
128
71
310
72
951
73
1279
74
945
0
VERTEX
8
Meshes
62
250
10
0.0
20
0.0
30
0.0
70
128
71
310
72
945
73
1174
74
733
0
VERTEX
8
Meshes
62
250
10
0.0
20
0.0
30
0.0
70
128
71
311
72
952
73
1280
74
946
0
VERTEX
8
Meshes
62
250
10
0.0
20
0.0
30
0.0
70
128
71
311
72
946
73
1186
74
745
0
VERTEX
8
Meshes
62
250
10
0.0
20
0.0
30
0.0
70
128
71
311
72
745
73
1193
74
952
0
VERTEX
8
Meshes
62
250
10
0.0
20
0.0
30
0.0
70
128
71
312
72
953
73
1281
74
947
0
VERTEX
8
Meshes
62
250
10
0.0
20
0.0
30
0.0
70
128
71
312
72
947
73
1200
74
769
0
VERTEX
8
Meshes
62
250
10
0.0
20
0.0
30
0.0
70
128
71
312
72
769
73
1174
74
945
0
VERTEX
8
Meshes
62
250
10
0.0
20
0.0
30
0.0
70
128
71
312
72
945
73
1279
74
953
0
VERTEX
8
Meshes
62
250
10
0.0
20
0.0
30
0.0
70
128
71
313
72
954
73
1282
74
948
0
VERTEX
8
Meshes
62
250
10
0.0
20
0.0
30
0.0
70
128
71
313
72
948
73
1211
74
785
0
VERTEX
8
Meshes
62
250
10
0.0
20
0.0
30
0.0
70
128
71
313
72
785
73
1200
74
947
0
VERTEX
8
Meshes
62
250
10
0.0
20
0.0
30
0.0
70
128
71
313
72
947
73
1281
74
954
0
VERTEX
8
Meshes
62
250
10
0.0
20
0.0
30
0.0
70
128
71
314
72
955
73
1283
74
949
0
VERTEX
8
Meshes
62
250
10
0.0
20
0.0
30
0.0
70
128
71
314
72
949
73
1237
74
809
0
VERTEX
8
Meshes
62
250
10
0.0
20
0.0
30
0.0
70
128
71
314
72
809
73
1211
74
948
0
VERTEX
8
Meshes
62
250
10
0.0
20
0.0
30
0.0
70
128
71
314
72
948
73
1282
74
955
0
VERTEX
8
Meshes
62
250
10
0.0
20
0.0
30
0.0
70
128
71
315
72
956
73
1284
74
950
0
VERTEX
8
Meshes
62
250
10
0.0
20
0.0
30
0.0
70
128
71
315
72
950
73
1225
74
825
0
VERTEX
8
Meshes
62
250
10
0.0
20
0.0
30
0.0
70
128
71
315
72
825
73
1237
74
949
0
VERTEX
8
Meshes
62
250
10
0.0
20
0.0
30
0.0
70
128
71
315
72
949
73
1283
74
956
0
VERTEX
8
Meshes
62
250
10
0.0
20
0.0
30
0.0
70
128
71
316
72
842
73
1225
74
950
0
VERTEX
8
Meshes
62
250
10
0.0
20
0.0
30
0.0
70
128
71
316
72
950
73
1284
74
957
0
VERTEX
8
Meshes
62
250
10
0.0
20
0.0
30
0.0
70
128
71
316
72
957
73
1218
74
842
0
VERTEX
8
Meshes
62
250
10
0.0
20
0.0
30
0.0
70
128
71
317
72
951
73
1280
74
960
0
VERTEX
8
Meshes
62
250
10
0.0
20
0.0
30
0.0
70
128
71
317
72
960
73
1286
74
970
0
VERTEX
8
Meshes
62
250
10
0.0
20
0.0
30
0.0
70
128
71
317
72
970
73
1285
74
958
0
VERTEX
8
Meshes
62
250
10
0.0
20
0.0
30
0.0
70
128
71
317
72
958
73
1279
74
951
0
VERTEX
8
Meshes
62
250
10
0.0
20
0.0
30
0.0
70
128
71
318
72
970
73
1286
74
961
0
VERTEX
8
Meshes
62
250
10
0.0
20
0.0
30
0.0
70
128
71
318
72
961
73
1185
74
732
0
VERTEX
8
Meshes
62
250
10
0.0
20
0.0
30
0.0
70
128
71
318
72
732
73
1173
74
959
0
VERTEX
8
Meshes
62
250
10
0.0
20
0.0
30
0.0
70
128
71
318
72
959
73
1285
74
970
0
VERTEX
8
Meshes
62
250
10
0.0
20
0.0
30
0.0
70
128
71
319
72
752
73
1185
74
961
0
VERTEX
8
Meshes
62
250
10
0.0
20
0.0
30
0.0
70
128
71
319
72
961
73
1286
74
971
0
VERTEX
8
Meshes
62
250
10
0.0
20
0.0
30
0.0
70
128
71
319
72
971
73
1193
74
752
0
VERTEX
8
Meshes
62
250
10
0.0
20
0.0
30
0.0
70
128
71
320
72
971
73
1286
74
960
0
VERTEX
8
Meshes
62
250
10
0.0
20
0.0
30
0.0
70
128
71
320
72
960
73
1280
74
952
0
VERTEX
8
Meshes
62
250
10
0.0
20
0.0
30
0.0
70
128
71
320
72
952
73
1193
74
971
0
VERTEX
8
Meshes
62
250
10
0.0
20
0.0
30
0.0
70
128
71
321
72
770
73
1201
74
963
0
VERTEX
8
Meshes
62
250
10
0.0
20
0.0
30
0.0
70
128
71
321
72
963
73
1287
74
972
0
VERTEX
8
Meshes
62
250
10
0.0
20
0.0
30
0.0
70
128
71
321
72
972
73
1285
74
959
0
VERTEX
8
Meshes
62
250
10
0.0
20
0.0
30
0.0
70
128
71
321
72
959
73
1173
74
770
0
VERTEX
8
Meshes
62
250
10
0.0
20
0.0
30
0.0
70
128
71
322
72
972
73
1287
74
962
0
VERTEX
8
Meshes
62
250
10
0.0
20
0.0
30
0.0
70
128
71
322
72
962
73
1281
74
953
0
VERTEX
8
Meshes
62
250
10
0.0
20
0.0
30
0.0
70
128
71
322
72
953
73
1279
74
958
0
VERTEX
8
Meshes
62
250
10
0.0
20
0.0
30
0.0
70
128
71
322
72
958
73
1285
74
972
0
VERTEX
8
Meshes
62
250
10
0.0
20
0.0
30
0.0
70
128
71
323
72
783
73
1210
74
965
0
VERTEX
8
Meshes
62
250
10
0.0
20
0.0
30
0.0
70
128
71
323
72
965
73
1288
74
973
0
VERTEX
8
Meshes
62
250
10
0.0
20
0.0
30
0.0
70
128
71
323
72
973
73
1287
74
963
0
VERTEX
8
Meshes
62
250
10
0.0
20
0.0
30
0.0
70
128
71
323
72
963
73
1201
74
783
0
VERTEX
8
Meshes
62
250
10
0.0
20
0.0
30
0.0
70
128
71
324
72
973
73
1288
74
964
0
VERTEX
8
Meshes
62
250
10
0.0
20
0.0
30
0.0
70
128
71
324
72
964
73
1282
74
954
0
VERTEX
8
Meshes
62
250
10
0.0
20
0.0
30
0.0
70
128
71
324
72
954
73
1281
74
962
0
VERTEX
8
Meshes
62
250
10
0.0
20
0.0
30
0.0
70
128
71
324
72
962
73
1287
74
973
0
VERTEX
8
Meshes
62
250
10
0.0
20
0.0
30
0.0
70
128
71
325
72
810
73
1238
74
966
0
VERTEX
8
Meshes
62
250
10
0.0
20
0.0
30
0.0
70
128
71
325
72
966
73
1289
74
974
0
VERTEX
8
Meshes
62
250
10
0.0
20
0.0
30
0.0
70
128
71
325
72
974
73
1288
74
965
0
VERTEX
8
Meshes
62
250
10
0.0
20
0.0
30
0.0
70
128
71
325
72
965
73
1210
74
810
0
VERTEX
8
Meshes
62
250
10
0.0
20
0.0
30
0.0
70
128
71
326
72
974
73
1289
74
967
0
VERTEX
8
Meshes
62
250
10
0.0
20
0.0
30
0.0
70
128
71
326
72
967
73
1283
74
955
0
VERTEX
8
Meshes
62
250
10
0.0
20
0.0
30
0.0
70
128
71
326
72
955
73
1282
74
964
0
VERTEX
8
Meshes
62
250
10
0.0
20
0.0
30
0.0
70
128
71
326
72
964
73
1288
74
974
0
VERTEX
8
Meshes
62
250
10
0.0
20
0.0
30
0.0
70
128
71
327
72
823
73
1226
74
968
0
VERTEX
8
Meshes
62
250
10
0.0
20
0.0
30
0.0
70
128
71
327
72
968
73
1290
74
975
0
VERTEX
8
Meshes
62
250
10
0.0
20
0.0
30
0.0
70
128
71
327
72
975
73
1289
74
966
0
VERTEX
8
Meshes
62
250
10
0.0
20
0.0
30
0.0
70
128
71
327
72
966
73
1238
74
823
0
VERTEX
8
Meshes
62
250
10
0.0
20
0.0
30
0.0
70
128
71
328
72
975
73
1290
74
969
0
VERTEX
8
Meshes
62
250
10
0.0
20
0.0
30
0.0
70
128
71
328
72
969
73
1284
74
956
0
VERTEX
8
Meshes
62
250
10
0.0
20
0.0
30
0.0
70
128
71
328
72
956
73
1283
74
967
0
VERTEX
8
Meshes
62
250
10
0.0
20
0.0
30
0.0
70
128
71
328
72
967
73
1289
74
975
0
VERTEX
8
Meshes
62
250
10
0.0
20
0.0
30
0.0
70
128
71
329
72
957
73
1284
74
969
0
VERTEX
8
Meshes
62
250
10
0.0
20
0.0
30
0.0
70
128
71
329
72
969
73
1290
74
976
0
VERTEX
8
Meshes
62
250
10
0.0
20
0.0
30
0.0
70
128
71
329
72
976
73
1218
74
957
0
VERTEX
8
Meshes
62
250
10
0.0
20
0.0
30
0.0
70
128
71
330
72
976
73
1290
74
968
0
VERTEX
8
Meshes
62
250
10
0.0
20
0.0
30
0.0
70
128
71
330
72
968
73
1226
74
841
0
VERTEX
8
Meshes
62
250
10
0.0
20
0.0
30
0.0
70
128
71
330
72
841
73
1218
74
976
0
VERTEX
8
Meshes
62
250
10
0.0
20
0.0
30
0.0
70
128
71
331
72
672
73
1136
74
668
0
VERTEX
8
Meshes
62
250
10
0.0
20
0.0
30
0.0
70
128
71
331
72
668
73
1121
74
715
0
VERTEX
8
Meshes
62
250
10
0.0
20
0.0
30
0.0
70
128
71
331
72
715
73
1105
74
713
0
VERTEX
8
Meshes
62
250
10
0.0
20
0.0
30
0.0
70
128
71
331
72
713
73
1120
74
672
0
VERTEX
8
Meshes
62
250
10
0.0
20
0.0
30
0.0
70
128
71
332
72
715
73
1121
74
666
0
VERTEX
8
Meshes
62
250
10
0.0
20
0.0
30
0.0
70
128
71
332
72
666
73
1122
74
712
0
VERTEX
8
Meshes
62
250
10
0.0
20
0.0
30
0.0
70
128
71
332
72
712
73
1106
74
716
0
VERTEX
8
Meshes
62
250
10
0.0
20
0.0
30
0.0
70
128
71
332
72
716
73
1105
74
715
0
SEQEND
0
ENDBLK
0
ENDSEC
0
SECTION
2
ENTITIES
0
INSERT
8
1025
2
Circle
10
-0.645742
20
-0.062272
30
0.878625
41
0.721093
42
0.721093
43
0.721093
50
-0.000000
0
ENDSEC
0
EOF
